M48
; DRILL file {KiCad 9.0.3} date 2025-08-31T00:36:59+0900
; FORMAT={-:-/ absolute / inch / decimal}
; #@! TF.CreationDate,2025-08-31T00:36:59+09:00
; #@! TF.GenerationSoftware,Kicad,Pcbnew,9.0.3
; #@! TF.FileFunction,Plated,1,2,PTH
FMAT,2
INCH
; #@! TA.AperFunction,Plated,PTH,ViaDrill
T1C0.0118
; #@! TA.AperFunction,Plated,PTH,ViaDrill
T2C0.0197
; #@! TA.AperFunction,Plated,PTH,ComponentDrill
T3C0.0354
%
G90
G05
T1
X3.4823Y-2.4744
X3.4823Y-2.7815
X3.4823Y-3.2146
X3.4823Y-3.6083
X3.4823Y-3.8248
X3.7067Y-2.9449
X3.7067Y-2.9862
X3.7067Y-3.0994
X3.7382Y-3.1191
X3.7598Y-3.8268
X3.8228Y-3.6004
X3.8406Y-3.4094
X3.8858Y-3.124
X3.9449Y-3.3799
X3.9547Y-3.0906
X3.9567Y-2.4744
X4.3504Y-3.8268
X4.5472Y-2.4744
X4.8248Y-3.5276
X4.9409Y-3.8406
X5.1358Y-3.2303
X5.1378Y-2.4744
X5.5315Y-3.8406
X5.685Y-3.7205
X5.7283Y-2.4744
X6.122Y-3.8406
X6.126Y-3.2008
X6.3189Y-2.4744
X6.563Y-2.4744
X6.6437Y-3.4528
X6.6654Y-2.8839
X6.7126Y-3.8268
X6.7677Y-3.4173
X7.1201Y-2.8839
X7.1791Y-3.0059
X7.3248Y-3.8268
T2
X4.1398Y-3.3189
X5.6142Y-3.5039
X6.0886Y-3.5039
T3
X6.5496Y-2.6528
X6.5496Y-2.7528
X6.5496Y-2.8528
X6.5496Y-2.9528
X6.5496Y-3.0528
X6.5496Y-3.1528
X6.5496Y-3.2528
X6.5496Y-3.3528
X6.5496Y-3.4528
X6.5496Y-3.5528
X6.5496Y-3.6528
X6.5496Y-3.7528
X7.2496Y-2.8528
X7.2496Y-2.9528
X7.2496Y-3.0528
X7.2496Y-3.1528
X7.2496Y-3.2528
X7.2496Y-3.3528
X7.2496Y-3.4528
X7.2496Y-3.5528
X7.2496Y-3.6528
X7.2496Y-3.7528
M30
