%TF.GenerationSoftware,KiCad,Pcbnew,9.0.3*%
%TF.CreationDate,2025-08-31T00:01:55+09:00*%
%TF.ProjectId,dash,64617368-2e6b-4696-9361-645f70636258,rev?*%
%TF.SameCoordinates,Original*%
%TF.FileFunction,Legend,Bot*%
%TF.FilePolarity,Positive*%
%FSLAX46Y46*%
G04 Gerber Fmt 4.6, Leading zero omitted, Abs format (unit mm)*
G04 Created by KiCad (PCBNEW 9.0.3) date 2025-08-31 00:01:55*
%MOMM*%
%LPD*%
G01*
G04 APERTURE LIST*
G04 Aperture macros list*
%AMRoundRect*
0 Rectangle with rounded corners*
0 $1 Rounding radius*
0 $2 $3 $4 $5 $6 $7 $8 $9 X,Y pos of 4 corners*
0 Add a 4 corners polygon primitive as box body*
4,1,4,$2,$3,$4,$5,$6,$7,$8,$9,$2,$3,0*
0 Add four circle primitives for the rounded corners*
1,1,$1+$1,$2,$3*
1,1,$1+$1,$4,$5*
1,1,$1+$1,$6,$7*
1,1,$1+$1,$8,$9*
0 Add four rect primitives between the rounded corners*
20,1,$1+$1,$2,$3,$4,$5,0*
20,1,$1+$1,$4,$5,$6,$7,0*
20,1,$1+$1,$6,$7,$8,$9,0*
20,1,$1+$1,$8,$9,$2,$3,0*%
G04 Aperture macros list end*
%ADD10C,0.153000*%
%ADD11C,0.100000*%
%ADD12C,0.000000*%
%ADD13C,0.120000*%
%ADD14O,3.000000X1.500000*%
%ADD15RoundRect,0.250000X1.000000X0.650000X-1.000000X0.650000X-1.000000X-0.650000X1.000000X-0.650000X0*%
%ADD16RoundRect,0.250000X-1.000000X-0.650000X1.000000X-0.650000X1.000000X0.650000X-1.000000X0.650000X0*%
%ADD17RoundRect,0.237500X0.250000X0.237500X-0.250000X0.237500X-0.250000X-0.237500X0.250000X-0.237500X0*%
%ADD18RoundRect,0.237500X-0.237500X0.300000X-0.237500X-0.300000X0.237500X-0.300000X0.237500X0.300000X0*%
%ADD19RoundRect,0.237500X-0.237500X0.250000X-0.237500X-0.250000X0.237500X-0.250000X0.237500X0.250000X0*%
%ADD20RoundRect,0.200000X0.750000X0.200000X-0.750000X0.200000X-0.750000X-0.200000X0.750000X-0.200000X0*%
%ADD21RoundRect,0.237500X-0.300000X-0.237500X0.300000X-0.237500X0.300000X0.237500X-0.300000X0.237500X0*%
%ADD22RoundRect,0.250000X-0.337500X-0.475000X0.337500X-0.475000X0.337500X0.475000X-0.337500X0.475000X0*%
%ADD23RoundRect,0.237500X0.237500X-0.300000X0.237500X0.300000X-0.237500X0.300000X-0.237500X-0.300000X0*%
%ADD24RoundRect,0.250000X0.475000X-0.337500X0.475000X0.337500X-0.475000X0.337500X-0.475000X-0.337500X0*%
%ADD25R,3.600000X2.700000*%
%ADD26RoundRect,0.237500X0.300000X0.237500X-0.300000X0.237500X-0.300000X-0.237500X0.300000X-0.237500X0*%
%ADD27RoundRect,0.237500X0.237500X-0.287500X0.237500X0.287500X-0.237500X0.287500X-0.237500X-0.287500X0*%
%ADD28RoundRect,0.212500X-0.212500X0.737500X-0.212500X-0.737500X0.212500X-0.737500X0.212500X0.737500X0*%
%ADD29RoundRect,0.212500X-0.737500X0.212500X-0.737500X-0.212500X0.737500X-0.212500X0.737500X0.212500X0*%
%ADD30R,4.800000X4.800000*%
%ADD31R,3.000000X2.000000*%
%ADD32R,1.300000X0.300000*%
G04 APERTURE END LIST*
D10*
X154161247Y-66269663D02*
X154161247Y-65269663D01*
X154161247Y-65269663D02*
X153923152Y-65269663D01*
X153923152Y-65269663D02*
X153780295Y-65317282D01*
X153780295Y-65317282D02*
X153685057Y-65412520D01*
X153685057Y-65412520D02*
X153637438Y-65507758D01*
X153637438Y-65507758D02*
X153589819Y-65698234D01*
X153589819Y-65698234D02*
X153589819Y-65841091D01*
X153589819Y-65841091D02*
X153637438Y-66031567D01*
X153637438Y-66031567D02*
X153685057Y-66126805D01*
X153685057Y-66126805D02*
X153780295Y-66222044D01*
X153780295Y-66222044D02*
X153923152Y-66269663D01*
X153923152Y-66269663D02*
X154161247Y-66269663D01*
X152780295Y-66222044D02*
X152875533Y-66269663D01*
X152875533Y-66269663D02*
X153066009Y-66269663D01*
X153066009Y-66269663D02*
X153161247Y-66222044D01*
X153161247Y-66222044D02*
X153208866Y-66126805D01*
X153208866Y-66126805D02*
X153208866Y-65745853D01*
X153208866Y-65745853D02*
X153161247Y-65650615D01*
X153161247Y-65650615D02*
X153066009Y-65602996D01*
X153066009Y-65602996D02*
X152875533Y-65602996D01*
X152875533Y-65602996D02*
X152780295Y-65650615D01*
X152780295Y-65650615D02*
X152732676Y-65745853D01*
X152732676Y-65745853D02*
X152732676Y-65841091D01*
X152732676Y-65841091D02*
X153208866Y-65936329D01*
X152351723Y-66222044D02*
X152256485Y-66269663D01*
X152256485Y-66269663D02*
X152066009Y-66269663D01*
X152066009Y-66269663D02*
X151970771Y-66222044D01*
X151970771Y-66222044D02*
X151923152Y-66126805D01*
X151923152Y-66126805D02*
X151923152Y-66079186D01*
X151923152Y-66079186D02*
X151970771Y-65983948D01*
X151970771Y-65983948D02*
X152066009Y-65936329D01*
X152066009Y-65936329D02*
X152208866Y-65936329D01*
X152208866Y-65936329D02*
X152304104Y-65888710D01*
X152304104Y-65888710D02*
X152351723Y-65793472D01*
X152351723Y-65793472D02*
X152351723Y-65745853D01*
X152351723Y-65745853D02*
X152304104Y-65650615D01*
X152304104Y-65650615D02*
X152208866Y-65602996D01*
X152208866Y-65602996D02*
X152066009Y-65602996D01*
X152066009Y-65602996D02*
X151970771Y-65650615D01*
X151494580Y-66269663D02*
X151494580Y-65602996D01*
X151494580Y-65269663D02*
X151542199Y-65317282D01*
X151542199Y-65317282D02*
X151494580Y-65364901D01*
X151494580Y-65364901D02*
X151446961Y-65317282D01*
X151446961Y-65317282D02*
X151494580Y-65269663D01*
X151494580Y-65269663D02*
X151494580Y-65364901D01*
X150589819Y-65602996D02*
X150589819Y-66412520D01*
X150589819Y-66412520D02*
X150637438Y-66507758D01*
X150637438Y-66507758D02*
X150685057Y-66555377D01*
X150685057Y-66555377D02*
X150780295Y-66602996D01*
X150780295Y-66602996D02*
X150923152Y-66602996D01*
X150923152Y-66602996D02*
X151018390Y-66555377D01*
X150589819Y-66222044D02*
X150685057Y-66269663D01*
X150685057Y-66269663D02*
X150875533Y-66269663D01*
X150875533Y-66269663D02*
X150970771Y-66222044D01*
X150970771Y-66222044D02*
X151018390Y-66174424D01*
X151018390Y-66174424D02*
X151066009Y-66079186D01*
X151066009Y-66079186D02*
X151066009Y-65793472D01*
X151066009Y-65793472D02*
X151018390Y-65698234D01*
X151018390Y-65698234D02*
X150970771Y-65650615D01*
X150970771Y-65650615D02*
X150875533Y-65602996D01*
X150875533Y-65602996D02*
X150685057Y-65602996D01*
X150685057Y-65602996D02*
X150589819Y-65650615D01*
X150113628Y-65602996D02*
X150113628Y-66269663D01*
X150113628Y-65698234D02*
X150066009Y-65650615D01*
X150066009Y-65650615D02*
X149970771Y-65602996D01*
X149970771Y-65602996D02*
X149827914Y-65602996D01*
X149827914Y-65602996D02*
X149732676Y-65650615D01*
X149732676Y-65650615D02*
X149685057Y-65745853D01*
X149685057Y-65745853D02*
X149685057Y-66269663D01*
X148827914Y-66222044D02*
X148923152Y-66269663D01*
X148923152Y-66269663D02*
X149113628Y-66269663D01*
X149113628Y-66269663D02*
X149208866Y-66222044D01*
X149208866Y-66222044D02*
X149256485Y-66126805D01*
X149256485Y-66126805D02*
X149256485Y-65745853D01*
X149256485Y-65745853D02*
X149208866Y-65650615D01*
X149208866Y-65650615D02*
X149113628Y-65602996D01*
X149113628Y-65602996D02*
X148923152Y-65602996D01*
X148923152Y-65602996D02*
X148827914Y-65650615D01*
X148827914Y-65650615D02*
X148780295Y-65745853D01*
X148780295Y-65745853D02*
X148780295Y-65841091D01*
X148780295Y-65841091D02*
X149256485Y-65936329D01*
X147923152Y-66269663D02*
X147923152Y-65269663D01*
X147923152Y-66222044D02*
X148018390Y-66269663D01*
X148018390Y-66269663D02*
X148208866Y-66269663D01*
X148208866Y-66269663D02*
X148304104Y-66222044D01*
X148304104Y-66222044D02*
X148351723Y-66174424D01*
X148351723Y-66174424D02*
X148399342Y-66079186D01*
X148399342Y-66079186D02*
X148399342Y-65793472D01*
X148399342Y-65793472D02*
X148351723Y-65698234D01*
X148351723Y-65698234D02*
X148304104Y-65650615D01*
X148304104Y-65650615D02*
X148208866Y-65602996D01*
X148208866Y-65602996D02*
X148018390Y-65602996D01*
X148018390Y-65602996D02*
X147923152Y-65650615D01*
X146685056Y-66269663D02*
X146685056Y-65269663D01*
X146685056Y-65650615D02*
X146589818Y-65602996D01*
X146589818Y-65602996D02*
X146399342Y-65602996D01*
X146399342Y-65602996D02*
X146304104Y-65650615D01*
X146304104Y-65650615D02*
X146256485Y-65698234D01*
X146256485Y-65698234D02*
X146208866Y-65793472D01*
X146208866Y-65793472D02*
X146208866Y-66079186D01*
X146208866Y-66079186D02*
X146256485Y-66174424D01*
X146256485Y-66174424D02*
X146304104Y-66222044D01*
X146304104Y-66222044D02*
X146399342Y-66269663D01*
X146399342Y-66269663D02*
X146589818Y-66269663D01*
X146589818Y-66269663D02*
X146685056Y-66222044D01*
X145875532Y-65602996D02*
X145637437Y-66269663D01*
X145399342Y-65602996D02*
X145637437Y-66269663D01*
X145637437Y-66269663D02*
X145732675Y-66507758D01*
X145732675Y-66507758D02*
X145780294Y-66555377D01*
X145780294Y-66555377D02*
X145875532Y-66602996D01*
X144113627Y-66269663D02*
X144208865Y-66222044D01*
X144208865Y-66222044D02*
X144256484Y-66174424D01*
X144256484Y-66174424D02*
X144304103Y-66079186D01*
X144304103Y-66079186D02*
X144304103Y-65793472D01*
X144304103Y-65793472D02*
X144256484Y-65698234D01*
X144256484Y-65698234D02*
X144208865Y-65650615D01*
X144208865Y-65650615D02*
X144113627Y-65602996D01*
X144113627Y-65602996D02*
X143970770Y-65602996D01*
X143970770Y-65602996D02*
X143875532Y-65650615D01*
X143875532Y-65650615D02*
X143827913Y-65698234D01*
X143827913Y-65698234D02*
X143780294Y-65793472D01*
X143780294Y-65793472D02*
X143780294Y-66079186D01*
X143780294Y-66079186D02*
X143827913Y-66174424D01*
X143827913Y-66174424D02*
X143875532Y-66222044D01*
X143875532Y-66222044D02*
X143970770Y-66269663D01*
X143970770Y-66269663D02*
X144113627Y-66269663D01*
X143351722Y-66269663D02*
X143351722Y-65269663D01*
X143351722Y-65650615D02*
X143256484Y-65602996D01*
X143256484Y-65602996D02*
X143066008Y-65602996D01*
X143066008Y-65602996D02*
X142970770Y-65650615D01*
X142970770Y-65650615D02*
X142923151Y-65698234D01*
X142923151Y-65698234D02*
X142875532Y-65793472D01*
X142875532Y-65793472D02*
X142875532Y-66079186D01*
X142875532Y-66079186D02*
X142923151Y-66174424D01*
X142923151Y-66174424D02*
X142970770Y-66222044D01*
X142970770Y-66222044D02*
X143066008Y-66269663D01*
X143066008Y-66269663D02*
X143256484Y-66269663D01*
X143256484Y-66269663D02*
X143351722Y-66222044D01*
X142446960Y-65602996D02*
X142446960Y-66460139D01*
X142446960Y-66460139D02*
X142494579Y-66555377D01*
X142494579Y-66555377D02*
X142589817Y-66602996D01*
X142589817Y-66602996D02*
X142637436Y-66602996D01*
X142446960Y-65269663D02*
X142494579Y-65317282D01*
X142494579Y-65317282D02*
X142446960Y-65364901D01*
X142446960Y-65364901D02*
X142399341Y-65317282D01*
X142399341Y-65317282D02*
X142446960Y-65269663D01*
X142446960Y-65269663D02*
X142446960Y-65364901D01*
X141589818Y-66222044D02*
X141685056Y-66269663D01*
X141685056Y-66269663D02*
X141875532Y-66269663D01*
X141875532Y-66269663D02*
X141970770Y-66222044D01*
X141970770Y-66222044D02*
X142018389Y-66126805D01*
X142018389Y-66126805D02*
X142018389Y-65745853D01*
X142018389Y-65745853D02*
X141970770Y-65650615D01*
X141970770Y-65650615D02*
X141875532Y-65602996D01*
X141875532Y-65602996D02*
X141685056Y-65602996D01*
X141685056Y-65602996D02*
X141589818Y-65650615D01*
X141589818Y-65650615D02*
X141542199Y-65745853D01*
X141542199Y-65745853D02*
X141542199Y-65841091D01*
X141542199Y-65841091D02*
X142018389Y-65936329D01*
X140685056Y-66222044D02*
X140780294Y-66269663D01*
X140780294Y-66269663D02*
X140970770Y-66269663D01*
X140970770Y-66269663D02*
X141066008Y-66222044D01*
X141066008Y-66222044D02*
X141113627Y-66174424D01*
X141113627Y-66174424D02*
X141161246Y-66079186D01*
X141161246Y-66079186D02*
X141161246Y-65793472D01*
X141161246Y-65793472D02*
X141113627Y-65698234D01*
X141113627Y-65698234D02*
X141066008Y-65650615D01*
X141066008Y-65650615D02*
X140970770Y-65602996D01*
X140970770Y-65602996D02*
X140780294Y-65602996D01*
X140780294Y-65602996D02*
X140685056Y-65650615D01*
X140399341Y-65602996D02*
X140018389Y-65602996D01*
X140256484Y-65269663D02*
X140256484Y-66126805D01*
X140256484Y-66126805D02*
X140208865Y-66222044D01*
X140208865Y-66222044D02*
X140113627Y-66269663D01*
X140113627Y-66269663D02*
X140018389Y-66269663D01*
X139161246Y-66269663D02*
X139732674Y-66269663D01*
X139446960Y-66269663D02*
X139446960Y-65269663D01*
X139446960Y-65269663D02*
X139542198Y-65412520D01*
X139542198Y-65412520D02*
X139637436Y-65507758D01*
X139637436Y-65507758D02*
X139732674Y-65555377D01*
X138542198Y-65269663D02*
X138446960Y-65269663D01*
X138446960Y-65269663D02*
X138351722Y-65317282D01*
X138351722Y-65317282D02*
X138304103Y-65364901D01*
X138304103Y-65364901D02*
X138256484Y-65460139D01*
X138256484Y-65460139D02*
X138208865Y-65650615D01*
X138208865Y-65650615D02*
X138208865Y-65888710D01*
X138208865Y-65888710D02*
X138256484Y-66079186D01*
X138256484Y-66079186D02*
X138304103Y-66174424D01*
X138304103Y-66174424D02*
X138351722Y-66222044D01*
X138351722Y-66222044D02*
X138446960Y-66269663D01*
X138446960Y-66269663D02*
X138542198Y-66269663D01*
X138542198Y-66269663D02*
X138637436Y-66222044D01*
X138637436Y-66222044D02*
X138685055Y-66174424D01*
X138685055Y-66174424D02*
X138732674Y-66079186D01*
X138732674Y-66079186D02*
X138780293Y-65888710D01*
X138780293Y-65888710D02*
X138780293Y-65650615D01*
X138780293Y-65650615D02*
X138732674Y-65460139D01*
X138732674Y-65460139D02*
X138685055Y-65364901D01*
X138685055Y-65364901D02*
X138637436Y-65317282D01*
X138637436Y-65317282D02*
X138542198Y-65269663D01*
X137875531Y-65269663D02*
X137256484Y-65269663D01*
X137256484Y-65269663D02*
X137589817Y-65650615D01*
X137589817Y-65650615D02*
X137446960Y-65650615D01*
X137446960Y-65650615D02*
X137351722Y-65698234D01*
X137351722Y-65698234D02*
X137304103Y-65745853D01*
X137304103Y-65745853D02*
X137256484Y-65841091D01*
X137256484Y-65841091D02*
X137256484Y-66079186D01*
X137256484Y-66079186D02*
X137304103Y-66174424D01*
X137304103Y-66174424D02*
X137351722Y-66222044D01*
X137351722Y-66222044D02*
X137446960Y-66269663D01*
X137446960Y-66269663D02*
X137732674Y-66269663D01*
X137732674Y-66269663D02*
X137827912Y-66222044D01*
X137827912Y-66222044D02*
X137875531Y-66174424D01*
X136923150Y-65269663D02*
X136256484Y-65269663D01*
X136256484Y-65269663D02*
X136685055Y-66269663D01*
D11*
G36*
X162396441Y-66310000D02*
G01*
X161763729Y-66310000D01*
X161662564Y-66306128D01*
X161564908Y-66294656D01*
X161471260Y-66275878D01*
X161381450Y-66249981D01*
X161295688Y-66217193D01*
X161214113Y-66177719D01*
X161063790Y-66079221D01*
X160931649Y-65955509D01*
X160819245Y-65807428D01*
X160728533Y-65635842D01*
X160661811Y-65441832D01*
X160621566Y-65226842D01*
X160611630Y-65051905D01*
X160862107Y-65051905D01*
X160865970Y-65166613D01*
X160877381Y-65275167D01*
X160895682Y-65375698D01*
X160920756Y-65470032D01*
X160951728Y-65556531D01*
X160988747Y-65636810D01*
X161030843Y-65709618D01*
X161078330Y-65776172D01*
X161130344Y-65835699D01*
X161187179Y-65888892D01*
X161248308Y-65935431D01*
X161313774Y-65975479D01*
X161457317Y-66035808D01*
X161617443Y-66068885D01*
X161727215Y-66074916D01*
X162108112Y-66074916D01*
X161783269Y-64560000D01*
X161408112Y-64560000D01*
X161309256Y-64563924D01*
X161220931Y-64575766D01*
X161150782Y-64593111D01*
X161088683Y-64616921D01*
X161038572Y-64644564D01*
X160994996Y-64677782D01*
X160959169Y-64714998D01*
X160929143Y-64757462D01*
X160885611Y-64859857D01*
X160863927Y-64993089D01*
X160862107Y-65051905D01*
X160611630Y-65051905D01*
X160610048Y-65024061D01*
X160613961Y-64928583D01*
X160625714Y-64839743D01*
X160643805Y-64762814D01*
X160668786Y-64691836D01*
X160698840Y-64630124D01*
X160735120Y-64573890D01*
X160776258Y-64524657D01*
X160823282Y-64480693D01*
X160934655Y-64409000D01*
X161073047Y-64358036D01*
X161244013Y-64329543D01*
X161360484Y-64324794D01*
X161976465Y-64324794D01*
X162396441Y-66310000D01*
G37*
G36*
X159728505Y-64797614D02*
G01*
X159818753Y-64809105D01*
X159895911Y-64826721D01*
X159965848Y-64850753D01*
X160026979Y-64879929D01*
X160082116Y-64914795D01*
X160176082Y-65001208D01*
X160253433Y-65114070D01*
X160317934Y-65263419D01*
X160071493Y-65282958D01*
X160046545Y-65218910D01*
X160016116Y-65164535D01*
X159984484Y-65124472D01*
X159947858Y-65091249D01*
X159862109Y-65045570D01*
X159748097Y-65021503D01*
X159668370Y-65017833D01*
X159594206Y-65021762D01*
X159534039Y-65033636D01*
X159494074Y-65049559D01*
X159462347Y-65071081D01*
X159423548Y-65125351D01*
X159406260Y-65204234D01*
X159405198Y-65235453D01*
X159421929Y-65391769D01*
X159959508Y-65492274D01*
X160060503Y-65514701D01*
X160149257Y-65542614D01*
X160221016Y-65573271D01*
X160283091Y-65608434D01*
X160333192Y-65645696D01*
X160375346Y-65686804D01*
X160409180Y-65730605D01*
X160436061Y-65777919D01*
X160470706Y-65885315D01*
X160480355Y-65994560D01*
X160476508Y-66051729D01*
X160465210Y-66104048D01*
X160447348Y-66150345D01*
X160423074Y-66191843D01*
X160356453Y-66260244D01*
X160264880Y-66309529D01*
X160146613Y-66337095D01*
X160071493Y-66341263D01*
X159929471Y-66326290D01*
X159796488Y-66282289D01*
X159735382Y-66250058D01*
X159679617Y-66211976D01*
X159629777Y-66168598D01*
X159586493Y-66120516D01*
X159567620Y-66095066D01*
X159570307Y-66145380D01*
X159570307Y-66149898D01*
X159566405Y-66192881D01*
X159554723Y-66228923D01*
X159537780Y-66255465D01*
X159514710Y-66276981D01*
X159448533Y-66306312D01*
X159337909Y-66317815D01*
X159242777Y-66312320D01*
X159200767Y-66105080D01*
X159259508Y-66105080D01*
X159293612Y-66100858D01*
X159314647Y-66086937D01*
X159323988Y-66051835D01*
X159310273Y-65963774D01*
X159272290Y-65790866D01*
X159230345Y-65595467D01*
X159461130Y-65595467D01*
X159482150Y-65691356D01*
X159494713Y-65748974D01*
X159511889Y-65810361D01*
X159535956Y-65867358D01*
X159566171Y-65918902D01*
X159602639Y-65965624D01*
X159644888Y-66007015D01*
X159692901Y-66043084D01*
X159806076Y-66098387D01*
X159942161Y-66129040D01*
X160032414Y-66134145D01*
X160090733Y-66130254D01*
X160138777Y-66118652D01*
X160172311Y-66102513D01*
X160198766Y-66080771D01*
X160230377Y-66024626D01*
X160239532Y-65955481D01*
X160235527Y-65899886D01*
X160223123Y-65851524D01*
X160205479Y-65815593D01*
X160180946Y-65784180D01*
X160111419Y-65734376D01*
X159999537Y-65695118D01*
X159937159Y-65682051D01*
X159461130Y-65595467D01*
X159230345Y-65595467D01*
X159204364Y-65474438D01*
X159179685Y-65328155D01*
X159169993Y-65213227D01*
X159173954Y-65137435D01*
X159186053Y-65068639D01*
X159203838Y-65013673D01*
X159228492Y-64964495D01*
X159257597Y-64924292D01*
X159292943Y-64889265D01*
X159380774Y-64836141D01*
X159498308Y-64803403D01*
X159629169Y-64793740D01*
X159728505Y-64797614D01*
G37*
G36*
X158409787Y-66341263D02*
G01*
X158324544Y-66337381D01*
X158242516Y-66325838D01*
X158166261Y-66307270D01*
X158094918Y-66281656D01*
X158032390Y-66250858D01*
X157975917Y-66213933D01*
X157929196Y-66173891D01*
X157889120Y-66128685D01*
X157858105Y-66081621D01*
X157834050Y-66030180D01*
X157818032Y-65976911D01*
X157809347Y-65919784D01*
X157807850Y-65882941D01*
X157811977Y-65816585D01*
X157825234Y-65756365D01*
X157843733Y-65711582D01*
X157869902Y-65670567D01*
X157942333Y-65603182D01*
X158053350Y-65545978D01*
X158223204Y-65496617D01*
X158303419Y-65481039D01*
X158414078Y-65457451D01*
X158497927Y-65428730D01*
X158540774Y-65405085D01*
X158572867Y-65377305D01*
X158592255Y-65349803D01*
X158604732Y-65318331D01*
X158611409Y-65263419D01*
X158607422Y-65216069D01*
X158595145Y-65171611D01*
X158576509Y-65134681D01*
X158550354Y-65101580D01*
X158518505Y-65074511D01*
X158479372Y-65052043D01*
X158432926Y-65034834D01*
X158378692Y-65023327D01*
X158297801Y-65017833D01*
X158230463Y-65021774D01*
X158171040Y-65033728D01*
X158125368Y-65051023D01*
X158085912Y-65074804D01*
X158054852Y-65102839D01*
X158029232Y-65136701D01*
X157994408Y-65222538D01*
X157984193Y-65285767D01*
X157737875Y-65268914D01*
X157748742Y-65196657D01*
X157766866Y-65129343D01*
X157791074Y-65069402D01*
X157821759Y-65014606D01*
X157857673Y-64966520D01*
X157899461Y-64923799D01*
X157946364Y-64887123D01*
X157998757Y-64856156D01*
X158120214Y-64812140D01*
X158265451Y-64794007D01*
X158286688Y-64793740D01*
X158374203Y-64797541D01*
X158453330Y-64808520D01*
X158523833Y-64825874D01*
X158586670Y-64849040D01*
X158642491Y-64877606D01*
X158691136Y-64910796D01*
X158769960Y-64990972D01*
X158824443Y-65087844D01*
X158853569Y-65198981D01*
X158857850Y-65263419D01*
X158853971Y-65327025D01*
X158842452Y-65384637D01*
X158824672Y-65433893D01*
X158800355Y-65478272D01*
X158733057Y-65553063D01*
X158635982Y-65614081D01*
X158498916Y-65662908D01*
X158381821Y-65687547D01*
X158250133Y-65714054D01*
X158158483Y-65742914D01*
X158115802Y-65764928D01*
X158086148Y-65789830D01*
X158059507Y-65841587D01*
X158054291Y-65894054D01*
X158058096Y-65934261D01*
X158069098Y-65970186D01*
X158110645Y-66030008D01*
X158179854Y-66076532D01*
X158281024Y-66107691D01*
X158393056Y-66117292D01*
X158467442Y-66113322D01*
X158533802Y-66101164D01*
X158584766Y-66083677D01*
X158629417Y-66059493D01*
X158664621Y-66031304D01*
X158694349Y-65997124D01*
X158736380Y-65912013D01*
X158754291Y-65824323D01*
X159000610Y-65841053D01*
X158990168Y-65911676D01*
X158972472Y-65978019D01*
X158948265Y-66038692D01*
X158917500Y-66094672D01*
X158880910Y-66145050D01*
X158838345Y-66190310D01*
X158790212Y-66230034D01*
X158736556Y-66264145D01*
X158612696Y-66314675D01*
X158466856Y-66339355D01*
X158409787Y-66341263D01*
G37*
G36*
X157554937Y-66310000D02*
G01*
X157319731Y-66310000D01*
X157132152Y-65426207D01*
X157112517Y-65353615D01*
X157086702Y-65287289D01*
X157055255Y-65227484D01*
X157018641Y-65174276D01*
X156977456Y-65127938D01*
X156932116Y-65088514D01*
X156883250Y-65056254D01*
X156831232Y-65031214D01*
X156776681Y-65013600D01*
X156719966Y-65003514D01*
X156672976Y-65000980D01*
X156616110Y-65004836D01*
X156566823Y-65016199D01*
X156528177Y-65033030D01*
X156496011Y-65055720D01*
X156452587Y-65114673D01*
X156433062Y-65194712D01*
X156432152Y-65219211D01*
X156445123Y-65361448D01*
X156457431Y-65423398D01*
X156647819Y-66310000D01*
X156412613Y-66310000D01*
X156230530Y-65454173D01*
X156204655Y-65320556D01*
X156191329Y-65174392D01*
X156195248Y-65109678D01*
X156207051Y-65049289D01*
X156225249Y-64997334D01*
X156250434Y-64950161D01*
X156280666Y-64910461D01*
X156317217Y-64875864D01*
X156358812Y-64847537D01*
X156406456Y-64824786D01*
X156520489Y-64797466D01*
X156588956Y-64793740D01*
X156657007Y-64797648D01*
X156722883Y-64809371D01*
X156784784Y-64828368D01*
X156843935Y-64854821D01*
X156899249Y-64888211D01*
X156951244Y-64928853D01*
X156999509Y-64976646D01*
X157043832Y-65031662D01*
X157053750Y-65045799D01*
X156899755Y-64324794D01*
X157134961Y-64324794D01*
X157554937Y-66310000D01*
G37*
D10*
X97638094Y-93504663D02*
X97638094Y-92504663D01*
X97638094Y-92504663D02*
X97399999Y-92504663D01*
X97399999Y-92504663D02*
X97257142Y-92552282D01*
X97257142Y-92552282D02*
X97161904Y-92647520D01*
X97161904Y-92647520D02*
X97114285Y-92742758D01*
X97114285Y-92742758D02*
X97066666Y-92933234D01*
X97066666Y-92933234D02*
X97066666Y-93076091D01*
X97066666Y-93076091D02*
X97114285Y-93266567D01*
X97114285Y-93266567D02*
X97161904Y-93361805D01*
X97161904Y-93361805D02*
X97257142Y-93457044D01*
X97257142Y-93457044D02*
X97399999Y-93504663D01*
X97399999Y-93504663D02*
X97638094Y-93504663D01*
X96114285Y-93504663D02*
X96685713Y-93504663D01*
X96399999Y-93504663D02*
X96399999Y-92504663D01*
X96399999Y-92504663D02*
X96495237Y-92647520D01*
X96495237Y-92647520D02*
X96590475Y-92742758D01*
X96590475Y-92742758D02*
X96685713Y-92790377D01*
X106888094Y-87404663D02*
X106888094Y-86404663D01*
X106888094Y-86404663D02*
X106649999Y-86404663D01*
X106649999Y-86404663D02*
X106507142Y-86452282D01*
X106507142Y-86452282D02*
X106411904Y-86547520D01*
X106411904Y-86547520D02*
X106364285Y-86642758D01*
X106364285Y-86642758D02*
X106316666Y-86833234D01*
X106316666Y-86833234D02*
X106316666Y-86976091D01*
X106316666Y-86976091D02*
X106364285Y-87166567D01*
X106364285Y-87166567D02*
X106411904Y-87261805D01*
X106411904Y-87261805D02*
X106507142Y-87357044D01*
X106507142Y-87357044D02*
X106649999Y-87404663D01*
X106649999Y-87404663D02*
X106888094Y-87404663D01*
X105983332Y-86404663D02*
X105364285Y-86404663D01*
X105364285Y-86404663D02*
X105697618Y-86785615D01*
X105697618Y-86785615D02*
X105554761Y-86785615D01*
X105554761Y-86785615D02*
X105459523Y-86833234D01*
X105459523Y-86833234D02*
X105411904Y-86880853D01*
X105411904Y-86880853D02*
X105364285Y-86976091D01*
X105364285Y-86976091D02*
X105364285Y-87214186D01*
X105364285Y-87214186D02*
X105411904Y-87309424D01*
X105411904Y-87309424D02*
X105459523Y-87357044D01*
X105459523Y-87357044D02*
X105554761Y-87404663D01*
X105554761Y-87404663D02*
X105840475Y-87404663D01*
X105840475Y-87404663D02*
X105935713Y-87357044D01*
X105935713Y-87357044D02*
X105983332Y-87309424D01*
X102366666Y-84254663D02*
X102699999Y-83778472D01*
X102938094Y-84254663D02*
X102938094Y-83254663D01*
X102938094Y-83254663D02*
X102557142Y-83254663D01*
X102557142Y-83254663D02*
X102461904Y-83302282D01*
X102461904Y-83302282D02*
X102414285Y-83349901D01*
X102414285Y-83349901D02*
X102366666Y-83445139D01*
X102366666Y-83445139D02*
X102366666Y-83587996D01*
X102366666Y-83587996D02*
X102414285Y-83683234D01*
X102414285Y-83683234D02*
X102461904Y-83730853D01*
X102461904Y-83730853D02*
X102557142Y-83778472D01*
X102557142Y-83778472D02*
X102938094Y-83778472D01*
X101985713Y-83349901D02*
X101938094Y-83302282D01*
X101938094Y-83302282D02*
X101842856Y-83254663D01*
X101842856Y-83254663D02*
X101604761Y-83254663D01*
X101604761Y-83254663D02*
X101509523Y-83302282D01*
X101509523Y-83302282D02*
X101461904Y-83349901D01*
X101461904Y-83349901D02*
X101414285Y-83445139D01*
X101414285Y-83445139D02*
X101414285Y-83540377D01*
X101414285Y-83540377D02*
X101461904Y-83683234D01*
X101461904Y-83683234D02*
X102033332Y-84254663D01*
X102033332Y-84254663D02*
X101414285Y-84254663D01*
X172666666Y-95754663D02*
X172999999Y-95278472D01*
X173238094Y-95754663D02*
X173238094Y-94754663D01*
X173238094Y-94754663D02*
X172857142Y-94754663D01*
X172857142Y-94754663D02*
X172761904Y-94802282D01*
X172761904Y-94802282D02*
X172714285Y-94849901D01*
X172714285Y-94849901D02*
X172666666Y-94945139D01*
X172666666Y-94945139D02*
X172666666Y-95087996D01*
X172666666Y-95087996D02*
X172714285Y-95183234D01*
X172714285Y-95183234D02*
X172761904Y-95230853D01*
X172761904Y-95230853D02*
X172857142Y-95278472D01*
X172857142Y-95278472D02*
X173238094Y-95278472D01*
X171809523Y-95087996D02*
X171809523Y-95754663D01*
X172047618Y-94707044D02*
X172285713Y-95421329D01*
X172285713Y-95421329D02*
X171666666Y-95421329D01*
X93709424Y-91283333D02*
X93757044Y-91235714D01*
X93757044Y-91235714D02*
X93804663Y-91092857D01*
X93804663Y-91092857D02*
X93804663Y-90997619D01*
X93804663Y-90997619D02*
X93757044Y-90854762D01*
X93757044Y-90854762D02*
X93661805Y-90759524D01*
X93661805Y-90759524D02*
X93566567Y-90711905D01*
X93566567Y-90711905D02*
X93376091Y-90664286D01*
X93376091Y-90664286D02*
X93233234Y-90664286D01*
X93233234Y-90664286D02*
X93042758Y-90711905D01*
X93042758Y-90711905D02*
X92947520Y-90759524D01*
X92947520Y-90759524D02*
X92852282Y-90854762D01*
X92852282Y-90854762D02*
X92804663Y-90997619D01*
X92804663Y-90997619D02*
X92804663Y-91092857D01*
X92804663Y-91092857D02*
X92852282Y-91235714D01*
X92852282Y-91235714D02*
X92899901Y-91283333D01*
X93233234Y-91854762D02*
X93185615Y-91759524D01*
X93185615Y-91759524D02*
X93137996Y-91711905D01*
X93137996Y-91711905D02*
X93042758Y-91664286D01*
X93042758Y-91664286D02*
X92995139Y-91664286D01*
X92995139Y-91664286D02*
X92899901Y-91711905D01*
X92899901Y-91711905D02*
X92852282Y-91759524D01*
X92852282Y-91759524D02*
X92804663Y-91854762D01*
X92804663Y-91854762D02*
X92804663Y-92045238D01*
X92804663Y-92045238D02*
X92852282Y-92140476D01*
X92852282Y-92140476D02*
X92899901Y-92188095D01*
X92899901Y-92188095D02*
X92995139Y-92235714D01*
X92995139Y-92235714D02*
X93042758Y-92235714D01*
X93042758Y-92235714D02*
X93137996Y-92188095D01*
X93137996Y-92188095D02*
X93185615Y-92140476D01*
X93185615Y-92140476D02*
X93233234Y-92045238D01*
X93233234Y-92045238D02*
X93233234Y-91854762D01*
X93233234Y-91854762D02*
X93280853Y-91759524D01*
X93280853Y-91759524D02*
X93328472Y-91711905D01*
X93328472Y-91711905D02*
X93423710Y-91664286D01*
X93423710Y-91664286D02*
X93614186Y-91664286D01*
X93614186Y-91664286D02*
X93709424Y-91711905D01*
X93709424Y-91711905D02*
X93757044Y-91759524D01*
X93757044Y-91759524D02*
X93804663Y-91854762D01*
X93804663Y-91854762D02*
X93804663Y-92045238D01*
X93804663Y-92045238D02*
X93757044Y-92140476D01*
X93757044Y-92140476D02*
X93709424Y-92188095D01*
X93709424Y-92188095D02*
X93614186Y-92235714D01*
X93614186Y-92235714D02*
X93423710Y-92235714D01*
X93423710Y-92235714D02*
X93328472Y-92188095D01*
X93328472Y-92188095D02*
X93280853Y-92140476D01*
X93280853Y-92140476D02*
X93233234Y-92045238D01*
X172666666Y-93204663D02*
X172999999Y-92728472D01*
X173238094Y-93204663D02*
X173238094Y-92204663D01*
X173238094Y-92204663D02*
X172857142Y-92204663D01*
X172857142Y-92204663D02*
X172761904Y-92252282D01*
X172761904Y-92252282D02*
X172714285Y-92299901D01*
X172714285Y-92299901D02*
X172666666Y-92395139D01*
X172666666Y-92395139D02*
X172666666Y-92537996D01*
X172666666Y-92537996D02*
X172714285Y-92633234D01*
X172714285Y-92633234D02*
X172761904Y-92680853D01*
X172761904Y-92680853D02*
X172857142Y-92728472D01*
X172857142Y-92728472D02*
X173238094Y-92728472D01*
X172333332Y-92204663D02*
X171714285Y-92204663D01*
X171714285Y-92204663D02*
X172047618Y-92585615D01*
X172047618Y-92585615D02*
X171904761Y-92585615D01*
X171904761Y-92585615D02*
X171809523Y-92633234D01*
X171809523Y-92633234D02*
X171761904Y-92680853D01*
X171761904Y-92680853D02*
X171714285Y-92776091D01*
X171714285Y-92776091D02*
X171714285Y-93014186D01*
X171714285Y-93014186D02*
X171761904Y-93109424D01*
X171761904Y-93109424D02*
X171809523Y-93157044D01*
X171809523Y-93157044D02*
X171904761Y-93204663D01*
X171904761Y-93204663D02*
X172190475Y-93204663D01*
X172190475Y-93204663D02*
X172285713Y-93157044D01*
X172285713Y-93157044D02*
X172333332Y-93109424D01*
X99304663Y-80383333D02*
X98828472Y-80050000D01*
X99304663Y-79811905D02*
X98304663Y-79811905D01*
X98304663Y-79811905D02*
X98304663Y-80192857D01*
X98304663Y-80192857D02*
X98352282Y-80288095D01*
X98352282Y-80288095D02*
X98399901Y-80335714D01*
X98399901Y-80335714D02*
X98495139Y-80383333D01*
X98495139Y-80383333D02*
X98637996Y-80383333D01*
X98637996Y-80383333D02*
X98733234Y-80335714D01*
X98733234Y-80335714D02*
X98780853Y-80288095D01*
X98780853Y-80288095D02*
X98828472Y-80192857D01*
X98828472Y-80192857D02*
X98828472Y-79811905D01*
X99304663Y-81335714D02*
X99304663Y-80764286D01*
X99304663Y-81050000D02*
X98304663Y-81050000D01*
X98304663Y-81050000D02*
X98447520Y-80954762D01*
X98447520Y-80954762D02*
X98542758Y-80859524D01*
X98542758Y-80859524D02*
X98590377Y-80764286D01*
X104622925Y-79896996D02*
X104718163Y-79849377D01*
X104718163Y-79849377D02*
X104813401Y-79754139D01*
X104813401Y-79754139D02*
X104956258Y-79611281D01*
X104956258Y-79611281D02*
X105051496Y-79563662D01*
X105051496Y-79563662D02*
X105146734Y-79563662D01*
X105099115Y-79801758D02*
X105194353Y-79754139D01*
X105194353Y-79754139D02*
X105289591Y-79658900D01*
X105289591Y-79658900D02*
X105337210Y-79468424D01*
X105337210Y-79468424D02*
X105337210Y-79135091D01*
X105337210Y-79135091D02*
X105289591Y-78944615D01*
X105289591Y-78944615D02*
X105194353Y-78849377D01*
X105194353Y-78849377D02*
X105099115Y-78801758D01*
X105099115Y-78801758D02*
X104908639Y-78801758D01*
X104908639Y-78801758D02*
X104813401Y-78849377D01*
X104813401Y-78849377D02*
X104718163Y-78944615D01*
X104718163Y-78944615D02*
X104670544Y-79135091D01*
X104670544Y-79135091D02*
X104670544Y-79468424D01*
X104670544Y-79468424D02*
X104718163Y-79658900D01*
X104718163Y-79658900D02*
X104813401Y-79754139D01*
X104813401Y-79754139D02*
X104908639Y-79801758D01*
X104908639Y-79801758D02*
X105099115Y-79801758D01*
X103718163Y-79801758D02*
X104289591Y-79801758D01*
X104003877Y-79801758D02*
X104003877Y-78801758D01*
X104003877Y-78801758D02*
X104099115Y-78944615D01*
X104099115Y-78944615D02*
X104194353Y-79039853D01*
X104194353Y-79039853D02*
X104289591Y-79087472D01*
X94866666Y-84009424D02*
X94914285Y-84057044D01*
X94914285Y-84057044D02*
X95057142Y-84104663D01*
X95057142Y-84104663D02*
X95152380Y-84104663D01*
X95152380Y-84104663D02*
X95295237Y-84057044D01*
X95295237Y-84057044D02*
X95390475Y-83961805D01*
X95390475Y-83961805D02*
X95438094Y-83866567D01*
X95438094Y-83866567D02*
X95485713Y-83676091D01*
X95485713Y-83676091D02*
X95485713Y-83533234D01*
X95485713Y-83533234D02*
X95438094Y-83342758D01*
X95438094Y-83342758D02*
X95390475Y-83247520D01*
X95390475Y-83247520D02*
X95295237Y-83152282D01*
X95295237Y-83152282D02*
X95152380Y-83104663D01*
X95152380Y-83104663D02*
X95057142Y-83104663D01*
X95057142Y-83104663D02*
X94914285Y-83152282D01*
X94914285Y-83152282D02*
X94866666Y-83199901D01*
X94533332Y-83104663D02*
X93914285Y-83104663D01*
X93914285Y-83104663D02*
X94247618Y-83485615D01*
X94247618Y-83485615D02*
X94104761Y-83485615D01*
X94104761Y-83485615D02*
X94009523Y-83533234D01*
X94009523Y-83533234D02*
X93961904Y-83580853D01*
X93961904Y-83580853D02*
X93914285Y-83676091D01*
X93914285Y-83676091D02*
X93914285Y-83914186D01*
X93914285Y-83914186D02*
X93961904Y-84009424D01*
X93961904Y-84009424D02*
X94009523Y-84057044D01*
X94009523Y-84057044D02*
X94104761Y-84104663D01*
X94104761Y-84104663D02*
X94390475Y-84104663D01*
X94390475Y-84104663D02*
X94485713Y-84057044D01*
X94485713Y-84057044D02*
X94533332Y-84009424D01*
X125292857Y-87659424D02*
X125340476Y-87707044D01*
X125340476Y-87707044D02*
X125483333Y-87754663D01*
X125483333Y-87754663D02*
X125578571Y-87754663D01*
X125578571Y-87754663D02*
X125721428Y-87707044D01*
X125721428Y-87707044D02*
X125816666Y-87611805D01*
X125816666Y-87611805D02*
X125864285Y-87516567D01*
X125864285Y-87516567D02*
X125911904Y-87326091D01*
X125911904Y-87326091D02*
X125911904Y-87183234D01*
X125911904Y-87183234D02*
X125864285Y-86992758D01*
X125864285Y-86992758D02*
X125816666Y-86897520D01*
X125816666Y-86897520D02*
X125721428Y-86802282D01*
X125721428Y-86802282D02*
X125578571Y-86754663D01*
X125578571Y-86754663D02*
X125483333Y-86754663D01*
X125483333Y-86754663D02*
X125340476Y-86802282D01*
X125340476Y-86802282D02*
X125292857Y-86849901D01*
X124340476Y-87754663D02*
X124911904Y-87754663D01*
X124626190Y-87754663D02*
X124626190Y-86754663D01*
X124626190Y-86754663D02*
X124721428Y-86897520D01*
X124721428Y-86897520D02*
X124816666Y-86992758D01*
X124816666Y-86992758D02*
X124911904Y-87040377D01*
X123721428Y-86754663D02*
X123626190Y-86754663D01*
X123626190Y-86754663D02*
X123530952Y-86802282D01*
X123530952Y-86802282D02*
X123483333Y-86849901D01*
X123483333Y-86849901D02*
X123435714Y-86945139D01*
X123435714Y-86945139D02*
X123388095Y-87135615D01*
X123388095Y-87135615D02*
X123388095Y-87373710D01*
X123388095Y-87373710D02*
X123435714Y-87564186D01*
X123435714Y-87564186D02*
X123483333Y-87659424D01*
X123483333Y-87659424D02*
X123530952Y-87707044D01*
X123530952Y-87707044D02*
X123626190Y-87754663D01*
X123626190Y-87754663D02*
X123721428Y-87754663D01*
X123721428Y-87754663D02*
X123816666Y-87707044D01*
X123816666Y-87707044D02*
X123864285Y-87659424D01*
X123864285Y-87659424D02*
X123911904Y-87564186D01*
X123911904Y-87564186D02*
X123959523Y-87373710D01*
X123959523Y-87373710D02*
X123959523Y-87135615D01*
X123959523Y-87135615D02*
X123911904Y-86945139D01*
X123911904Y-86945139D02*
X123864285Y-86849901D01*
X123864285Y-86849901D02*
X123816666Y-86802282D01*
X123816666Y-86802282D02*
X123721428Y-86754663D01*
X90609424Y-91645833D02*
X90657044Y-91598214D01*
X90657044Y-91598214D02*
X90704663Y-91455357D01*
X90704663Y-91455357D02*
X90704663Y-91360119D01*
X90704663Y-91360119D02*
X90657044Y-91217262D01*
X90657044Y-91217262D02*
X90561805Y-91122024D01*
X90561805Y-91122024D02*
X90466567Y-91074405D01*
X90466567Y-91074405D02*
X90276091Y-91026786D01*
X90276091Y-91026786D02*
X90133234Y-91026786D01*
X90133234Y-91026786D02*
X89942758Y-91074405D01*
X89942758Y-91074405D02*
X89847520Y-91122024D01*
X89847520Y-91122024D02*
X89752282Y-91217262D01*
X89752282Y-91217262D02*
X89704663Y-91360119D01*
X89704663Y-91360119D02*
X89704663Y-91455357D01*
X89704663Y-91455357D02*
X89752282Y-91598214D01*
X89752282Y-91598214D02*
X89799901Y-91645833D01*
X89704663Y-91979167D02*
X89704663Y-92645833D01*
X89704663Y-92645833D02*
X90704663Y-92217262D01*
X95259424Y-91283333D02*
X95307044Y-91235714D01*
X95307044Y-91235714D02*
X95354663Y-91092857D01*
X95354663Y-91092857D02*
X95354663Y-90997619D01*
X95354663Y-90997619D02*
X95307044Y-90854762D01*
X95307044Y-90854762D02*
X95211805Y-90759524D01*
X95211805Y-90759524D02*
X95116567Y-90711905D01*
X95116567Y-90711905D02*
X94926091Y-90664286D01*
X94926091Y-90664286D02*
X94783234Y-90664286D01*
X94783234Y-90664286D02*
X94592758Y-90711905D01*
X94592758Y-90711905D02*
X94497520Y-90759524D01*
X94497520Y-90759524D02*
X94402282Y-90854762D01*
X94402282Y-90854762D02*
X94354663Y-90997619D01*
X94354663Y-90997619D02*
X94354663Y-91092857D01*
X94354663Y-91092857D02*
X94402282Y-91235714D01*
X94402282Y-91235714D02*
X94449901Y-91283333D01*
X94354663Y-92140476D02*
X94354663Y-91950000D01*
X94354663Y-91950000D02*
X94402282Y-91854762D01*
X94402282Y-91854762D02*
X94449901Y-91807143D01*
X94449901Y-91807143D02*
X94592758Y-91711905D01*
X94592758Y-91711905D02*
X94783234Y-91664286D01*
X94783234Y-91664286D02*
X95164186Y-91664286D01*
X95164186Y-91664286D02*
X95259424Y-91711905D01*
X95259424Y-91711905D02*
X95307044Y-91759524D01*
X95307044Y-91759524D02*
X95354663Y-91854762D01*
X95354663Y-91854762D02*
X95354663Y-92045238D01*
X95354663Y-92045238D02*
X95307044Y-92140476D01*
X95307044Y-92140476D02*
X95259424Y-92188095D01*
X95259424Y-92188095D02*
X95164186Y-92235714D01*
X95164186Y-92235714D02*
X94926091Y-92235714D01*
X94926091Y-92235714D02*
X94830853Y-92188095D01*
X94830853Y-92188095D02*
X94783234Y-92140476D01*
X94783234Y-92140476D02*
X94735615Y-92045238D01*
X94735615Y-92045238D02*
X94735615Y-91854762D01*
X94735615Y-91854762D02*
X94783234Y-91759524D01*
X94783234Y-91759524D02*
X94830853Y-91711905D01*
X94830853Y-91711905D02*
X94926091Y-91664286D01*
X94916666Y-85559424D02*
X94964285Y-85607044D01*
X94964285Y-85607044D02*
X95107142Y-85654663D01*
X95107142Y-85654663D02*
X95202380Y-85654663D01*
X95202380Y-85654663D02*
X95345237Y-85607044D01*
X95345237Y-85607044D02*
X95440475Y-85511805D01*
X95440475Y-85511805D02*
X95488094Y-85416567D01*
X95488094Y-85416567D02*
X95535713Y-85226091D01*
X95535713Y-85226091D02*
X95535713Y-85083234D01*
X95535713Y-85083234D02*
X95488094Y-84892758D01*
X95488094Y-84892758D02*
X95440475Y-84797520D01*
X95440475Y-84797520D02*
X95345237Y-84702282D01*
X95345237Y-84702282D02*
X95202380Y-84654663D01*
X95202380Y-84654663D02*
X95107142Y-84654663D01*
X95107142Y-84654663D02*
X94964285Y-84702282D01*
X94964285Y-84702282D02*
X94916666Y-84749901D01*
X94059523Y-84987996D02*
X94059523Y-85654663D01*
X94297618Y-84607044D02*
X94535713Y-85321329D01*
X94535713Y-85321329D02*
X93916666Y-85321329D01*
X125292857Y-82309424D02*
X125340476Y-82357044D01*
X125340476Y-82357044D02*
X125483333Y-82404663D01*
X125483333Y-82404663D02*
X125578571Y-82404663D01*
X125578571Y-82404663D02*
X125721428Y-82357044D01*
X125721428Y-82357044D02*
X125816666Y-82261805D01*
X125816666Y-82261805D02*
X125864285Y-82166567D01*
X125864285Y-82166567D02*
X125911904Y-81976091D01*
X125911904Y-81976091D02*
X125911904Y-81833234D01*
X125911904Y-81833234D02*
X125864285Y-81642758D01*
X125864285Y-81642758D02*
X125816666Y-81547520D01*
X125816666Y-81547520D02*
X125721428Y-81452282D01*
X125721428Y-81452282D02*
X125578571Y-81404663D01*
X125578571Y-81404663D02*
X125483333Y-81404663D01*
X125483333Y-81404663D02*
X125340476Y-81452282D01*
X125340476Y-81452282D02*
X125292857Y-81499901D01*
X124340476Y-82404663D02*
X124911904Y-82404663D01*
X124626190Y-82404663D02*
X124626190Y-81404663D01*
X124626190Y-81404663D02*
X124721428Y-81547520D01*
X124721428Y-81547520D02*
X124816666Y-81642758D01*
X124816666Y-81642758D02*
X124911904Y-81690377D01*
X123483333Y-81737996D02*
X123483333Y-82404663D01*
X123721428Y-81357044D02*
X123959523Y-82071329D01*
X123959523Y-82071329D02*
X123340476Y-82071329D01*
X158642857Y-85309424D02*
X158690476Y-85357044D01*
X158690476Y-85357044D02*
X158833333Y-85404663D01*
X158833333Y-85404663D02*
X158928571Y-85404663D01*
X158928571Y-85404663D02*
X159071428Y-85357044D01*
X159071428Y-85357044D02*
X159166666Y-85261805D01*
X159166666Y-85261805D02*
X159214285Y-85166567D01*
X159214285Y-85166567D02*
X159261904Y-84976091D01*
X159261904Y-84976091D02*
X159261904Y-84833234D01*
X159261904Y-84833234D02*
X159214285Y-84642758D01*
X159214285Y-84642758D02*
X159166666Y-84547520D01*
X159166666Y-84547520D02*
X159071428Y-84452282D01*
X159071428Y-84452282D02*
X158928571Y-84404663D01*
X158928571Y-84404663D02*
X158833333Y-84404663D01*
X158833333Y-84404663D02*
X158690476Y-84452282D01*
X158690476Y-84452282D02*
X158642857Y-84499901D01*
X157690476Y-85404663D02*
X158261904Y-85404663D01*
X157976190Y-85404663D02*
X157976190Y-84404663D01*
X157976190Y-84404663D02*
X158071428Y-84547520D01*
X158071428Y-84547520D02*
X158166666Y-84642758D01*
X158166666Y-84642758D02*
X158261904Y-84690377D01*
X157309523Y-84499901D02*
X157261904Y-84452282D01*
X157261904Y-84452282D02*
X157166666Y-84404663D01*
X157166666Y-84404663D02*
X156928571Y-84404663D01*
X156928571Y-84404663D02*
X156833333Y-84452282D01*
X156833333Y-84452282D02*
X156785714Y-84499901D01*
X156785714Y-84499901D02*
X156738095Y-84595139D01*
X156738095Y-84595139D02*
X156738095Y-84690377D01*
X156738095Y-84690377D02*
X156785714Y-84833234D01*
X156785714Y-84833234D02*
X157357142Y-85404663D01*
X157357142Y-85404663D02*
X156738095Y-85404663D01*
X113416666Y-79754663D02*
X113892856Y-79754663D01*
X113892856Y-79754663D02*
X113892856Y-78754663D01*
X112559523Y-79754663D02*
X113130951Y-79754663D01*
X112845237Y-79754663D02*
X112845237Y-78754663D01*
X112845237Y-78754663D02*
X112940475Y-78897520D01*
X112940475Y-78897520D02*
X113035713Y-78992758D01*
X113035713Y-78992758D02*
X113130951Y-79040377D01*
X94866666Y-82459424D02*
X94914285Y-82507044D01*
X94914285Y-82507044D02*
X95057142Y-82554663D01*
X95057142Y-82554663D02*
X95152380Y-82554663D01*
X95152380Y-82554663D02*
X95295237Y-82507044D01*
X95295237Y-82507044D02*
X95390475Y-82411805D01*
X95390475Y-82411805D02*
X95438094Y-82316567D01*
X95438094Y-82316567D02*
X95485713Y-82126091D01*
X95485713Y-82126091D02*
X95485713Y-81983234D01*
X95485713Y-81983234D02*
X95438094Y-81792758D01*
X95438094Y-81792758D02*
X95390475Y-81697520D01*
X95390475Y-81697520D02*
X95295237Y-81602282D01*
X95295237Y-81602282D02*
X95152380Y-81554663D01*
X95152380Y-81554663D02*
X95057142Y-81554663D01*
X95057142Y-81554663D02*
X94914285Y-81602282D01*
X94914285Y-81602282D02*
X94866666Y-81649901D01*
X94485713Y-81649901D02*
X94438094Y-81602282D01*
X94438094Y-81602282D02*
X94342856Y-81554663D01*
X94342856Y-81554663D02*
X94104761Y-81554663D01*
X94104761Y-81554663D02*
X94009523Y-81602282D01*
X94009523Y-81602282D02*
X93961904Y-81649901D01*
X93961904Y-81649901D02*
X93914285Y-81745139D01*
X93914285Y-81745139D02*
X93914285Y-81840377D01*
X93914285Y-81840377D02*
X93961904Y-81983234D01*
X93961904Y-81983234D02*
X94533332Y-82554663D01*
X94533332Y-82554663D02*
X93914285Y-82554663D01*
X156692857Y-91059424D02*
X156740476Y-91107044D01*
X156740476Y-91107044D02*
X156883333Y-91154663D01*
X156883333Y-91154663D02*
X156978571Y-91154663D01*
X156978571Y-91154663D02*
X157121428Y-91107044D01*
X157121428Y-91107044D02*
X157216666Y-91011805D01*
X157216666Y-91011805D02*
X157264285Y-90916567D01*
X157264285Y-90916567D02*
X157311904Y-90726091D01*
X157311904Y-90726091D02*
X157311904Y-90583234D01*
X157311904Y-90583234D02*
X157264285Y-90392758D01*
X157264285Y-90392758D02*
X157216666Y-90297520D01*
X157216666Y-90297520D02*
X157121428Y-90202282D01*
X157121428Y-90202282D02*
X156978571Y-90154663D01*
X156978571Y-90154663D02*
X156883333Y-90154663D01*
X156883333Y-90154663D02*
X156740476Y-90202282D01*
X156740476Y-90202282D02*
X156692857Y-90249901D01*
X155740476Y-91154663D02*
X156311904Y-91154663D01*
X156026190Y-91154663D02*
X156026190Y-90154663D01*
X156026190Y-90154663D02*
X156121428Y-90297520D01*
X156121428Y-90297520D02*
X156216666Y-90392758D01*
X156216666Y-90392758D02*
X156311904Y-90440377D01*
X155407142Y-90154663D02*
X154788095Y-90154663D01*
X154788095Y-90154663D02*
X155121428Y-90535615D01*
X155121428Y-90535615D02*
X154978571Y-90535615D01*
X154978571Y-90535615D02*
X154883333Y-90583234D01*
X154883333Y-90583234D02*
X154835714Y-90630853D01*
X154835714Y-90630853D02*
X154788095Y-90726091D01*
X154788095Y-90726091D02*
X154788095Y-90964186D01*
X154788095Y-90964186D02*
X154835714Y-91059424D01*
X154835714Y-91059424D02*
X154883333Y-91107044D01*
X154883333Y-91107044D02*
X154978571Y-91154663D01*
X154978571Y-91154663D02*
X155264285Y-91154663D01*
X155264285Y-91154663D02*
X155359523Y-91107044D01*
X155359523Y-91107044D02*
X155407142Y-91059424D01*
X96116666Y-75779424D02*
X96164285Y-75827044D01*
X96164285Y-75827044D02*
X96307142Y-75874663D01*
X96307142Y-75874663D02*
X96402380Y-75874663D01*
X96402380Y-75874663D02*
X96545237Y-75827044D01*
X96545237Y-75827044D02*
X96640475Y-75731805D01*
X96640475Y-75731805D02*
X96688094Y-75636567D01*
X96688094Y-75636567D02*
X96735713Y-75446091D01*
X96735713Y-75446091D02*
X96735713Y-75303234D01*
X96735713Y-75303234D02*
X96688094Y-75112758D01*
X96688094Y-75112758D02*
X96640475Y-75017520D01*
X96640475Y-75017520D02*
X96545237Y-74922282D01*
X96545237Y-74922282D02*
X96402380Y-74874663D01*
X96402380Y-74874663D02*
X96307142Y-74874663D01*
X96307142Y-74874663D02*
X96164285Y-74922282D01*
X96164285Y-74922282D02*
X96116666Y-74969901D01*
X95164285Y-75874663D02*
X95735713Y-75874663D01*
X95449999Y-75874663D02*
X95449999Y-74874663D01*
X95449999Y-74874663D02*
X95545237Y-75017520D01*
X95545237Y-75017520D02*
X95640475Y-75112758D01*
X95640475Y-75112758D02*
X95735713Y-75160377D01*
X121884663Y-90083333D02*
X121884663Y-89607143D01*
X121884663Y-89607143D02*
X120884663Y-89607143D01*
X120979901Y-90369048D02*
X120932282Y-90416667D01*
X120932282Y-90416667D02*
X120884663Y-90511905D01*
X120884663Y-90511905D02*
X120884663Y-90750000D01*
X120884663Y-90750000D02*
X120932282Y-90845238D01*
X120932282Y-90845238D02*
X120979901Y-90892857D01*
X120979901Y-90892857D02*
X121075139Y-90940476D01*
X121075139Y-90940476D02*
X121170377Y-90940476D01*
X121170377Y-90940476D02*
X121313234Y-90892857D01*
X121313234Y-90892857D02*
X121884663Y-90321429D01*
X121884663Y-90321429D02*
X121884663Y-90940476D01*
X96809424Y-91283333D02*
X96857044Y-91235714D01*
X96857044Y-91235714D02*
X96904663Y-91092857D01*
X96904663Y-91092857D02*
X96904663Y-90997619D01*
X96904663Y-90997619D02*
X96857044Y-90854762D01*
X96857044Y-90854762D02*
X96761805Y-90759524D01*
X96761805Y-90759524D02*
X96666567Y-90711905D01*
X96666567Y-90711905D02*
X96476091Y-90664286D01*
X96476091Y-90664286D02*
X96333234Y-90664286D01*
X96333234Y-90664286D02*
X96142758Y-90711905D01*
X96142758Y-90711905D02*
X96047520Y-90759524D01*
X96047520Y-90759524D02*
X95952282Y-90854762D01*
X95952282Y-90854762D02*
X95904663Y-90997619D01*
X95904663Y-90997619D02*
X95904663Y-91092857D01*
X95904663Y-91092857D02*
X95952282Y-91235714D01*
X95952282Y-91235714D02*
X95999901Y-91283333D01*
X95904663Y-92188095D02*
X95904663Y-91711905D01*
X95904663Y-91711905D02*
X96380853Y-91664286D01*
X96380853Y-91664286D02*
X96333234Y-91711905D01*
X96333234Y-91711905D02*
X96285615Y-91807143D01*
X96285615Y-91807143D02*
X96285615Y-92045238D01*
X96285615Y-92045238D02*
X96333234Y-92140476D01*
X96333234Y-92140476D02*
X96380853Y-92188095D01*
X96380853Y-92188095D02*
X96476091Y-92235714D01*
X96476091Y-92235714D02*
X96714186Y-92235714D01*
X96714186Y-92235714D02*
X96809424Y-92188095D01*
X96809424Y-92188095D02*
X96857044Y-92140476D01*
X96857044Y-92140476D02*
X96904663Y-92045238D01*
X96904663Y-92045238D02*
X96904663Y-91807143D01*
X96904663Y-91807143D02*
X96857044Y-91711905D01*
X96857044Y-91711905D02*
X96809424Y-91664286D01*
X97638094Y-97254663D02*
X97638094Y-96254663D01*
X97638094Y-96254663D02*
X97399999Y-96254663D01*
X97399999Y-96254663D02*
X97257142Y-96302282D01*
X97257142Y-96302282D02*
X97161904Y-96397520D01*
X97161904Y-96397520D02*
X97114285Y-96492758D01*
X97114285Y-96492758D02*
X97066666Y-96683234D01*
X97066666Y-96683234D02*
X97066666Y-96826091D01*
X97066666Y-96826091D02*
X97114285Y-97016567D01*
X97114285Y-97016567D02*
X97161904Y-97111805D01*
X97161904Y-97111805D02*
X97257142Y-97207044D01*
X97257142Y-97207044D02*
X97399999Y-97254663D01*
X97399999Y-97254663D02*
X97638094Y-97254663D01*
X96685713Y-96349901D02*
X96638094Y-96302282D01*
X96638094Y-96302282D02*
X96542856Y-96254663D01*
X96542856Y-96254663D02*
X96304761Y-96254663D01*
X96304761Y-96254663D02*
X96209523Y-96302282D01*
X96209523Y-96302282D02*
X96161904Y-96349901D01*
X96161904Y-96349901D02*
X96114285Y-96445139D01*
X96114285Y-96445139D02*
X96114285Y-96540377D01*
X96114285Y-96540377D02*
X96161904Y-96683234D01*
X96161904Y-96683234D02*
X96733332Y-97254663D01*
X96733332Y-97254663D02*
X96114285Y-97254663D01*
X142054663Y-89488095D02*
X142864186Y-89488095D01*
X142864186Y-89488095D02*
X142959424Y-89535714D01*
X142959424Y-89535714D02*
X143007044Y-89583333D01*
X143007044Y-89583333D02*
X143054663Y-89678571D01*
X143054663Y-89678571D02*
X143054663Y-89869047D01*
X143054663Y-89869047D02*
X143007044Y-89964285D01*
X143007044Y-89964285D02*
X142959424Y-90011904D01*
X142959424Y-90011904D02*
X142864186Y-90059523D01*
X142864186Y-90059523D02*
X142054663Y-90059523D01*
X142149901Y-90488095D02*
X142102282Y-90535714D01*
X142102282Y-90535714D02*
X142054663Y-90630952D01*
X142054663Y-90630952D02*
X142054663Y-90869047D01*
X142054663Y-90869047D02*
X142102282Y-90964285D01*
X142102282Y-90964285D02*
X142149901Y-91011904D01*
X142149901Y-91011904D02*
X142245139Y-91059523D01*
X142245139Y-91059523D02*
X142340377Y-91059523D01*
X142340377Y-91059523D02*
X142483234Y-91011904D01*
X142483234Y-91011904D02*
X143054663Y-90440476D01*
X143054663Y-90440476D02*
X143054663Y-91059523D01*
X125292857Y-84659424D02*
X125340476Y-84707044D01*
X125340476Y-84707044D02*
X125483333Y-84754663D01*
X125483333Y-84754663D02*
X125578571Y-84754663D01*
X125578571Y-84754663D02*
X125721428Y-84707044D01*
X125721428Y-84707044D02*
X125816666Y-84611805D01*
X125816666Y-84611805D02*
X125864285Y-84516567D01*
X125864285Y-84516567D02*
X125911904Y-84326091D01*
X125911904Y-84326091D02*
X125911904Y-84183234D01*
X125911904Y-84183234D02*
X125864285Y-83992758D01*
X125864285Y-83992758D02*
X125816666Y-83897520D01*
X125816666Y-83897520D02*
X125721428Y-83802282D01*
X125721428Y-83802282D02*
X125578571Y-83754663D01*
X125578571Y-83754663D02*
X125483333Y-83754663D01*
X125483333Y-83754663D02*
X125340476Y-83802282D01*
X125340476Y-83802282D02*
X125292857Y-83849901D01*
X124340476Y-84754663D02*
X124911904Y-84754663D01*
X124626190Y-84754663D02*
X124626190Y-83754663D01*
X124626190Y-83754663D02*
X124721428Y-83897520D01*
X124721428Y-83897520D02*
X124816666Y-83992758D01*
X124816666Y-83992758D02*
X124911904Y-84040377D01*
X123388095Y-84754663D02*
X123959523Y-84754663D01*
X123673809Y-84754663D02*
X123673809Y-83754663D01*
X123673809Y-83754663D02*
X123769047Y-83897520D01*
X123769047Y-83897520D02*
X123864285Y-83992758D01*
X123864285Y-83992758D02*
X123959523Y-84040377D01*
X106759424Y-92833333D02*
X106807044Y-92785714D01*
X106807044Y-92785714D02*
X106854663Y-92642857D01*
X106854663Y-92642857D02*
X106854663Y-92547619D01*
X106854663Y-92547619D02*
X106807044Y-92404762D01*
X106807044Y-92404762D02*
X106711805Y-92309524D01*
X106711805Y-92309524D02*
X106616567Y-92261905D01*
X106616567Y-92261905D02*
X106426091Y-92214286D01*
X106426091Y-92214286D02*
X106283234Y-92214286D01*
X106283234Y-92214286D02*
X106092758Y-92261905D01*
X106092758Y-92261905D02*
X105997520Y-92309524D01*
X105997520Y-92309524D02*
X105902282Y-92404762D01*
X105902282Y-92404762D02*
X105854663Y-92547619D01*
X105854663Y-92547619D02*
X105854663Y-92642857D01*
X105854663Y-92642857D02*
X105902282Y-92785714D01*
X105902282Y-92785714D02*
X105949901Y-92833333D01*
X106854663Y-93309524D02*
X106854663Y-93500000D01*
X106854663Y-93500000D02*
X106807044Y-93595238D01*
X106807044Y-93595238D02*
X106759424Y-93642857D01*
X106759424Y-93642857D02*
X106616567Y-93738095D01*
X106616567Y-93738095D02*
X106426091Y-93785714D01*
X106426091Y-93785714D02*
X106045139Y-93785714D01*
X106045139Y-93785714D02*
X105949901Y-93738095D01*
X105949901Y-93738095D02*
X105902282Y-93690476D01*
X105902282Y-93690476D02*
X105854663Y-93595238D01*
X105854663Y-93595238D02*
X105854663Y-93404762D01*
X105854663Y-93404762D02*
X105902282Y-93309524D01*
X105902282Y-93309524D02*
X105949901Y-93261905D01*
X105949901Y-93261905D02*
X106045139Y-93214286D01*
X106045139Y-93214286D02*
X106283234Y-93214286D01*
X106283234Y-93214286D02*
X106378472Y-93261905D01*
X106378472Y-93261905D02*
X106426091Y-93309524D01*
X106426091Y-93309524D02*
X106473710Y-93404762D01*
X106473710Y-93404762D02*
X106473710Y-93595238D01*
X106473710Y-93595238D02*
X106426091Y-93690476D01*
X106426091Y-93690476D02*
X106378472Y-93738095D01*
X106378472Y-93738095D02*
X106283234Y-93785714D01*
X89404663Y-80266666D02*
X90118948Y-80266666D01*
X90118948Y-80266666D02*
X90261805Y-80219047D01*
X90261805Y-80219047D02*
X90357044Y-80123809D01*
X90357044Y-80123809D02*
X90404663Y-79980952D01*
X90404663Y-79980952D02*
X90404663Y-79885714D01*
X90404663Y-81266666D02*
X90404663Y-80695238D01*
X90404663Y-80980952D02*
X89404663Y-80980952D01*
X89404663Y-80980952D02*
X89547520Y-80885714D01*
X89547520Y-80885714D02*
X89642758Y-80790476D01*
X89642758Y-80790476D02*
X89690377Y-80695238D01*
D12*
%TO.C,G\u002A\u002A\u002A*%
G36*
X97645154Y-67782409D02*
G01*
X97655547Y-67845724D01*
X97667938Y-67923321D01*
X97677148Y-67985016D01*
X97683369Y-68033060D01*
X97686795Y-68069704D01*
X97687617Y-68097200D01*
X97686030Y-68117797D01*
X97682225Y-68133748D01*
X97676395Y-68147302D01*
X97666168Y-68164587D01*
X97632158Y-68199928D01*
X97591260Y-68218011D01*
X97546216Y-68218601D01*
X97499768Y-68201461D01*
X97454660Y-68166357D01*
X97443424Y-68155568D01*
X97435448Y-68153719D01*
X97429409Y-68166357D01*
X97426340Y-68177275D01*
X97420683Y-68205632D01*
X97415493Y-68240000D01*
X97410184Y-68278395D01*
X97400520Y-68341696D01*
X97388414Y-68416321D01*
X97374673Y-68497600D01*
X97360102Y-68580866D01*
X97345509Y-68661449D01*
X97331699Y-68734681D01*
X97319479Y-68795892D01*
X97315971Y-68812623D01*
X97291266Y-68923653D01*
X97264298Y-69034495D01*
X97235696Y-69143209D01*
X97206093Y-69247856D01*
X97176121Y-69346495D01*
X97146410Y-69437188D01*
X97117594Y-69517994D01*
X97090303Y-69586973D01*
X97065169Y-69642186D01*
X97042823Y-69681694D01*
X97023899Y-69703556D01*
X97021353Y-69705355D01*
X96979618Y-69723552D01*
X96933502Y-69727219D01*
X96891186Y-69715612D01*
X96864671Y-69697260D01*
X96840480Y-69665895D01*
X96822594Y-69621107D01*
X96809343Y-69559720D01*
X96796611Y-69481320D01*
X96719023Y-69598160D01*
X96644306Y-69705568D01*
X96494543Y-69895295D01*
X96330543Y-70073018D01*
X96153995Y-70237101D01*
X95966585Y-70385908D01*
X95770000Y-70517805D01*
X95769430Y-70518154D01*
X95702674Y-70557086D01*
X95645287Y-70585445D01*
X95591314Y-70605441D01*
X95534800Y-70619282D01*
X95469791Y-70629177D01*
X95458818Y-70630456D01*
X95394474Y-70634750D01*
X95345244Y-70630688D01*
X95308025Y-70617232D01*
X95279716Y-70593342D01*
X95257215Y-70557980D01*
X95250210Y-70542875D01*
X95246027Y-70528311D01*
X95245149Y-70510753D01*
X95247760Y-70486052D01*
X95254040Y-70450059D01*
X95264169Y-70398625D01*
X95270568Y-70365939D01*
X95281364Y-70308398D01*
X95292954Y-70244339D01*
X95304784Y-70177037D01*
X95316306Y-70109765D01*
X95326967Y-70045796D01*
X95336218Y-69988405D01*
X95343508Y-69940864D01*
X95348286Y-69906446D01*
X95350000Y-69888426D01*
X95349551Y-69881417D01*
X95342508Y-69872413D01*
X95322500Y-69873757D01*
X95321683Y-69873913D01*
X95297256Y-69877395D01*
X95260841Y-69881367D01*
X95220000Y-69885000D01*
X95217343Y-69885210D01*
X95177093Y-69888723D01*
X95142216Y-69892311D01*
X95120000Y-69895227D01*
X95102448Y-69897362D01*
X95068541Y-69900708D01*
X95021919Y-69904933D01*
X94966200Y-69909710D01*
X94905000Y-69914710D01*
X94828203Y-69920777D01*
X94696651Y-69930812D01*
X94577017Y-69939327D01*
X94466109Y-69946442D01*
X94360735Y-69952280D01*
X94257705Y-69956959D01*
X94153826Y-69960602D01*
X94045907Y-69963328D01*
X93930756Y-69965259D01*
X93805183Y-69966515D01*
X93665995Y-69967218D01*
X93510000Y-69967487D01*
X93495387Y-69967494D01*
X93365407Y-69967438D01*
X93251746Y-69967103D01*
X93151071Y-69966414D01*
X93060050Y-69965295D01*
X92975349Y-69963672D01*
X92893635Y-69961469D01*
X92811577Y-69958610D01*
X92725840Y-69955020D01*
X92633092Y-69950625D01*
X92530000Y-69945348D01*
X92506228Y-69944057D01*
X92418573Y-69938711D01*
X92321584Y-69932041D01*
X92218925Y-69924358D01*
X92114258Y-69915971D01*
X92011245Y-69907188D01*
X91913549Y-69898320D01*
X91824832Y-69889675D01*
X91748758Y-69881564D01*
X91688987Y-69874296D01*
X91652973Y-69869477D01*
X91671856Y-69992238D01*
X91677487Y-70027769D01*
X91687749Y-70089757D01*
X91699863Y-70160678D01*
X91712760Y-70234295D01*
X91725370Y-70304366D01*
X91727952Y-70318489D01*
X91740197Y-70385875D01*
X91749103Y-70437015D01*
X91754880Y-70474815D01*
X91757737Y-70502180D01*
X91757882Y-70522016D01*
X91755525Y-70537228D01*
X91750874Y-70550721D01*
X91744139Y-70565403D01*
X91726160Y-70594028D01*
X91697242Y-70617571D01*
X91657608Y-70630717D01*
X91604735Y-70634236D01*
X91536093Y-70628901D01*
X91532130Y-70628411D01*
X91479271Y-70621017D01*
X91433448Y-70612160D01*
X91391337Y-70600383D01*
X91349609Y-70584229D01*
X91304938Y-70562244D01*
X91253998Y-70532969D01*
X91193461Y-70494948D01*
X91120000Y-70446724D01*
X91029896Y-70384079D01*
X90855449Y-70246384D01*
X90688288Y-70092569D01*
X90530679Y-69924959D01*
X90384891Y-69745881D01*
X90253192Y-69557663D01*
X90206306Y-69485000D01*
X90189710Y-69566879D01*
X90185373Y-69587230D01*
X90171158Y-69638735D01*
X90154310Y-69674957D01*
X90132785Y-69699467D01*
X90104544Y-69715835D01*
X90102149Y-69716825D01*
X90062863Y-69728297D01*
X90028431Y-69725783D01*
X89989869Y-69708724D01*
X89970517Y-69696858D01*
X89954436Y-69682764D01*
X89940870Y-69663244D01*
X89926771Y-69633816D01*
X89909089Y-69590000D01*
X89878029Y-69506751D01*
X89828722Y-69359879D01*
X89780749Y-69199363D01*
X89735191Y-69029106D01*
X89693131Y-68853017D01*
X89655650Y-68675000D01*
X89654563Y-68669348D01*
X89648639Y-68636658D01*
X89640787Y-68591266D01*
X89631532Y-68536415D01*
X89621399Y-68475347D01*
X89610913Y-68411304D01*
X89600600Y-68347529D01*
X89590985Y-68287264D01*
X89582592Y-68233751D01*
X89575947Y-68190234D01*
X89571575Y-68159953D01*
X89570000Y-68146152D01*
X89569804Y-68145190D01*
X89562878Y-68148564D01*
X89549118Y-68163851D01*
X89533259Y-68181052D01*
X89493318Y-68207004D01*
X89449289Y-68217774D01*
X89405239Y-68214066D01*
X89365235Y-68196584D01*
X89333344Y-68166030D01*
X89313633Y-68123110D01*
X89312305Y-68112874D01*
X89312960Y-68079468D01*
X89317511Y-68029929D01*
X89325546Y-67966462D01*
X89336655Y-67891273D01*
X89350427Y-67806568D01*
X89366452Y-67714554D01*
X89367898Y-67706695D01*
X89630000Y-67706695D01*
X89630170Y-67708037D01*
X89641668Y-67715715D01*
X89668583Y-67718213D01*
X89712393Y-67725640D01*
X89750465Y-67749057D01*
X89775941Y-67785707D01*
X89779244Y-67796268D01*
X89785985Y-67826971D01*
X89793798Y-67870804D01*
X89801961Y-67923593D01*
X89809752Y-67981163D01*
X89831398Y-68145376D01*
X89865201Y-68372976D01*
X89901411Y-68583845D01*
X89940364Y-68779884D01*
X89982391Y-68962992D01*
X89984487Y-68971494D01*
X89996749Y-69020528D01*
X90005558Y-69052857D01*
X90012013Y-69070875D01*
X90017210Y-69076975D01*
X90022245Y-69073549D01*
X90028215Y-69062992D01*
X90037821Y-69046151D01*
X90071699Y-69006530D01*
X90111628Y-68981905D01*
X90154269Y-68973181D01*
X90196283Y-68981263D01*
X90234332Y-69007059D01*
X90235293Y-69008058D01*
X90249914Y-69027846D01*
X90270369Y-69060903D01*
X90294080Y-69102868D01*
X90318467Y-69149377D01*
X90422657Y-69338901D01*
X90552872Y-69538226D01*
X90697407Y-69724476D01*
X90855568Y-69896838D01*
X91026664Y-70054499D01*
X91210000Y-70196645D01*
X91240814Y-70218095D01*
X91288459Y-70250021D01*
X91336015Y-70280651D01*
X91380205Y-70307975D01*
X91417755Y-70329981D01*
X91445389Y-70344660D01*
X91459830Y-70350000D01*
X91465731Y-70348821D01*
X91468923Y-70342552D01*
X91468342Y-70327576D01*
X91463804Y-70300287D01*
X91455128Y-70257078D01*
X91438319Y-70168833D01*
X91420034Y-70059159D01*
X91401581Y-69935728D01*
X91383341Y-69801736D01*
X91365697Y-69660379D01*
X91349030Y-69514854D01*
X91333721Y-69368358D01*
X91320151Y-69224085D01*
X91308702Y-69085234D01*
X91299755Y-68955000D01*
X91299158Y-68944829D01*
X91295509Y-68867967D01*
X91292324Y-68775690D01*
X91289647Y-68671932D01*
X91287519Y-68560626D01*
X91285985Y-68445704D01*
X91285088Y-68331099D01*
X91284965Y-68268600D01*
X91545633Y-68268600D01*
X91545662Y-68387185D01*
X91546457Y-68530103D01*
X91548200Y-68658086D01*
X91550981Y-68774020D01*
X91554893Y-68880791D01*
X91560026Y-68981288D01*
X91566472Y-69078395D01*
X91574322Y-69175000D01*
X91574404Y-69175925D01*
X91584562Y-69289471D01*
X91593330Y-69383919D01*
X91600797Y-69460109D01*
X91607052Y-69518881D01*
X91612184Y-69561075D01*
X91616283Y-69587532D01*
X91619439Y-69599091D01*
X91631643Y-69604064D01*
X91662999Y-69610140D01*
X91712570Y-69617140D01*
X91779466Y-69624977D01*
X91862800Y-69633565D01*
X91961687Y-69642817D01*
X92075237Y-69652647D01*
X92202564Y-69662966D01*
X92342781Y-69673690D01*
X92495000Y-69684730D01*
X92516516Y-69686160D01*
X92565163Y-69689053D01*
X92620755Y-69692052D01*
X92675000Y-69694699D01*
X92703128Y-69695996D01*
X92768990Y-69699098D01*
X92838292Y-69702431D01*
X92900000Y-69705467D01*
X92927563Y-69706569D01*
X92973107Y-69707885D01*
X93030815Y-69709214D01*
X93098213Y-69710525D01*
X93172827Y-69711790D01*
X93252183Y-69712980D01*
X93333808Y-69714067D01*
X93415228Y-69715022D01*
X93493968Y-69715816D01*
X93567555Y-69716420D01*
X93633514Y-69716806D01*
X93689373Y-69716944D01*
X93732656Y-69716807D01*
X93760891Y-69716366D01*
X93771603Y-69715591D01*
X93777659Y-69714855D01*
X93801246Y-69713529D01*
X93840028Y-69711912D01*
X93891250Y-69710107D01*
X93952159Y-69708215D01*
X94020000Y-69706340D01*
X94171678Y-69701378D01*
X94391770Y-69691112D01*
X94619984Y-69677255D01*
X94849735Y-69660261D01*
X95074436Y-69640586D01*
X95287500Y-69618685D01*
X95390000Y-69607257D01*
X95390744Y-69576128D01*
X95392173Y-69549769D01*
X95394984Y-69525000D01*
X95395271Y-69523174D01*
X95397645Y-69501810D01*
X95401053Y-69464452D01*
X95405241Y-69414476D01*
X95409953Y-69355260D01*
X95414936Y-69290179D01*
X95419933Y-69222612D01*
X95424690Y-69155933D01*
X95428953Y-69093520D01*
X95432466Y-69038750D01*
X95434975Y-68995000D01*
X95436380Y-68968069D01*
X95439624Y-68906901D01*
X95442918Y-68845912D01*
X95445728Y-68795000D01*
X95446143Y-68786272D01*
X95447260Y-68749895D01*
X95448331Y-68697195D01*
X95449324Y-68630860D01*
X95450206Y-68553580D01*
X95450945Y-68468044D01*
X95451508Y-68376941D01*
X95451865Y-68282961D01*
X95452946Y-67860922D01*
X95377892Y-67746494D01*
X95347202Y-67700969D01*
X95319795Y-67663916D01*
X95301024Y-67643649D01*
X95290498Y-67639692D01*
X95289041Y-67641400D01*
X95286272Y-67651306D01*
X95284179Y-67670825D01*
X95282741Y-67701440D01*
X95281938Y-67744635D01*
X95281750Y-67801891D01*
X95282158Y-67874692D01*
X95283141Y-67964520D01*
X95284568Y-68065000D01*
X95284680Y-68072858D01*
X95285478Y-68128016D01*
X95286769Y-68244132D01*
X95287223Y-68340703D01*
X95286838Y-68418036D01*
X95285611Y-68476440D01*
X95283541Y-68516221D01*
X95280623Y-68537688D01*
X95262320Y-68585437D01*
X95226096Y-68634287D01*
X95174986Y-68670000D01*
X95167448Y-68673740D01*
X95153603Y-68680042D01*
X95139255Y-68684986D01*
X95121965Y-68688759D01*
X95099298Y-68691549D01*
X95068816Y-68693543D01*
X95028082Y-68694929D01*
X94974659Y-68695894D01*
X94906111Y-68696625D01*
X94820000Y-68697311D01*
X94776823Y-68697634D01*
X94699311Y-68698122D01*
X94638192Y-68698228D01*
X94591019Y-68697803D01*
X94555345Y-68696702D01*
X94528724Y-68694776D01*
X94508708Y-68691879D01*
X94492852Y-68687863D01*
X94478708Y-68682582D01*
X94463830Y-68675887D01*
X94425346Y-68653133D01*
X94380638Y-68608112D01*
X94351382Y-68551007D01*
X94348213Y-68533652D01*
X94345237Y-68496314D01*
X94342934Y-68440038D01*
X94341299Y-68364563D01*
X94340324Y-68269623D01*
X94340000Y-68154958D01*
X94340000Y-67792900D01*
X94310526Y-67768482D01*
X94305106Y-67762611D01*
X94600000Y-67762611D01*
X94600000Y-68101305D01*
X94600000Y-68440000D01*
X94815000Y-68440000D01*
X95030000Y-68440000D01*
X95030000Y-68065000D01*
X95029954Y-67994824D01*
X95029689Y-67909186D01*
X95029134Y-67840605D01*
X95028225Y-67787344D01*
X95026897Y-67747665D01*
X95025085Y-67719829D01*
X95022725Y-67702098D01*
X95019754Y-67692734D01*
X95016105Y-67690000D01*
X95011582Y-67690197D01*
X95001055Y-67691367D01*
X94983892Y-67693914D01*
X94957921Y-67698213D01*
X94920968Y-67704635D01*
X94870862Y-67713554D01*
X94805431Y-67725342D01*
X94722500Y-67740372D01*
X94600000Y-67762611D01*
X94305106Y-67762611D01*
X94283293Y-67738983D01*
X94263810Y-67695349D01*
X94262339Y-67648739D01*
X94279596Y-67602985D01*
X94299745Y-67577676D01*
X94339794Y-67551560D01*
X94395000Y-67536418D01*
X94410129Y-67533929D01*
X94446233Y-67527757D01*
X94491644Y-67519823D01*
X94540000Y-67511230D01*
X94556192Y-67508337D01*
X94604481Y-67499767D01*
X94665985Y-67488907D01*
X94736225Y-67476545D01*
X94810723Y-67463470D01*
X94885000Y-67450470D01*
X94932636Y-67442111D01*
X94995897Y-67430888D01*
X95050922Y-67420986D01*
X95094845Y-67412927D01*
X95124796Y-67407232D01*
X95137908Y-67404425D01*
X95141464Y-67397000D01*
X95133890Y-67376748D01*
X95113690Y-67342657D01*
X95100123Y-67321395D01*
X95064071Y-67263716D01*
X95021354Y-67194156D01*
X94974126Y-67116324D01*
X94924541Y-67033828D01*
X94874752Y-66950274D01*
X94826914Y-66869270D01*
X94783181Y-66794425D01*
X94745706Y-66729345D01*
X94716643Y-66677639D01*
X94711567Y-66668467D01*
X94691911Y-66633319D01*
X94667830Y-66590622D01*
X94643416Y-66547639D01*
X94627955Y-66519731D01*
X94603914Y-66475006D01*
X94574234Y-66418880D01*
X94540691Y-66354730D01*
X94505058Y-66285934D01*
X94469110Y-66215871D01*
X94341941Y-65966742D01*
X94336191Y-66030871D01*
X94336162Y-66031192D01*
X94333536Y-66061796D01*
X94329725Y-66107876D01*
X94325086Y-66165034D01*
X94319976Y-66228875D01*
X94314753Y-66295000D01*
X94304222Y-66422868D01*
X94276186Y-66713555D01*
X94243888Y-66985582D01*
X94207242Y-67239589D01*
X94166157Y-67476216D01*
X94120546Y-67696102D01*
X94112847Y-67729664D01*
X94095972Y-67798499D01*
X94080633Y-67852094D01*
X94065578Y-67893625D01*
X94049557Y-67926268D01*
X94031317Y-67953198D01*
X94009607Y-67977591D01*
X93993648Y-67992100D01*
X93952396Y-68017178D01*
X93902253Y-68031697D01*
X93841055Y-68035893D01*
X93766641Y-68030008D01*
X93676847Y-68014277D01*
X93614340Y-68004998D01*
X93521569Y-68000978D01*
X93416873Y-68005585D01*
X93303654Y-68018780D01*
X93228618Y-68027667D01*
X93147749Y-68029594D01*
X93081330Y-68020687D01*
X93027782Y-68000523D01*
X92985522Y-67968679D01*
X92952973Y-67924729D01*
X92952249Y-67923418D01*
X92938182Y-67890064D01*
X92922080Y-67839002D01*
X92904333Y-67772255D01*
X92885334Y-67691851D01*
X92865475Y-67599813D01*
X92845148Y-67498169D01*
X92824745Y-67388944D01*
X92804658Y-67274164D01*
X92785278Y-67155853D01*
X92766999Y-67036038D01*
X92750212Y-66916745D01*
X92735309Y-66800000D01*
X92728694Y-66742792D01*
X92719424Y-66656363D01*
X92709933Y-66561781D01*
X92700646Y-66463715D01*
X92691990Y-66366835D01*
X92684393Y-66275809D01*
X92678280Y-66195307D01*
X92674079Y-66130000D01*
X92673954Y-66127752D01*
X92670774Y-66078500D01*
X92667225Y-66035616D01*
X92663732Y-66003639D01*
X92660719Y-65987104D01*
X92658745Y-65984393D01*
X92651005Y-65988439D01*
X92637731Y-66006874D01*
X92618063Y-66040997D01*
X92591141Y-66092104D01*
X92558635Y-66155183D01*
X92458932Y-66346094D01*
X92360514Y-66530767D01*
X92264499Y-66707185D01*
X92172005Y-66873334D01*
X92084150Y-67027196D01*
X92002051Y-67166757D01*
X91926827Y-67290000D01*
X91924650Y-67293497D01*
X91900567Y-67333573D01*
X91881914Y-67367132D01*
X91870503Y-67390750D01*
X91868144Y-67401000D01*
X91868174Y-67401025D01*
X91879979Y-67404602D01*
X91908264Y-67410875D01*
X91949829Y-67419201D01*
X92001474Y-67428940D01*
X92060000Y-67439450D01*
X92112548Y-67448703D01*
X92175964Y-67459956D01*
X92234036Y-67470350D01*
X92281977Y-67479027D01*
X92315000Y-67485130D01*
X92347682Y-67491161D01*
X92397628Y-67500118D01*
X92454088Y-67510050D01*
X92510000Y-67519704D01*
X92567352Y-67530054D01*
X92619810Y-67541519D01*
X92658161Y-67553245D01*
X92685551Y-67566471D01*
X92705126Y-67582433D01*
X92720032Y-67602370D01*
X92724613Y-67610608D01*
X92737456Y-67654888D01*
X92734610Y-67700556D01*
X92717204Y-67741895D01*
X92697255Y-67762136D01*
X92686365Y-67773186D01*
X92660000Y-67790461D01*
X92660000Y-68153738D01*
X92659745Y-68257052D01*
X92658846Y-68354259D01*
X92657291Y-68431987D01*
X92655074Y-68490508D01*
X92652186Y-68530091D01*
X92648619Y-68551007D01*
X92630414Y-68591190D01*
X92590394Y-68640299D01*
X92536171Y-68675948D01*
X92527309Y-68680025D01*
X92513310Y-68685846D01*
X92498639Y-68690360D01*
X92480881Y-68693710D01*
X92457619Y-68696039D01*
X92426438Y-68697490D01*
X92384922Y-68698206D01*
X92330654Y-68698329D01*
X92261219Y-68698003D01*
X92174201Y-68697371D01*
X91863402Y-68695000D01*
X91814201Y-68664590D01*
X91775451Y-68634581D01*
X91740000Y-68589590D01*
X91715000Y-68545000D01*
X91717908Y-68092500D01*
X91718041Y-68065000D01*
X91970000Y-68065000D01*
X91970000Y-68440000D01*
X92185000Y-68440000D01*
X92400000Y-68440000D01*
X92400000Y-68101068D01*
X92400000Y-67762136D01*
X92337500Y-67750854D01*
X92331182Y-67749714D01*
X92233741Y-67732230D01*
X92150625Y-67717515D01*
X92082902Y-67705751D01*
X92031639Y-67697122D01*
X91997900Y-67691811D01*
X91982753Y-67690000D01*
X91982321Y-67690048D01*
X91978992Y-67694782D01*
X91976281Y-67708371D01*
X91974137Y-67732406D01*
X91972503Y-67768479D01*
X91971327Y-67818184D01*
X91970554Y-67883110D01*
X91970130Y-67964852D01*
X91970000Y-68065000D01*
X91718041Y-68065000D01*
X91718272Y-68017362D01*
X91718377Y-67929065D01*
X91718115Y-67848947D01*
X91717511Y-67778979D01*
X91716590Y-67721130D01*
X91715377Y-67677371D01*
X91713898Y-67649671D01*
X91712176Y-67640000D01*
X91710474Y-67640913D01*
X91698864Y-67653668D01*
X91679231Y-67679113D01*
X91653826Y-67714255D01*
X91624900Y-67756100D01*
X91546265Y-67872200D01*
X91545633Y-68268600D01*
X91284965Y-68268600D01*
X91284871Y-68220744D01*
X91285378Y-68118572D01*
X91286652Y-68028517D01*
X91288735Y-67954510D01*
X91290661Y-67905217D01*
X91293475Y-67852501D01*
X91297943Y-67811858D01*
X91305620Y-67778741D01*
X91318061Y-67748605D01*
X91336820Y-67716904D01*
X91363452Y-67679092D01*
X91399513Y-67630622D01*
X91400157Y-67629757D01*
X91419152Y-67601968D01*
X91430574Y-67580746D01*
X91431974Y-67570622D01*
X91412481Y-67549745D01*
X91396050Y-67512032D01*
X91390000Y-67466774D01*
X91390006Y-67464326D01*
X91392503Y-67432061D01*
X91402431Y-67408703D01*
X91424000Y-67383999D01*
X91430129Y-67377993D01*
X91451013Y-67360982D01*
X91472935Y-67351695D01*
X91502172Y-67348319D01*
X91545000Y-67349041D01*
X91557698Y-67349380D01*
X91574884Y-67347280D01*
X91588673Y-67338683D01*
X91603655Y-67320054D01*
X91624417Y-67287858D01*
X91655475Y-67238000D01*
X91722958Y-67127772D01*
X91793728Y-67009959D01*
X91864925Y-66889417D01*
X91933693Y-66771005D01*
X91997175Y-66659580D01*
X92052514Y-66560000D01*
X92067428Y-66532679D01*
X92119733Y-66436148D01*
X92170535Y-66341145D01*
X92221531Y-66244409D01*
X92274416Y-66142684D01*
X92330888Y-66032713D01*
X92392644Y-65911237D01*
X92461380Y-65775000D01*
X92491910Y-65714517D01*
X92532804Y-65634166D01*
X92570865Y-65560134D01*
X92605079Y-65494351D01*
X92634432Y-65438749D01*
X92657913Y-65395257D01*
X92674506Y-65365808D01*
X92683199Y-65352331D01*
X92684855Y-65350592D01*
X92709940Y-65332264D01*
X92740399Y-65318699D01*
X92766799Y-65313222D01*
X92791094Y-65315939D01*
X92822788Y-65327990D01*
X92836568Y-65334272D01*
X92854079Y-65343923D01*
X92867973Y-65355698D01*
X92878791Y-65371830D01*
X92887076Y-65394552D01*
X92893369Y-65426096D01*
X92898212Y-65468696D01*
X92902147Y-65524584D01*
X92905716Y-65595994D01*
X92909461Y-65685158D01*
X92911735Y-65738659D01*
X92916012Y-65830591D01*
X92920814Y-65925409D01*
X92925836Y-66017396D01*
X92930773Y-66100832D01*
X92935319Y-66170000D01*
X92938209Y-66210841D01*
X92942562Y-66271638D01*
X92946371Y-66322953D01*
X92949972Y-66368456D01*
X92953701Y-66411817D01*
X92957891Y-66456709D01*
X92962878Y-66506802D01*
X92968998Y-66565768D01*
X92976585Y-66637276D01*
X92985974Y-66725000D01*
X92990787Y-66767624D01*
X93002587Y-66860713D01*
X93017028Y-66963482D01*
X93033547Y-67072650D01*
X93051581Y-67184935D01*
X93070568Y-67297056D01*
X93089944Y-67405731D01*
X93109148Y-67507680D01*
X93127616Y-67599620D01*
X93144786Y-67678270D01*
X93160095Y-67740350D01*
X93163791Y-67753606D01*
X93171612Y-67772451D01*
X93182881Y-67778401D01*
X93203153Y-67776064D01*
X93279618Y-67762725D01*
X93377078Y-67749281D01*
X93464158Y-67742482D01*
X93545807Y-67742178D01*
X93626974Y-67748216D01*
X93712611Y-67760445D01*
X93714741Y-67760808D01*
X93760740Y-67768373D01*
X93798705Y-67774121D01*
X93824749Y-67777497D01*
X93834986Y-67777945D01*
X93838458Y-67767187D01*
X93845262Y-67740303D01*
X93854578Y-67700880D01*
X93865616Y-67652469D01*
X93877586Y-67598626D01*
X93889698Y-67542904D01*
X93901163Y-67488857D01*
X93911190Y-67440037D01*
X93918990Y-67400000D01*
X93930852Y-67333915D01*
X93950774Y-67213089D01*
X93970515Y-67082160D01*
X93989203Y-66947252D01*
X94005967Y-66814490D01*
X94019937Y-66690000D01*
X94023033Y-66660260D01*
X94028011Y-66612718D01*
X94032294Y-66572143D01*
X94035203Y-66545000D01*
X94036836Y-66529098D01*
X94040579Y-66489510D01*
X94045239Y-66437713D01*
X94050397Y-66378536D01*
X94055636Y-66316806D01*
X94060537Y-66257351D01*
X94064681Y-66205000D01*
X94065882Y-66188943D01*
X94069535Y-66137050D01*
X94073973Y-66070816D01*
X94078948Y-65994244D01*
X94084208Y-65911336D01*
X94089505Y-65826094D01*
X94094588Y-65742520D01*
X94099208Y-65664617D01*
X94103115Y-65596387D01*
X94106060Y-65541832D01*
X94106141Y-65540254D01*
X94110676Y-65474469D01*
X94117403Y-65425226D01*
X94127690Y-65389150D01*
X94142907Y-65362871D01*
X94164424Y-65343015D01*
X94193609Y-65326209D01*
X94217787Y-65315906D01*
X94241849Y-65312796D01*
X94270956Y-65319104D01*
X94300138Y-65331006D01*
X94338837Y-65362411D01*
X94367029Y-65410000D01*
X94367848Y-65411947D01*
X94390147Y-65463077D01*
X94419893Y-65528541D01*
X94455501Y-65605017D01*
X94495385Y-65689184D01*
X94537960Y-65777721D01*
X94581641Y-65867306D01*
X94624842Y-65954619D01*
X94665979Y-66036337D01*
X94741655Y-66183131D01*
X94859954Y-66404449D01*
X94982268Y-66623167D01*
X95111825Y-66845009D01*
X95251850Y-67075701D01*
X95264068Y-67095493D01*
X95308299Y-67167120D01*
X95343578Y-67223895D01*
X95371208Y-67267529D01*
X95392493Y-67299733D01*
X95408738Y-67322216D01*
X95421246Y-67336690D01*
X95431323Y-67344865D01*
X95440271Y-67348451D01*
X95449396Y-67349159D01*
X95460000Y-67348699D01*
X95461385Y-67348644D01*
X95502767Y-67348363D01*
X95531200Y-67352804D01*
X95553380Y-67364004D01*
X95576001Y-67384000D01*
X95577336Y-67385340D01*
X95598314Y-67409827D01*
X95607765Y-67433439D01*
X95609935Y-67466500D01*
X95605731Y-67506323D01*
X95590921Y-67543741D01*
X95571972Y-67572482D01*
X95642133Y-67678741D01*
X95712293Y-67785000D01*
X95711562Y-67860922D01*
X95706904Y-68345000D01*
X95704880Y-68518377D01*
X95702100Y-68681611D01*
X95698468Y-68830305D01*
X95693817Y-68967239D01*
X95687985Y-69095194D01*
X95680806Y-69216949D01*
X95672116Y-69335282D01*
X95661750Y-69452975D01*
X95649543Y-69572805D01*
X95635331Y-69697554D01*
X95618949Y-69830000D01*
X95618472Y-69833724D01*
X95611195Y-69887541D01*
X95602311Y-69949077D01*
X95592320Y-70015278D01*
X95581721Y-70083084D01*
X95571016Y-70149441D01*
X95560704Y-70211292D01*
X95551286Y-70265580D01*
X95543264Y-70309248D01*
X95537136Y-70339240D01*
X95533404Y-70352500D01*
X95531051Y-70357380D01*
X95533911Y-70358564D01*
X95545746Y-70352970D01*
X95569196Y-70339295D01*
X95606907Y-70316233D01*
X95806630Y-70182664D01*
X95994217Y-70034795D01*
X96166328Y-69874458D01*
X96323425Y-69701140D01*
X96465972Y-69514330D01*
X96594434Y-69313513D01*
X96709272Y-69098179D01*
X96732206Y-69053961D01*
X96756731Y-69016937D01*
X96781550Y-68993672D01*
X96809936Y-68981243D01*
X96845161Y-68976724D01*
X96849044Y-68976623D01*
X96894757Y-68984467D01*
X96933268Y-69009959D01*
X96966059Y-69054049D01*
X96987118Y-69091219D01*
X97009236Y-68998109D01*
X97022839Y-68940243D01*
X97058556Y-68780986D01*
X97089883Y-68628531D01*
X97117771Y-68477516D01*
X97143175Y-68322583D01*
X97167046Y-68158373D01*
X97190338Y-67979525D01*
X97193933Y-67951431D01*
X97201485Y-67897210D01*
X97208849Y-67849963D01*
X97215335Y-67813988D01*
X97220249Y-67793585D01*
X97223377Y-67785825D01*
X97248851Y-67751535D01*
X97286553Y-67727228D01*
X97330555Y-67717022D01*
X97333061Y-67716908D01*
X97360533Y-67712157D01*
X97370000Y-67702008D01*
X97369481Y-67695464D01*
X97365352Y-67669000D01*
X97357663Y-67627713D01*
X97347089Y-67574738D01*
X97334306Y-67513210D01*
X97319988Y-67446264D01*
X97304811Y-67377036D01*
X97289449Y-67308660D01*
X97274577Y-67244272D01*
X97260870Y-67187007D01*
X97249004Y-67140000D01*
X97181853Y-66906511D01*
X97097165Y-66661464D01*
X96999037Y-66423252D01*
X96885297Y-66186179D01*
X96883030Y-66181705D01*
X96866309Y-66145004D01*
X96854498Y-66112644D01*
X96850032Y-66091179D01*
X96850108Y-66089165D01*
X96853370Y-66067106D01*
X96860738Y-66031040D01*
X96871230Y-65985495D01*
X96883866Y-65935000D01*
X96889641Y-65912713D01*
X96938540Y-65716830D01*
X96982390Y-65526725D01*
X97022008Y-65338102D01*
X97058211Y-65146664D01*
X97091816Y-64948115D01*
X97123641Y-64738159D01*
X97154503Y-64512500D01*
X97158743Y-64480000D01*
X96988746Y-64480000D01*
X96724151Y-64487306D01*
X96423390Y-64512622D01*
X96121466Y-64555654D01*
X95821816Y-64616001D01*
X95796847Y-64621775D01*
X95740726Y-64634216D01*
X95698268Y-64641578D01*
X95665209Y-64643413D01*
X95637287Y-64639271D01*
X95610240Y-64628704D01*
X95579804Y-64611262D01*
X95541717Y-64586496D01*
X95358201Y-64473315D01*
X95158132Y-64364967D01*
X94949914Y-64266023D01*
X94738054Y-64178482D01*
X94527056Y-64104340D01*
X94321426Y-64045594D01*
X94299985Y-64040258D01*
X94236870Y-64025039D01*
X94179644Y-64012355D01*
X94125718Y-64001985D01*
X94072505Y-63993709D01*
X94017415Y-63987307D01*
X93957860Y-63982559D01*
X93891250Y-63979244D01*
X93814998Y-63977142D01*
X93726515Y-63976033D01*
X93623212Y-63975696D01*
X93502500Y-63975911D01*
X93494697Y-63975933D01*
X93442605Y-63975992D01*
X93379170Y-63975954D01*
X93311700Y-63975827D01*
X93247500Y-63975620D01*
X93155088Y-63976473D01*
X93048852Y-63981464D01*
X92947515Y-63991535D01*
X92845286Y-64007458D01*
X92736377Y-64030004D01*
X92615000Y-64059946D01*
X92529994Y-64083597D01*
X92324858Y-64151521D01*
X92114309Y-64235839D01*
X91900749Y-64335463D01*
X91686580Y-64449306D01*
X91474203Y-64576281D01*
X91462557Y-64583621D01*
X91416728Y-64611238D01*
X91380222Y-64628931D01*
X91347311Y-64637643D01*
X91312269Y-64638318D01*
X91269370Y-64631899D01*
X91212888Y-64619330D01*
X91005211Y-64575586D01*
X90776579Y-64537482D01*
X90539193Y-64507334D01*
X90298191Y-64485792D01*
X90058708Y-64473504D01*
X90011515Y-64472046D01*
X89953540Y-64470464D01*
X89911401Y-64469829D01*
X89882575Y-64470295D01*
X89864543Y-64472016D01*
X89854783Y-64475146D01*
X89850776Y-64479838D01*
X89850000Y-64486248D01*
X89850147Y-64489916D01*
X89852409Y-64513269D01*
X89857017Y-64551574D01*
X89863464Y-64601163D01*
X89871247Y-64658369D01*
X89879860Y-64719523D01*
X89888796Y-64780957D01*
X89897552Y-64839006D01*
X89905622Y-64890000D01*
X89921057Y-64981043D01*
X89949843Y-65137952D01*
X89984194Y-65311805D01*
X90024253Y-65503314D01*
X90070161Y-65713191D01*
X90088290Y-65795109D01*
X90105102Y-65872218D01*
X90119958Y-65941508D01*
X90132366Y-66000642D01*
X90141836Y-66047281D01*
X90147878Y-66079088D01*
X90150000Y-66093724D01*
X90148813Y-66100248D01*
X90140399Y-66124454D01*
X90125239Y-66160860D01*
X90104905Y-66205782D01*
X90080970Y-66255533D01*
X90064307Y-66289494D01*
X89981074Y-66469793D01*
X89907516Y-66649334D01*
X89841763Y-66833276D01*
X89781947Y-67026778D01*
X89726200Y-67235000D01*
X89726139Y-67235244D01*
X89717346Y-67272258D01*
X89706500Y-67320699D01*
X89694301Y-67377126D01*
X89681452Y-67438098D01*
X89668655Y-67500175D01*
X89656611Y-67559915D01*
X89646021Y-67613878D01*
X89637589Y-67658623D01*
X89632014Y-67690709D01*
X89630000Y-67706695D01*
X89367898Y-67706695D01*
X89384318Y-67617435D01*
X89403615Y-67517419D01*
X89423932Y-67416711D01*
X89444860Y-67317517D01*
X89465986Y-67222042D01*
X89486900Y-67132494D01*
X89507192Y-67051078D01*
X89526450Y-66980000D01*
X89572034Y-66829226D01*
X89644970Y-66616517D01*
X89725153Y-66412200D01*
X89810448Y-66221968D01*
X89825182Y-66190951D01*
X89846934Y-66143664D01*
X89864327Y-66103965D01*
X89875866Y-66075305D01*
X89880057Y-66061133D01*
X89878437Y-66049315D01*
X89872983Y-66020504D01*
X89864371Y-65978703D01*
X89853320Y-65927378D01*
X89840546Y-65870000D01*
X89834214Y-65841974D01*
X89808711Y-65728497D01*
X89786983Y-65630622D01*
X89768357Y-65545200D01*
X89752159Y-65469078D01*
X89737718Y-65399104D01*
X89724360Y-65332129D01*
X89711414Y-65265000D01*
X89696781Y-65186531D01*
X89675921Y-65069649D01*
X89656234Y-64953528D01*
X89638062Y-64840526D01*
X89621747Y-64732999D01*
X89607631Y-64633303D01*
X89596056Y-64543795D01*
X89587364Y-64466832D01*
X89581898Y-64404770D01*
X89580001Y-64359965D01*
X89580271Y-64340561D01*
X89583563Y-64310966D01*
X89592812Y-64288804D01*
X89610764Y-64265657D01*
X89611827Y-64264450D01*
X89625950Y-64249628D01*
X89640514Y-64238639D01*
X89658779Y-64230753D01*
X89684003Y-64225240D01*
X89719444Y-64221369D01*
X89768361Y-64218410D01*
X89834011Y-64215634D01*
X89960671Y-64213280D01*
X90135817Y-64216983D01*
X90322785Y-64227880D01*
X90517880Y-64245624D01*
X90717409Y-64269867D01*
X90917681Y-64300259D01*
X91115000Y-64336452D01*
X91169978Y-64347364D01*
X91221611Y-64357409D01*
X91263521Y-64365346D01*
X91292415Y-64370552D01*
X91305000Y-64372403D01*
X91306701Y-64371998D01*
X91322583Y-64364450D01*
X91351105Y-64348824D01*
X91388847Y-64327038D01*
X91432386Y-64301009D01*
X91479558Y-64272777D01*
X91542656Y-64235885D01*
X91605612Y-64199857D01*
X91660011Y-64169552D01*
X91670648Y-64163766D01*
X91707845Y-64143914D01*
X91745516Y-64124544D01*
X91786633Y-64104233D01*
X91834169Y-64081557D01*
X91891095Y-64055092D01*
X91960381Y-64023415D01*
X92045000Y-63985102D01*
X92055703Y-63980315D01*
X92165742Y-63935230D01*
X92289923Y-63890742D01*
X92422982Y-63848437D01*
X92559659Y-63809903D01*
X92694690Y-63776728D01*
X92822813Y-63750498D01*
X92825842Y-63749951D01*
X92939806Y-63731824D01*
X93047167Y-63720209D01*
X93156629Y-63714403D01*
X93276897Y-63713699D01*
X93300867Y-63713985D01*
X93352443Y-63714325D01*
X93388344Y-63713761D01*
X93411714Y-63711936D01*
X93425697Y-63708490D01*
X93433438Y-63703065D01*
X93438080Y-63695302D01*
X93447762Y-63677619D01*
X93475302Y-63639362D01*
X93511808Y-63597403D01*
X93552624Y-63556916D01*
X93593096Y-63523071D01*
X93605070Y-63514365D01*
X93704901Y-63453931D01*
X93821484Y-63402452D01*
X93953592Y-63360400D01*
X94100000Y-63328245D01*
X94105480Y-63327340D01*
X94149818Y-63322466D01*
X94209195Y-63318829D01*
X94279373Y-63316431D01*
X94356116Y-63315271D01*
X94435186Y-63315351D01*
X94512346Y-63316673D01*
X94583360Y-63319237D01*
X94643991Y-63323045D01*
X94690000Y-63328097D01*
X94829062Y-63352171D01*
X95016212Y-63395242D01*
X95193331Y-63449582D01*
X95365000Y-63516469D01*
X95395343Y-63529958D01*
X95446798Y-63556107D01*
X95482524Y-63580839D01*
X95504989Y-63606617D01*
X95516659Y-63635902D01*
X95520000Y-63671157D01*
X95519957Y-63678226D01*
X95517198Y-63709206D01*
X95507409Y-63731662D01*
X95486789Y-63755211D01*
X95475763Y-63765705D01*
X95448043Y-63785760D01*
X95418925Y-63795088D01*
X95384487Y-63793770D01*
X95340807Y-63781892D01*
X95283961Y-63759537D01*
X95176784Y-63717004D01*
X94988774Y-63655561D01*
X94795982Y-63608104D01*
X94757820Y-63600355D01*
X94714314Y-63592144D01*
X94675646Y-63586085D01*
X94637678Y-63581833D01*
X94596269Y-63579043D01*
X94547279Y-63577371D01*
X94486570Y-63576474D01*
X94410000Y-63576006D01*
X94356011Y-63575953D01*
X94268072Y-63576918D01*
X94197886Y-63579329D01*
X94144009Y-63583248D01*
X94105000Y-63588733D01*
X94077936Y-63594475D01*
X94017802Y-63609643D01*
X93956303Y-63627848D01*
X93898688Y-63647368D01*
X93850203Y-63666483D01*
X93816097Y-63683471D01*
X93777194Y-63707200D01*
X93871097Y-63714009D01*
X93954291Y-63721165D01*
X94165100Y-63749587D01*
X94375867Y-63793095D01*
X94588417Y-63852235D01*
X94804572Y-63927555D01*
X95026159Y-64019601D01*
X95255000Y-64128921D01*
X95272432Y-64137802D01*
X95341914Y-64173975D01*
X95412267Y-64211681D01*
X95478785Y-64248336D01*
X95536759Y-64281355D01*
X95581484Y-64308154D01*
X95697967Y-64380945D01*
X95776484Y-64361265D01*
X95809702Y-64353108D01*
X96016700Y-64309420D01*
X96237044Y-64274811D01*
X96471919Y-64249146D01*
X96722510Y-64232292D01*
X96990000Y-64224116D01*
X97018575Y-64223718D01*
X97102753Y-64222641D01*
X97169921Y-64222043D01*
X97222385Y-64222019D01*
X97262448Y-64222664D01*
X97292415Y-64224073D01*
X97314591Y-64226340D01*
X97331279Y-64229562D01*
X97344784Y-64233832D01*
X97357410Y-64239245D01*
X97383388Y-64253291D01*
X97406083Y-64273100D01*
X97420188Y-64299126D01*
X97426718Y-64334685D01*
X97426685Y-64383092D01*
X97421103Y-64447662D01*
X97404063Y-64592737D01*
X97367341Y-64856044D01*
X97322519Y-65128214D01*
X97270594Y-65403757D01*
X97212565Y-65677182D01*
X97149428Y-65943000D01*
X97117274Y-66071001D01*
X97187881Y-66218000D01*
X97241759Y-66334323D01*
X97316447Y-66512062D01*
X97384313Y-66695625D01*
X97446037Y-66887345D01*
X97502302Y-67089552D01*
X97553789Y-67304577D01*
X97601179Y-67534752D01*
X97630878Y-67702008D01*
X97645154Y-67782409D01*
G37*
D13*
%TO.C,D1*%
X105072500Y-90200000D02*
X99562500Y-90200000D01*
X105072500Y-90200000D02*
X105072500Y-93500000D01*
X105072500Y-93500000D02*
X99562500Y-93500000D01*
%TO.C,D3*%
X98052500Y-86450000D02*
X103562500Y-86450000D01*
X98052500Y-89750000D02*
X98052500Y-86450000D01*
X98052500Y-89750000D02*
X103562500Y-89750000D01*
%TO.C,R2*%
X103282411Y-84674595D02*
X102772963Y-84674595D01*
X103282411Y-85719595D02*
X102772963Y-85719595D01*
%TO.C,R4*%
X169767224Y-94777500D02*
X169257776Y-94777500D01*
X169767224Y-95822500D02*
X169257776Y-95822500D01*
%TO.C,C8*%
X92840000Y-88791233D02*
X92840000Y-89083767D01*
X93860000Y-88791233D02*
X93860000Y-89083767D01*
%TO.C,R3*%
X169767224Y-92227500D02*
X169257776Y-92227500D01*
X169767224Y-93272500D02*
X169257776Y-93272500D01*
%TO.C,R1*%
X99877500Y-80932776D02*
X99877500Y-81442224D01*
X100922500Y-80932776D02*
X100922500Y-81442224D01*
%TO.C,Q1*%
X103767687Y-80517095D02*
X103767687Y-81447095D01*
X103767687Y-83677095D02*
X103767687Y-82747095D01*
X103767687Y-83677095D02*
X105227687Y-83677095D01*
X104567687Y-80517095D02*
X103767687Y-80517095D01*
X104567687Y-80517095D02*
X105367687Y-80517095D01*
X105867687Y-80487095D02*
X105627687Y-80157095D01*
X106107687Y-80157095D01*
X105867687Y-80487095D01*
G36*
X105867687Y-80487095D02*
G01*
X105627687Y-80157095D01*
X106107687Y-80157095D01*
X105867687Y-80487095D01*
G37*
%TO.C,C3*%
X97231420Y-83137095D02*
X97523954Y-83137095D01*
X97231420Y-84157095D02*
X97523954Y-84157095D01*
%TO.C,C10*%
X120776248Y-86565000D02*
X121298752Y-86565000D01*
X120776248Y-88035000D02*
X121298752Y-88035000D01*
%TO.C,C7*%
X91190000Y-91958767D02*
X91190000Y-91666233D01*
X92210000Y-91958767D02*
X92210000Y-91666233D01*
%TO.C,C6*%
X94390000Y-88791233D02*
X94390000Y-89083767D01*
X95410000Y-88791233D02*
X95410000Y-89083767D01*
%TO.C,C4*%
X97231420Y-84687095D02*
X97523954Y-84687095D01*
X97231420Y-85707095D02*
X97523954Y-85707095D01*
%TO.C,C14*%
X120666233Y-81440000D02*
X120958767Y-81440000D01*
X120666233Y-82460000D02*
X120958767Y-82460000D01*
%TO.C,C12*%
X157265000Y-88173752D02*
X157265000Y-87651248D01*
X158735000Y-88173752D02*
X158735000Y-87651248D01*
%TO.C,L1*%
X107950000Y-80800000D02*
X107950000Y-91400000D01*
X107950000Y-91400000D02*
X111150000Y-91400000D01*
X111150000Y-80800000D02*
X107950000Y-80800000D01*
X115350000Y-91400000D02*
X118550000Y-91400000D01*
X118550000Y-80800000D02*
X115350000Y-80800000D01*
X118550000Y-91400000D02*
X118550000Y-80800000D01*
%TO.C,C2*%
X97231420Y-81587095D02*
X97523954Y-81587095D01*
X97231420Y-82607095D02*
X97523954Y-82607095D01*
%TO.C,C13*%
X155540000Y-88283767D02*
X155540000Y-87991233D01*
X156560000Y-88283767D02*
X156560000Y-87991233D01*
%TO.C,C1*%
X96096267Y-76340000D02*
X95803733Y-76340000D01*
X96096267Y-77360000D02*
X95803733Y-77360000D01*
%TO.C,L2*%
X119490000Y-90421267D02*
X119490000Y-90078733D01*
X120510000Y-90421267D02*
X120510000Y-90078733D01*
%TO.C,C5*%
X95940000Y-88791233D02*
X95940000Y-89083767D01*
X96960000Y-88791233D02*
X96960000Y-89083767D01*
%TO.C,D2*%
X98052500Y-93950000D02*
X103562500Y-93950000D01*
X98052500Y-97250000D02*
X98052500Y-93950000D01*
X98052500Y-97250000D02*
X103562500Y-97250000D01*
%TO.C,U2*%
X143490000Y-87065000D02*
X143490000Y-85390000D01*
X143490000Y-93435000D02*
X143490000Y-95410000D01*
X143490000Y-95410000D02*
X145465000Y-95410000D01*
X145465000Y-85090000D02*
X143730000Y-85090000D01*
X153810000Y-85090000D02*
X151835000Y-85090000D01*
X153810000Y-87065000D02*
X153810000Y-85090000D01*
X153810000Y-93435000D02*
X153810000Y-95410000D01*
X153810000Y-95410000D02*
X151835000Y-95410000D01*
X143490000Y-85090000D02*
X143160000Y-85330000D01*
X143160000Y-84850000D01*
X143490000Y-85090000D01*
G36*
X143490000Y-85090000D02*
G01*
X143160000Y-85330000D01*
X143160000Y-84850000D01*
X143490000Y-85090000D01*
G37*
%TO.C,C11*%
X120776248Y-83555000D02*
X121298752Y-83555000D01*
X120776248Y-85025000D02*
X121298752Y-85025000D01*
%TO.C,C9*%
X105665000Y-90211252D02*
X105665000Y-89688748D01*
X107135000Y-90211252D02*
X107135000Y-89688748D01*
%TO.C,J1*%
X92100000Y-86700000D02*
X93400000Y-86700000D01*
X92100000Y-86700000D02*
X92100000Y-89000000D01*
X92100000Y-74500000D02*
X92100000Y-72200000D01*
X88700000Y-88970000D02*
X88020000Y-88970000D01*
X88700000Y-72230000D02*
X88020000Y-72230000D01*
%TD*%
%LPC*%
D14*
%TO.C,U1*%
X165610000Y-67380000D03*
X165610000Y-69920000D03*
X165610000Y-72460000D03*
X165610000Y-75000000D03*
X165610000Y-77540000D03*
X165610000Y-80080000D03*
X165610000Y-82620000D03*
X165610000Y-85160000D03*
X165610000Y-87700000D03*
X165610000Y-90240000D03*
X165610000Y-92780000D03*
X165610000Y-95320000D03*
X184890000Y-95320000D03*
X184890000Y-92780000D03*
X184890000Y-90240000D03*
X184890000Y-87700000D03*
X184890000Y-85160000D03*
X184890000Y-82620000D03*
X184890000Y-80080000D03*
X184890000Y-77540000D03*
X184890000Y-75000000D03*
X184890000Y-72460000D03*
%TD*%
D15*
%TO.C,D1*%
X103562500Y-91850000D03*
X99562500Y-91850000D03*
%TD*%
D16*
%TO.C,D3*%
X99562500Y-88100000D03*
X103562500Y-88100000D03*
%TD*%
D17*
%TO.C,R2*%
X103940187Y-85197095D03*
X102115187Y-85197095D03*
%TD*%
%TO.C,R4*%
X170425000Y-95300000D03*
X168600000Y-95300000D03*
%TD*%
D18*
%TO.C,C8*%
X93350000Y-88075000D03*
X93350000Y-89800000D03*
%TD*%
D17*
%TO.C,R3*%
X170425000Y-92750000D03*
X168600000Y-92750000D03*
%TD*%
D19*
%TO.C,R1*%
X100400000Y-80275000D03*
X100400000Y-82100000D03*
%TD*%
D20*
%TO.C,Q1*%
X106027687Y-81147095D03*
X106027687Y-83047095D03*
X103027687Y-82097095D03*
%TD*%
D21*
%TO.C,C3*%
X96515187Y-83647095D03*
X98240187Y-83647095D03*
%TD*%
D22*
%TO.C,C10*%
X120000000Y-87300000D03*
X122075000Y-87300000D03*
%TD*%
D23*
%TO.C,C7*%
X91700000Y-92675000D03*
X91700000Y-90950000D03*
%TD*%
D18*
%TO.C,C6*%
X94900000Y-88075000D03*
X94900000Y-89800000D03*
%TD*%
D21*
%TO.C,C4*%
X96515187Y-85197095D03*
X98240187Y-85197095D03*
%TD*%
%TO.C,C14*%
X119950000Y-81950000D03*
X121675000Y-81950000D03*
%TD*%
D24*
%TO.C,C12*%
X158000000Y-88950000D03*
X158000000Y-86875000D03*
%TD*%
D25*
%TO.C,L1*%
X113250000Y-81950000D03*
X113250000Y-90250000D03*
%TD*%
D21*
%TO.C,C2*%
X96515187Y-82097095D03*
X98240187Y-82097095D03*
%TD*%
D23*
%TO.C,C13*%
X156050000Y-89000000D03*
X156050000Y-87275000D03*
%TD*%
D26*
%TO.C,C1*%
X96812500Y-76850000D03*
X95087500Y-76850000D03*
%TD*%
D27*
%TO.C,L2*%
X120000000Y-91125000D03*
X120000000Y-89375000D03*
%TD*%
D18*
%TO.C,C5*%
X96450000Y-88075000D03*
X96450000Y-89800000D03*
%TD*%
D16*
%TO.C,D2*%
X99562500Y-95600000D03*
X103562500Y-95600000D03*
%TD*%
D28*
%TO.C,U2*%
X146150000Y-86100000D03*
X147400000Y-86100000D03*
X148650000Y-86100000D03*
X149900000Y-86100000D03*
X151150000Y-86100000D03*
D29*
X152800000Y-87750000D03*
X152800000Y-89000000D03*
X152800000Y-90250000D03*
X152800000Y-91500000D03*
X152800000Y-92750000D03*
D28*
X151150000Y-94400000D03*
X149900000Y-94400000D03*
X148650000Y-94400000D03*
X147400000Y-94400000D03*
X146150000Y-94400000D03*
D29*
X144500000Y-92750000D03*
X144500000Y-91500000D03*
X144500000Y-90250000D03*
X144500000Y-89000000D03*
X144500000Y-87750000D03*
D30*
X148650000Y-90250000D03*
%TD*%
D22*
%TO.C,C11*%
X120000000Y-84290000D03*
X122075000Y-84290000D03*
%TD*%
D24*
%TO.C,C9*%
X106400000Y-90987500D03*
X106400000Y-88912500D03*
%TD*%
D31*
%TO.C,J1*%
X90400000Y-87890000D03*
X90400000Y-73310000D03*
D32*
X92750000Y-86350000D03*
X92750000Y-85850000D03*
X92750000Y-85350000D03*
X92750000Y-84850000D03*
X92750000Y-84350000D03*
X92750000Y-83850000D03*
X92750000Y-83350000D03*
X92750000Y-82850000D03*
X92750000Y-82350000D03*
X92750000Y-81850000D03*
X92750000Y-81350000D03*
X92750000Y-80850000D03*
X92750000Y-80350000D03*
X92750000Y-79850000D03*
X92750000Y-79350000D03*
X92750000Y-78850000D03*
X92750000Y-78350000D03*
X92750000Y-77850000D03*
X92750000Y-77350000D03*
X92750000Y-76850000D03*
X92750000Y-76350000D03*
X92750000Y-75850000D03*
X92750000Y-75350000D03*
X92750000Y-74850000D03*
%TD*%
%LPD*%
M02*
