%TF.GenerationSoftware,KiCad,Pcbnew,9.0.3*%
%TF.CreationDate,2025-08-31T00:36:59+09:00*%
%TF.ProjectId,dash,64617368-2e6b-4696-9361-645f70636258,rev?*%
%TF.SameCoordinates,Original*%
%TF.FileFunction,Legend,Top*%
%TF.FilePolarity,Positive*%
%FSLAX46Y46*%
G04 Gerber Fmt 4.6, Leading zero omitted, Abs format (unit mm)*
G04 Created by KiCad (PCBNEW 9.0.3) date 2025-08-31 00:36:59*
%MOMM*%
%LPD*%
G01*
G04 APERTURE LIST*
%ADD10C,0.153000*%
%ADD11O,3.000000X1.500000*%
G04 APERTURE END LIST*
D10*
X174488095Y-78304663D02*
X174488095Y-79114186D01*
X174488095Y-79114186D02*
X174535714Y-79209424D01*
X174535714Y-79209424D02*
X174583333Y-79257044D01*
X174583333Y-79257044D02*
X174678571Y-79304663D01*
X174678571Y-79304663D02*
X174869047Y-79304663D01*
X174869047Y-79304663D02*
X174964285Y-79257044D01*
X174964285Y-79257044D02*
X175011904Y-79209424D01*
X175011904Y-79209424D02*
X175059523Y-79114186D01*
X175059523Y-79114186D02*
X175059523Y-78304663D01*
X176059523Y-79304663D02*
X175488095Y-79304663D01*
X175773809Y-79304663D02*
X175773809Y-78304663D01*
X175773809Y-78304663D02*
X175678571Y-78447520D01*
X175678571Y-78447520D02*
X175583333Y-78542758D01*
X175583333Y-78542758D02*
X175488095Y-78590377D01*
%LPC*%
D11*
%TO.C,U1*%
X165610000Y-67380000D03*
X165610000Y-69920000D03*
X165610000Y-72460000D03*
X165610000Y-75000000D03*
X165610000Y-77540000D03*
X165610000Y-80080000D03*
X165610000Y-82620000D03*
X165610000Y-85160000D03*
X165610000Y-87700000D03*
X165610000Y-90240000D03*
X165610000Y-92780000D03*
X165610000Y-95320000D03*
X184890000Y-95320000D03*
X184890000Y-92780000D03*
X184890000Y-90240000D03*
X184890000Y-87700000D03*
X184890000Y-85160000D03*
X184890000Y-82620000D03*
X184890000Y-80080000D03*
X184890000Y-77540000D03*
X184890000Y-75000000D03*
X184890000Y-72460000D03*
%TD*%
%LPD*%
M02*
