%TF.GenerationSoftware,KiCad,Pcbnew,9.0.3*%
%TF.CreationDate,2025-08-31T00:01:55+09:00*%
%TF.ProjectId,dash,64617368-2e6b-4696-9361-645f70636258,rev?*%
%TF.SameCoordinates,Original*%
%TF.FileFunction,Copper,L1,Top*%
%TF.FilePolarity,Positive*%
%FSLAX46Y46*%
G04 Gerber Fmt 4.6, Leading zero omitted, Abs format (unit mm)*
G04 Created by KiCad (PCBNEW 9.0.3) date 2025-08-31 00:01:55*
%MOMM*%
%LPD*%
G01*
G04 APERTURE LIST*
%TA.AperFunction,ComponentPad*%
%ADD10O,3.000000X1.500000*%
%TD*%
%TA.AperFunction,ViaPad*%
%ADD11C,0.600000*%
%TD*%
%TA.AperFunction,ViaPad*%
%ADD12C,1.000000*%
%TD*%
%TA.AperFunction,Conductor*%
%ADD13C,0.400000*%
%TD*%
%TA.AperFunction,Conductor*%
%ADD14C,0.250000*%
%TD*%
G04 APERTURE END LIST*
D10*
%TO.P,U1,1,GND*%
%TO.N,GND*%
X165610000Y-67380000D03*
%TO.P,U1,2,G4*%
%TO.N,/~{D{slash}C}*%
X165610000Y-69920000D03*
%TO.P,U1,3,G5*%
%TO.N,/~{CS}*%
X165610000Y-72460000D03*
%TO.P,U1,4,G6*%
%TO.N,/SCK*%
X165610000Y-75000000D03*
%TO.P,U1,5,G7*%
%TO.N,/MOSI*%
X165610000Y-77540000D03*
%TO.P,U1,6,G8*%
%TO.N,/~{RES}*%
X165610000Y-80080000D03*
%TO.P,U1,7,G10*%
%TO.N,/BUSY*%
X165610000Y-82620000D03*
%TO.P,U1,8,5V*%
%TO.N,unconnected-(U1-5V-Pad8)*%
X165610000Y-85160000D03*
%TO.P,U1,9,GND*%
%TO.N,GND*%
X165610000Y-87700000D03*
%TO.P,U1,10,5V*%
%TO.N,unconnected-(U1-5V-Pad10)*%
X165610000Y-90240000D03*
%TO.P,U1,11,G1*%
%TO.N,/SDA*%
X165610000Y-92780000D03*
%TO.P,U1,12,G0*%
%TO.N,/SCL*%
X165610000Y-95320000D03*
%TO.P,U1,13,GND*%
%TO.N,GND*%
X184890000Y-95320000D03*
%TO.P,U1,14,5V*%
%TO.N,unconnected-(U1-5V-Pad14)*%
X184890000Y-92780000D03*
%TO.P,U1,15,G19*%
%TO.N,unconnected-(U1-G19-Pad15)*%
X184890000Y-90240000D03*
%TO.P,U1,16,G18*%
%TO.N,unconnected-(U1-G18-Pad16)*%
X184890000Y-87700000D03*
%TO.P,U1,17,GND*%
%TO.N,GND*%
X184890000Y-85160000D03*
%TO.P,U1,18,G9*%
%TO.N,unconnected-(U1-G9-Pad18)*%
X184890000Y-82620000D03*
%TO.P,U1,19,EN*%
%TO.N,unconnected-(U1-EN-Pad19)*%
X184890000Y-80080000D03*
%TO.P,U1,20,G20*%
%TO.N,unconnected-(U1-G20-Pad20)*%
X184890000Y-77540000D03*
%TO.P,U1,21,G21*%
%TO.N,unconnected-(U1-G21-Pad21)*%
X184890000Y-75000000D03*
%TO.P,U1,22,3V3*%
%TO.N,+3.3V*%
X184890000Y-72460000D03*
%TD*%
D11*
%TO.N,GND*%
X97100000Y-91450000D03*
X100450000Y-78500000D03*
X145500000Y-62850000D03*
X97550000Y-86600000D03*
X166700000Y-62850000D03*
X170500000Y-97200000D03*
X88450000Y-91650000D03*
X155500000Y-97200000D03*
X130500000Y-62850000D03*
X95500000Y-97200000D03*
X115500000Y-62850000D03*
X100500000Y-62850000D03*
X160500000Y-62850000D03*
X182350000Y-76350000D03*
X168750000Y-87700000D03*
X88450000Y-62850000D03*
X100200000Y-85850000D03*
X122550000Y-89600000D03*
X125500000Y-97200000D03*
X171900000Y-86800000D03*
X110500000Y-97200000D03*
X88450000Y-97150000D03*
X88450000Y-70650000D03*
X130450000Y-82050000D03*
X140500000Y-97200000D03*
X155600000Y-81300000D03*
X169300000Y-73250000D03*
X180850000Y-73250000D03*
X186050000Y-97200000D03*
X88450000Y-81650000D03*
D12*
%TO.N,+3.3V*%
X142600000Y-89000000D03*
X154650000Y-89000000D03*
D11*
%TO.N,/~{RES}*%
X94950000Y-79225000D03*
D12*
%TO.N,/RESE*%
X105150000Y-84300000D03*
D11*
X94150000Y-75850000D03*
%TO.N,/GDR*%
X98700000Y-79350000D03*
X94150000Y-74800000D03*
%TO.N,/BUSY*%
X94150000Y-78725000D03*
%TD*%
D13*
%TO.N,GND*%
X181550000Y-95320000D02*
X184140000Y-95320000D01*
X181550000Y-87700000D02*
X181550000Y-95320000D01*
X166360000Y-87700000D02*
X169300000Y-87700000D01*
X166360000Y-68060000D02*
X169300000Y-71000000D01*
X166360000Y-67380000D02*
X166360000Y-68060000D01*
X184140000Y-85160000D02*
X181550000Y-85160000D01*
X181550000Y-85160000D02*
X181550000Y-87700000D01*
X169300000Y-87700000D02*
X181550000Y-87700000D01*
X169300000Y-71000000D02*
X169300000Y-87700000D01*
%TO.N,+3.3V*%
X142600000Y-89000000D02*
X154650000Y-89000000D01*
D14*
%TO.N,/~{RES}*%
X137730000Y-80080000D02*
X166360000Y-80080000D01*
X96485000Y-80760000D02*
X137050000Y-80760000D01*
X94950000Y-79225000D02*
X96485000Y-80760000D01*
X137050000Y-80760000D02*
X137730000Y-80080000D01*
D13*
%TO.N,/RESE*%
X98395826Y-84300000D02*
X93449000Y-79353174D01*
X105150000Y-84300000D02*
X98395826Y-84300000D01*
X93449000Y-79353174D02*
X93449000Y-76551000D01*
X93449000Y-76551000D02*
X94150000Y-75850000D01*
D14*
%TO.N,/GDR*%
X94150000Y-74800000D02*
X98700000Y-79350000D01*
%TO.N,/BUSY*%
X94150000Y-79310298D02*
X98139702Y-83300000D01*
X98139702Y-83300000D02*
X137050000Y-83300000D01*
X137050000Y-83300000D02*
X137730000Y-82620000D01*
X94150000Y-78725000D02*
X94150000Y-79310298D01*
X137730000Y-82620000D02*
X166360000Y-82620000D01*
%TD*%
%TA.AperFunction,Conductor*%
%TO.N,GND*%
G36*
X167573039Y-61870185D02*
G01*
X167618794Y-61922989D01*
X167630000Y-61974500D01*
X167630000Y-66619744D01*
X167610315Y-66686783D01*
X167557511Y-66732538D01*
X167488353Y-66742482D01*
X167424797Y-66713457D01*
X167405683Y-66692630D01*
X167313450Y-66565686D01*
X167313443Y-66565677D01*
X167174322Y-66426556D01*
X167025280Y-66318269D01*
X166413550Y-66930000D01*
X166300756Y-66930000D01*
X166186306Y-66960667D01*
X166083694Y-67019910D01*
X165999910Y-67103694D01*
X165940667Y-67206306D01*
X165910000Y-67320756D01*
X165910000Y-67439244D01*
X165940667Y-67553694D01*
X165999910Y-67656306D01*
X166083694Y-67740090D01*
X166186306Y-67799333D01*
X166300756Y-67830000D01*
X166413552Y-67830000D01*
X167025280Y-68441729D01*
X167025281Y-68441729D01*
X167174316Y-68333448D01*
X167174322Y-68333443D01*
X167313444Y-68194321D01*
X167405682Y-68067369D01*
X167461013Y-68024704D01*
X167530626Y-68018725D01*
X167592421Y-68051331D01*
X167626778Y-68112170D01*
X167630000Y-68140255D01*
X167630000Y-69158893D01*
X167610315Y-69225932D01*
X167557511Y-69271687D01*
X167488353Y-69281631D01*
X167424797Y-69252606D01*
X167405682Y-69231779D01*
X167369727Y-69182292D01*
X167313828Y-69105354D01*
X167174646Y-68966172D01*
X167015405Y-68850476D01*
X166840029Y-68761117D01*
X166652827Y-68700291D01*
X166602212Y-68692274D01*
X166539077Y-68662344D01*
X166533930Y-68657482D01*
X165610000Y-67733552D01*
X164686068Y-68657482D01*
X164624745Y-68690967D01*
X164617787Y-68692274D01*
X164567171Y-68700291D01*
X164379970Y-68761117D01*
X164204594Y-68850476D01*
X164113741Y-68916485D01*
X164045354Y-68966172D01*
X164045352Y-68966174D01*
X164045351Y-68966174D01*
X163906174Y-69105351D01*
X163906174Y-69105352D01*
X163906172Y-69105354D01*
X163856485Y-69173741D01*
X163790476Y-69264594D01*
X163701117Y-69439970D01*
X163640290Y-69627173D01*
X163609500Y-69821577D01*
X163609500Y-70018422D01*
X163640290Y-70212826D01*
X163701117Y-70400029D01*
X163782411Y-70559576D01*
X163790476Y-70575405D01*
X163906172Y-70734646D01*
X164045354Y-70873828D01*
X164204595Y-70989524D01*
X164327992Y-71052397D01*
X164381213Y-71079515D01*
X164432009Y-71127489D01*
X164448804Y-71195310D01*
X164426267Y-71261445D01*
X164381213Y-71300485D01*
X164204594Y-71390476D01*
X164113741Y-71456485D01*
X164045354Y-71506172D01*
X164045352Y-71506174D01*
X164045351Y-71506174D01*
X163906174Y-71645351D01*
X163906174Y-71645352D01*
X163906172Y-71645354D01*
X163856485Y-71713741D01*
X163790476Y-71804594D01*
X163701117Y-71979970D01*
X163640290Y-72167173D01*
X163609500Y-72361577D01*
X163609500Y-72558422D01*
X163640290Y-72752826D01*
X163701117Y-72940029D01*
X163790476Y-73115405D01*
X163906172Y-73274646D01*
X164045354Y-73413828D01*
X164204595Y-73529524D01*
X164327992Y-73592397D01*
X164381213Y-73619515D01*
X164432009Y-73667489D01*
X164448804Y-73735310D01*
X164426267Y-73801445D01*
X164381213Y-73840485D01*
X164204594Y-73930476D01*
X164113741Y-73996485D01*
X164045354Y-74046172D01*
X164045352Y-74046174D01*
X164045351Y-74046174D01*
X163906174Y-74185351D01*
X163906174Y-74185352D01*
X163906172Y-74185354D01*
X163856485Y-74253741D01*
X163790476Y-74344594D01*
X163701117Y-74519970D01*
X163640290Y-74707173D01*
X163609500Y-74901577D01*
X163609500Y-75098422D01*
X163640290Y-75292826D01*
X163701117Y-75480029D01*
X163762684Y-75600860D01*
X163790476Y-75655405D01*
X163906172Y-75814646D01*
X164045354Y-75953828D01*
X164204595Y-76069524D01*
X164327992Y-76132397D01*
X164381213Y-76159515D01*
X164432009Y-76207489D01*
X164448804Y-76275310D01*
X164426267Y-76341445D01*
X164381213Y-76380485D01*
X164204594Y-76470476D01*
X164119896Y-76532014D01*
X164045354Y-76586172D01*
X164045352Y-76586174D01*
X164045351Y-76586174D01*
X163906174Y-76725351D01*
X163906174Y-76725352D01*
X163906172Y-76725354D01*
X163871041Y-76773707D01*
X163790476Y-76884594D01*
X163701117Y-77059970D01*
X163640290Y-77247173D01*
X163609500Y-77441577D01*
X163609500Y-77638422D01*
X163640290Y-77832826D01*
X163701117Y-78020029D01*
X163743501Y-78103211D01*
X163790476Y-78195405D01*
X163906172Y-78354646D01*
X164045354Y-78493828D01*
X164204595Y-78609524D01*
X164327992Y-78672397D01*
X164381213Y-78699515D01*
X164389211Y-78707069D01*
X164399508Y-78710943D01*
X164414161Y-78730633D01*
X164432009Y-78747489D01*
X164434653Y-78758167D01*
X164441222Y-78766994D01*
X164442903Y-78791484D01*
X164448804Y-78815310D01*
X164445255Y-78825723D01*
X164446009Y-78836700D01*
X164434185Y-78858208D01*
X164426267Y-78881445D01*
X164416768Y-78889891D01*
X164412351Y-78897928D01*
X164387437Y-78915975D01*
X164384038Y-78918999D01*
X164380373Y-78920986D01*
X164379975Y-78921116D01*
X164204595Y-79010476D01*
X164176038Y-79031223D01*
X164169486Y-79035339D01*
X164169308Y-79035464D01*
X164169307Y-79035465D01*
X164125199Y-79066585D01*
X164120588Y-79070569D01*
X164120361Y-79070306D01*
X164111194Y-79078334D01*
X164045350Y-79126175D01*
X163906166Y-79265360D01*
X163899526Y-79274500D01*
X163892340Y-79281012D01*
X163889507Y-79286597D01*
X163861906Y-79308594D01*
X163848610Y-79316386D01*
X163832089Y-79324486D01*
X163681328Y-79384976D01*
X163665449Y-79390136D01*
X163491304Y-79434014D01*
X163473288Y-79437162D01*
X163334912Y-79450933D01*
X163317754Y-79453140D01*
X163315058Y-79453487D01*
X163299241Y-79454500D01*
X137668389Y-79454500D01*
X137607971Y-79466518D01*
X137564743Y-79475116D01*
X137547546Y-79478537D01*
X137433716Y-79525687D01*
X137433707Y-79525692D01*
X137331268Y-79594140D01*
X137300778Y-79624631D01*
X137244142Y-79681267D01*
X137244139Y-79681270D01*
X136827229Y-80098181D01*
X136765906Y-80131666D01*
X136739548Y-80134500D01*
X99346941Y-80134500D01*
X99279902Y-80114815D01*
X99234147Y-80062011D01*
X99224203Y-79992853D01*
X99253228Y-79929297D01*
X99259260Y-79922819D01*
X99321786Y-79860292D01*
X99321789Y-79860289D01*
X99409394Y-79729179D01*
X99469737Y-79583497D01*
X99500500Y-79428842D01*
X99500500Y-79271158D01*
X99500500Y-79271155D01*
X99500499Y-79271153D01*
X99499347Y-79265360D01*
X99469737Y-79116503D01*
X99450602Y-79070306D01*
X99409397Y-78970827D01*
X99409390Y-78970814D01*
X99321789Y-78839711D01*
X99321786Y-78839707D01*
X99210296Y-78728217D01*
X99210292Y-78728214D01*
X99210289Y-78728211D01*
X99166399Y-78698884D01*
X99118373Y-78666793D01*
X99118373Y-78666794D01*
X99116124Y-78665291D01*
X99093162Y-78648455D01*
X99082087Y-78642549D01*
X99079179Y-78640606D01*
X99077057Y-78639472D01*
X99070562Y-78636403D01*
X98962366Y-78578706D01*
X98962347Y-78578696D01*
X98962338Y-78578692D01*
X98936199Y-78566228D01*
X98921323Y-78559135D01*
X98921271Y-78559112D01*
X98919402Y-78558322D01*
X98919386Y-78558315D01*
X98919377Y-78558312D01*
X98916092Y-78557094D01*
X98876816Y-78542533D01*
X98876791Y-78542524D01*
X98794210Y-78516063D01*
X98789735Y-78514534D01*
X98764186Y-78505259D01*
X98724320Y-78481559D01*
X98711471Y-78470187D01*
X98681477Y-78445625D01*
X98679273Y-78443820D01*
X98670156Y-78435565D01*
X95049419Y-74814828D01*
X95039394Y-74803499D01*
X95036609Y-74799936D01*
X95026806Y-74785302D01*
X95014453Y-74771583D01*
X95011795Y-74768181D01*
X95007285Y-74756815D01*
X94990587Y-74726978D01*
X94989531Y-74723403D01*
X94989396Y-74722963D01*
X94986526Y-74713913D01*
X94952807Y-74610951D01*
X94936704Y-74568368D01*
X94935870Y-74566431D01*
X94915933Y-74525342D01*
X94859872Y-74421976D01*
X94859394Y-74420821D01*
X94858607Y-74419644D01*
X94849892Y-74403574D01*
X94838570Y-74383777D01*
X94838034Y-74382887D01*
X94793965Y-74320822D01*
X94793963Y-74320820D01*
X94793853Y-74320665D01*
X94783628Y-74307429D01*
X94771788Y-74289710D01*
X94771784Y-74289705D01*
X94660292Y-74178213D01*
X94660288Y-74178210D01*
X94529185Y-74090609D01*
X94529172Y-74090602D01*
X94383501Y-74030264D01*
X94383489Y-74030261D01*
X94228845Y-73999500D01*
X94228842Y-73999500D01*
X94071158Y-73999500D01*
X94071155Y-73999500D01*
X93916510Y-74030261D01*
X93916498Y-74030264D01*
X93770827Y-74090602D01*
X93770814Y-74090609D01*
X93639711Y-74178210D01*
X93639707Y-74178213D01*
X93528213Y-74289707D01*
X93528210Y-74289711D01*
X93440609Y-74420814D01*
X93440602Y-74420827D01*
X93380264Y-74566498D01*
X93380261Y-74566510D01*
X93349500Y-74721153D01*
X93349500Y-74878846D01*
X93380261Y-75033489D01*
X93380264Y-75033501D01*
X93440602Y-75179172D01*
X93440612Y-75179190D01*
X93492008Y-75256110D01*
X93497977Y-75275173D01*
X93508481Y-75292170D01*
X93508204Y-75307835D01*
X93512886Y-75322787D01*
X93507600Y-75342053D01*
X93507248Y-75362029D01*
X93495219Y-75387183D01*
X93494401Y-75390167D01*
X93492022Y-75393870D01*
X93490926Y-75395511D01*
X93483634Y-75405342D01*
X93461926Y-75431772D01*
X93359914Y-75600109D01*
X93359456Y-75600860D01*
X93316823Y-75670098D01*
X93304091Y-75687262D01*
X93217155Y-75785492D01*
X93190776Y-75817704D01*
X93182522Y-75826819D01*
X92904887Y-76104454D01*
X92828222Y-76219192D01*
X92775421Y-76346667D01*
X92775418Y-76346679D01*
X92750794Y-76470476D01*
X92750533Y-76471789D01*
X92748500Y-76482007D01*
X92748500Y-79284180D01*
X92748500Y-79422168D01*
X92748500Y-79422170D01*
X92748499Y-79422170D01*
X92775418Y-79557496D01*
X92775421Y-79557506D01*
X92828222Y-79684981D01*
X92904887Y-79799719D01*
X92904888Y-79799720D01*
X97851712Y-84746542D01*
X97905080Y-84799910D01*
X97949285Y-84844115D01*
X98064010Y-84920772D01*
X98064011Y-84920772D01*
X98064015Y-84920775D01*
X98105074Y-84937782D01*
X98191497Y-84973580D01*
X98218417Y-84978934D01*
X98316852Y-84998514D01*
X98326832Y-85000500D01*
X98326833Y-85000500D01*
X104111707Y-85000500D01*
X104120808Y-85000834D01*
X104127613Y-85001334D01*
X104150261Y-85005538D01*
X104227424Y-85008679D01*
X104229423Y-85008827D01*
X104229885Y-85009000D01*
X104237369Y-85009670D01*
X104250921Y-85011553D01*
X104271098Y-85016100D01*
X104311845Y-85028938D01*
X104333064Y-85037867D01*
X104405926Y-85076850D01*
X104409984Y-85078998D01*
X104572545Y-85164083D01*
X104572566Y-85164093D01*
X104602343Y-85178457D01*
X104602359Y-85178464D01*
X104602363Y-85178466D01*
X104603757Y-85179083D01*
X104603773Y-85179089D01*
X104603781Y-85179093D01*
X104622370Y-85186606D01*
X104634272Y-85191417D01*
X104741009Y-85230569D01*
X104766343Y-85239109D01*
X104767535Y-85239476D01*
X104767539Y-85239477D01*
X104793694Y-85246767D01*
X104793701Y-85246768D01*
X104793702Y-85246769D01*
X104917983Y-85277833D01*
X104929334Y-85280531D01*
X104929866Y-85280651D01*
X104995065Y-85290940D01*
X104995072Y-85290939D01*
X104997457Y-85291065D01*
X105015150Y-85293277D01*
X105034914Y-85297209D01*
X105051458Y-85300500D01*
X105051459Y-85300500D01*
X105248543Y-85300500D01*
X105378582Y-85274632D01*
X105441835Y-85262051D01*
X105623914Y-85186632D01*
X105787782Y-85077139D01*
X105927139Y-84937782D01*
X105927141Y-84937780D01*
X106036628Y-84773920D01*
X106036628Y-84773919D01*
X106036632Y-84773914D01*
X106112051Y-84591835D01*
X106150500Y-84398541D01*
X106150500Y-84201459D01*
X106150500Y-84201456D01*
X106150499Y-84201454D01*
X106125086Y-84073691D01*
X106131313Y-84004100D01*
X106174176Y-83948922D01*
X106240066Y-83925678D01*
X106246703Y-83925500D01*
X107676000Y-83925500D01*
X107743039Y-83945185D01*
X107788794Y-83997989D01*
X107800000Y-84049500D01*
X107800000Y-91850000D01*
X118700000Y-91850000D01*
X118700000Y-90141577D01*
X163609500Y-90141577D01*
X163609500Y-90338422D01*
X163640290Y-90532826D01*
X163701117Y-90720029D01*
X163790476Y-90895405D01*
X163906172Y-91054646D01*
X164045354Y-91193828D01*
X164204595Y-91309524D01*
X164327992Y-91372397D01*
X164381213Y-91399515D01*
X164432009Y-91447489D01*
X164448804Y-91515310D01*
X164426267Y-91581445D01*
X164381213Y-91620485D01*
X164204594Y-91710476D01*
X164113741Y-91776485D01*
X164045354Y-91826172D01*
X164045352Y-91826174D01*
X164045351Y-91826174D01*
X163906174Y-91965351D01*
X163906174Y-91965352D01*
X163906172Y-91965354D01*
X163856485Y-92033741D01*
X163790476Y-92124594D01*
X163701117Y-92299970D01*
X163640290Y-92487173D01*
X163609500Y-92681577D01*
X163609500Y-92878422D01*
X163640290Y-93072826D01*
X163701117Y-93260029D01*
X163790476Y-93435405D01*
X163906172Y-93594646D01*
X164045354Y-93733828D01*
X164204595Y-93849524D01*
X164327992Y-93912397D01*
X164381213Y-93939515D01*
X164432009Y-93987489D01*
X164448804Y-94055310D01*
X164426267Y-94121445D01*
X164381213Y-94160485D01*
X164204594Y-94250476D01*
X164113741Y-94316485D01*
X164045354Y-94366172D01*
X164045352Y-94366174D01*
X164045351Y-94366174D01*
X163906174Y-94505351D01*
X163906174Y-94505352D01*
X163906172Y-94505354D01*
X163905937Y-94505678D01*
X163790476Y-94664594D01*
X163701117Y-94839970D01*
X163640290Y-95027173D01*
X163609500Y-95221577D01*
X163609500Y-95418422D01*
X163640290Y-95612826D01*
X163701117Y-95800029D01*
X163790343Y-95975143D01*
X163790476Y-95975405D01*
X163906172Y-96134646D01*
X164045354Y-96273828D01*
X164204595Y-96389524D01*
X164262428Y-96418991D01*
X164379970Y-96478882D01*
X164379972Y-96478882D01*
X164379975Y-96478884D01*
X164480317Y-96511487D01*
X164567173Y-96539709D01*
X164761578Y-96570500D01*
X164761583Y-96570500D01*
X166458422Y-96570500D01*
X166503079Y-96563427D01*
X184000124Y-96563427D01*
X184041624Y-96570000D01*
X185738377Y-96570000D01*
X185779874Y-96563427D01*
X185779875Y-96563427D01*
X184890000Y-95673552D01*
X184000124Y-96563427D01*
X166503079Y-96563427D01*
X166652826Y-96539709D01*
X166840025Y-96478884D01*
X167015405Y-96389524D01*
X167174646Y-96273828D01*
X167313828Y-96134646D01*
X167429524Y-95975405D01*
X167518884Y-95800025D01*
X167579709Y-95612826D01*
X167579728Y-95612705D01*
X167610500Y-95418422D01*
X167610500Y-95221617D01*
X182890000Y-95221617D01*
X182890000Y-95418382D01*
X182920778Y-95612705D01*
X182981581Y-95799835D01*
X183070904Y-95975143D01*
X183186555Y-96134321D01*
X183325677Y-96273443D01*
X183474718Y-96381729D01*
X183474719Y-96381728D01*
X184086448Y-95770000D01*
X184199244Y-95770000D01*
X184313694Y-95739333D01*
X184416306Y-95680090D01*
X184500090Y-95596306D01*
X184559333Y-95493694D01*
X184590000Y-95379244D01*
X184590000Y-95260756D01*
X184559333Y-95146306D01*
X184500090Y-95043694D01*
X184416306Y-94959910D01*
X184313694Y-94900667D01*
X184199244Y-94870000D01*
X184086449Y-94870000D01*
X183474719Y-94258270D01*
X183474716Y-94258269D01*
X183325686Y-94366549D01*
X183325677Y-94366556D01*
X183186555Y-94505678D01*
X183070904Y-94664856D01*
X182981581Y-94840164D01*
X182920778Y-95027294D01*
X182890000Y-95221617D01*
X167610500Y-95221617D01*
X167610500Y-95221577D01*
X167579709Y-95027173D01*
X167518882Y-94839970D01*
X167471743Y-94747455D01*
X167429524Y-94664595D01*
X167313828Y-94505354D01*
X167174646Y-94366172D01*
X167095025Y-94308324D01*
X167015403Y-94250474D01*
X166838787Y-94160485D01*
X166787990Y-94112511D01*
X166771195Y-94044690D01*
X166793732Y-93978555D01*
X166838787Y-93939515D01*
X167015403Y-93849525D01*
X167015402Y-93849525D01*
X167015405Y-93849524D01*
X167174646Y-93733828D01*
X167313828Y-93594646D01*
X167429524Y-93435405D01*
X167518884Y-93260025D01*
X167579709Y-93072826D01*
X167610500Y-92878422D01*
X167610500Y-92681577D01*
X167579709Y-92487173D01*
X167518882Y-92299970D01*
X167429523Y-92124594D01*
X167313828Y-91965354D01*
X167174646Y-91826172D01*
X167095025Y-91768324D01*
X167015403Y-91710474D01*
X166838787Y-91620485D01*
X166787990Y-91572511D01*
X166771195Y-91504690D01*
X166793732Y-91438555D01*
X166838787Y-91399515D01*
X167015403Y-91309525D01*
X167015402Y-91309525D01*
X167015405Y-91309524D01*
X167174646Y-91193828D01*
X167313828Y-91054646D01*
X167429524Y-90895405D01*
X167518884Y-90720025D01*
X167579709Y-90532826D01*
X167610500Y-90338422D01*
X167610500Y-90141577D01*
X167579709Y-89947173D01*
X167525065Y-89778998D01*
X167518884Y-89759975D01*
X167518882Y-89759972D01*
X167518882Y-89759970D01*
X167429523Y-89584594D01*
X167313828Y-89425354D01*
X167174646Y-89286172D01*
X167015405Y-89170476D01*
X166840029Y-89081117D01*
X166652827Y-89020291D01*
X166602212Y-89012274D01*
X166539077Y-88982344D01*
X166533930Y-88977482D01*
X165610000Y-88053552D01*
X164686068Y-88977482D01*
X164624745Y-89010967D01*
X164617787Y-89012274D01*
X164567171Y-89020291D01*
X164379970Y-89081117D01*
X164204594Y-89170476D01*
X164113741Y-89236485D01*
X164045354Y-89286172D01*
X164045352Y-89286174D01*
X164045351Y-89286174D01*
X163906174Y-89425351D01*
X163906174Y-89425352D01*
X163906172Y-89425354D01*
X163870896Y-89473907D01*
X163790476Y-89584594D01*
X163701117Y-89759970D01*
X163640290Y-89947173D01*
X163609500Y-90141577D01*
X118700000Y-90141577D01*
X118700000Y-89098543D01*
X141599499Y-89098543D01*
X141637947Y-89291829D01*
X141637950Y-89291839D01*
X141713364Y-89473907D01*
X141713371Y-89473920D01*
X141822860Y-89637781D01*
X141822863Y-89637785D01*
X141962214Y-89777136D01*
X141962218Y-89777139D01*
X142126079Y-89886628D01*
X142126092Y-89886635D01*
X142272246Y-89947173D01*
X142308165Y-89962051D01*
X142308169Y-89962051D01*
X142308170Y-89962052D01*
X142501456Y-90000500D01*
X142501459Y-90000500D01*
X142698542Y-90000500D01*
X142734847Y-89993278D01*
X142781382Y-89984021D01*
X142794030Y-89982178D01*
X142827494Y-89979054D01*
X142929045Y-89954645D01*
X142950175Y-89949081D01*
X142951145Y-89948803D01*
X142971923Y-89942361D01*
X143064490Y-89911464D01*
X143094520Y-89900372D01*
X143095900Y-89899812D01*
X143125482Y-89886690D01*
X143284544Y-89809948D01*
X143294138Y-89805092D01*
X143301671Y-89801280D01*
X143301694Y-89801268D01*
X143302471Y-89800856D01*
X143302482Y-89800849D01*
X143302495Y-89800843D01*
X143309147Y-89797155D01*
X143318911Y-89791743D01*
X143354499Y-89771141D01*
X143356245Y-89770150D01*
X143410473Y-89739922D01*
X143423041Y-89733817D01*
X143426404Y-89732412D01*
X143440017Y-89726724D01*
X143460365Y-89720219D01*
X143484340Y-89714780D01*
X143503937Y-89711957D01*
X143611255Y-89705188D01*
X143649301Y-89701339D01*
X143649301Y-89701338D01*
X143651366Y-89701130D01*
X143663847Y-89700500D01*
X153611707Y-89700500D01*
X153620808Y-89700834D01*
X153627613Y-89701334D01*
X153650261Y-89705538D01*
X153727424Y-89708679D01*
X153729423Y-89708827D01*
X153729885Y-89709000D01*
X153737369Y-89709670D01*
X153750921Y-89711553D01*
X153771098Y-89716100D01*
X153811845Y-89728938D01*
X153833064Y-89737867D01*
X153905926Y-89776850D01*
X153909984Y-89778998D01*
X154072545Y-89864083D01*
X154072566Y-89864093D01*
X154102343Y-89878457D01*
X154102359Y-89878464D01*
X154102363Y-89878466D01*
X154103757Y-89879083D01*
X154103773Y-89879089D01*
X154103781Y-89879093D01*
X154122370Y-89886606D01*
X154134272Y-89891417D01*
X154241009Y-89930569D01*
X154266343Y-89939109D01*
X154267535Y-89939476D01*
X154267539Y-89939477D01*
X154293694Y-89946767D01*
X154293701Y-89946768D01*
X154293702Y-89946769D01*
X154417983Y-89977833D01*
X154429334Y-89980531D01*
X154429866Y-89980651D01*
X154495065Y-89990940D01*
X154495072Y-89990939D01*
X154497457Y-89991065D01*
X154515150Y-89993277D01*
X154534914Y-89997209D01*
X154551458Y-90000500D01*
X154551459Y-90000500D01*
X154748543Y-90000500D01*
X154878582Y-89974632D01*
X154941835Y-89962051D01*
X155123914Y-89886632D01*
X155287782Y-89777139D01*
X155427139Y-89637782D01*
X155536632Y-89473914D01*
X155612051Y-89291835D01*
X155650500Y-89098541D01*
X155650500Y-88901459D01*
X155650500Y-88901456D01*
X155612052Y-88708170D01*
X155612051Y-88708169D01*
X155612051Y-88708165D01*
X155589385Y-88653443D01*
X155536635Y-88526092D01*
X155536628Y-88526079D01*
X155427139Y-88362218D01*
X155427136Y-88362214D01*
X155287785Y-88222863D01*
X155287781Y-88222860D01*
X155123920Y-88113371D01*
X155123907Y-88113364D01*
X154941839Y-88037950D01*
X154941829Y-88037947D01*
X154748543Y-87999500D01*
X154748541Y-87999500D01*
X154551459Y-87999500D01*
X154551454Y-87999500D01*
X154468639Y-88015973D01*
X154455977Y-88017819D01*
X154422506Y-88020944D01*
X154422497Y-88020945D01*
X154320979Y-88045346D01*
X154299802Y-88050923D01*
X154298860Y-88051193D01*
X154278058Y-88057642D01*
X154185514Y-88088530D01*
X154155446Y-88099638D01*
X154154064Y-88100199D01*
X154124526Y-88113302D01*
X153965433Y-88190060D01*
X153948499Y-88198627D01*
X153947724Y-88199038D01*
X153931087Y-88208255D01*
X153895573Y-88228813D01*
X153893830Y-88229803D01*
X153839523Y-88260077D01*
X153826944Y-88266186D01*
X153809989Y-88273269D01*
X153789624Y-88279779D01*
X153765657Y-88285216D01*
X153746031Y-88288043D01*
X153638753Y-88294810D01*
X153622647Y-88296440D01*
X153600647Y-88298667D01*
X153600644Y-88298667D01*
X153598647Y-88298870D01*
X153586161Y-88299500D01*
X143638299Y-88299500D01*
X143629196Y-88299165D01*
X143622385Y-88298663D01*
X143599740Y-88294461D01*
X143522628Y-88291320D01*
X143520569Y-88291169D01*
X143520108Y-88290996D01*
X143512609Y-88290324D01*
X143499091Y-88288446D01*
X143478891Y-88283895D01*
X143438153Y-88271059D01*
X143416927Y-88262128D01*
X143344027Y-88223125D01*
X143340195Y-88221097D01*
X143340108Y-88221051D01*
X143340041Y-88221016D01*
X143261362Y-88179835D01*
X143177444Y-88135911D01*
X143147486Y-88121465D01*
X143146137Y-88120869D01*
X143146126Y-88120864D01*
X143146118Y-88120861D01*
X143115743Y-88108588D01*
X143091358Y-88099643D01*
X143008976Y-88069423D01*
X142983739Y-88060914D01*
X142982526Y-88060540D01*
X142956309Y-88053230D01*
X142832052Y-88022173D01*
X142819888Y-88019292D01*
X142819370Y-88019176D01*
X142819356Y-88019173D01*
X142819345Y-88019171D01*
X142754930Y-88009057D01*
X142752578Y-88008935D01*
X142734853Y-88006722D01*
X142698541Y-87999500D01*
X142501459Y-87999500D01*
X142501457Y-87999500D01*
X142308170Y-88037947D01*
X142308160Y-88037950D01*
X142126092Y-88113364D01*
X142126079Y-88113371D01*
X141962218Y-88222860D01*
X141962214Y-88222863D01*
X141822863Y-88362214D01*
X141822860Y-88362218D01*
X141713371Y-88526079D01*
X141713364Y-88526092D01*
X141637950Y-88708160D01*
X141637947Y-88708170D01*
X141599500Y-88901456D01*
X141599500Y-88901459D01*
X141599500Y-89098541D01*
X141599500Y-89098543D01*
X141599499Y-89098543D01*
X118700000Y-89098543D01*
X118700000Y-87601617D01*
X163610000Y-87601617D01*
X163610000Y-87798382D01*
X163640778Y-87992705D01*
X163701581Y-88179835D01*
X163790904Y-88355143D01*
X163906555Y-88514321D01*
X164045677Y-88653443D01*
X164194718Y-88761729D01*
X164194719Y-88761729D01*
X165256448Y-87700000D01*
X165256448Y-87699999D01*
X165197205Y-87640756D01*
X165910000Y-87640756D01*
X165910000Y-87759244D01*
X165940667Y-87873694D01*
X165999910Y-87976306D01*
X166083694Y-88060090D01*
X166186306Y-88119333D01*
X166300756Y-88150000D01*
X166413552Y-88150000D01*
X167025280Y-88761729D01*
X167025281Y-88761729D01*
X167174316Y-88653448D01*
X167174322Y-88653443D01*
X167313444Y-88514321D01*
X167429095Y-88355143D01*
X167518418Y-88179835D01*
X167579221Y-87992705D01*
X167610000Y-87798382D01*
X167610000Y-87601617D01*
X167579221Y-87407294D01*
X167518418Y-87220164D01*
X167429095Y-87044856D01*
X167313444Y-86885678D01*
X167174322Y-86746556D01*
X167025280Y-86638269D01*
X166413550Y-87250000D01*
X166300756Y-87250000D01*
X166186306Y-87280667D01*
X166083694Y-87339910D01*
X165999910Y-87423694D01*
X165940667Y-87526306D01*
X165910000Y-87640756D01*
X165197205Y-87640756D01*
X164194719Y-86638270D01*
X164194716Y-86638269D01*
X164045686Y-86746549D01*
X164045677Y-86746556D01*
X163906555Y-86885678D01*
X163790904Y-87044856D01*
X163701581Y-87220164D01*
X163640778Y-87407294D01*
X163610000Y-87601617D01*
X118700000Y-87601617D01*
X118700000Y-84049500D01*
X118719685Y-83982461D01*
X118772489Y-83936706D01*
X118824000Y-83925500D01*
X137111608Y-83925500D01*
X137111608Y-83925499D01*
X137192046Y-83909500D01*
X137232452Y-83901463D01*
X137265792Y-83887652D01*
X137346286Y-83854312D01*
X137397509Y-83820084D01*
X137399798Y-83818555D01*
X137410271Y-83811556D01*
X137448733Y-83785858D01*
X137535858Y-83698733D01*
X137535859Y-83698731D01*
X137542925Y-83691665D01*
X137542927Y-83691661D01*
X137952771Y-83281819D01*
X138014094Y-83248334D01*
X138040452Y-83245500D01*
X163305258Y-83245500D01*
X163318471Y-83246206D01*
X163326841Y-83247102D01*
X163334722Y-83249051D01*
X163485501Y-83264105D01*
X163485811Y-83264139D01*
X163485996Y-83264215D01*
X163498734Y-83266219D01*
X163572948Y-83282227D01*
X163581536Y-83284403D01*
X163675409Y-83311807D01*
X163683908Y-83314626D01*
X163772431Y-83347573D01*
X163781575Y-83351399D01*
X163849460Y-83383048D01*
X163897381Y-83422548D01*
X163906164Y-83434637D01*
X163906171Y-83434645D01*
X164045359Y-83573833D01*
X164118335Y-83626852D01*
X164118336Y-83626852D01*
X164121928Y-83629462D01*
X164137544Y-83642611D01*
X164148050Y-83648441D01*
X164204595Y-83689524D01*
X164333204Y-83755053D01*
X164381213Y-83779515D01*
X164432009Y-83827489D01*
X164448804Y-83895310D01*
X164426267Y-83961445D01*
X164381213Y-84000485D01*
X164204594Y-84090476D01*
X164113741Y-84156485D01*
X164045354Y-84206172D01*
X164045352Y-84206174D01*
X164045351Y-84206174D01*
X163906174Y-84345351D01*
X163906174Y-84345352D01*
X163906172Y-84345354D01*
X163905937Y-84345678D01*
X163790476Y-84504594D01*
X163701117Y-84679970D01*
X163640290Y-84867173D01*
X163609500Y-85061577D01*
X163609500Y-85258422D01*
X163640290Y-85452826D01*
X163701117Y-85640029D01*
X163790343Y-85815143D01*
X163790476Y-85815405D01*
X163906172Y-85974646D01*
X164045354Y-86113828D01*
X164204595Y-86229524D01*
X164287455Y-86271743D01*
X164379970Y-86318882D01*
X164379972Y-86318882D01*
X164379975Y-86318884D01*
X164567174Y-86379709D01*
X164612458Y-86386881D01*
X164617785Y-86387725D01*
X164680919Y-86417654D01*
X164686068Y-86422517D01*
X165610000Y-87346448D01*
X165610001Y-87346448D01*
X166533930Y-86422517D01*
X166595253Y-86389032D01*
X166602178Y-86387730D01*
X166652826Y-86379709D01*
X166840025Y-86318884D01*
X167015405Y-86229524D01*
X167174646Y-86113828D01*
X167313828Y-85974646D01*
X167429524Y-85815405D01*
X167518884Y-85640025D01*
X167579709Y-85452826D01*
X167579728Y-85452705D01*
X167610500Y-85258422D01*
X167610500Y-85061617D01*
X182890000Y-85061617D01*
X182890000Y-85258382D01*
X182920778Y-85452705D01*
X182981581Y-85639835D01*
X183070904Y-85815143D01*
X183186555Y-85974321D01*
X183325677Y-86113443D01*
X183474718Y-86221729D01*
X183474719Y-86221728D01*
X184086448Y-85610000D01*
X184199244Y-85610000D01*
X184313694Y-85579333D01*
X184416306Y-85520090D01*
X184500090Y-85436306D01*
X184559333Y-85333694D01*
X184590000Y-85219244D01*
X184590000Y-85100756D01*
X184559333Y-84986306D01*
X184500090Y-84883694D01*
X184416306Y-84799910D01*
X184313694Y-84740667D01*
X184199244Y-84710000D01*
X184086449Y-84710000D01*
X183474719Y-84098270D01*
X183474716Y-84098269D01*
X183325686Y-84206549D01*
X183325677Y-84206556D01*
X183186555Y-84345678D01*
X183070904Y-84504856D01*
X182981581Y-84680164D01*
X182920778Y-84867294D01*
X182890000Y-85061617D01*
X167610500Y-85061617D01*
X167610500Y-85061577D01*
X167579709Y-84867173D01*
X167518882Y-84679970D01*
X167471743Y-84587455D01*
X167429524Y-84504595D01*
X167313828Y-84345354D01*
X167174646Y-84206172D01*
X167095025Y-84148324D01*
X167015403Y-84090474D01*
X166838787Y-84000485D01*
X166787990Y-83952511D01*
X166771195Y-83884690D01*
X166793732Y-83818555D01*
X166838787Y-83779515D01*
X167015403Y-83689525D01*
X167015402Y-83689525D01*
X167015405Y-83689524D01*
X167174646Y-83573828D01*
X167313828Y-83434646D01*
X167429524Y-83275405D01*
X167518884Y-83100025D01*
X167579709Y-82912826D01*
X167610500Y-82718422D01*
X167610500Y-82521577D01*
X167579709Y-82327173D01*
X167545568Y-82222100D01*
X167518884Y-82139975D01*
X167518882Y-82139972D01*
X167518882Y-82139970D01*
X167471743Y-82047455D01*
X167429524Y-81964595D01*
X167313828Y-81805354D01*
X167174646Y-81666172D01*
X167092632Y-81606585D01*
X167015403Y-81550474D01*
X166838787Y-81460485D01*
X166787990Y-81412511D01*
X166771195Y-81344690D01*
X166793732Y-81278555D01*
X166838787Y-81239515D01*
X167015403Y-81149525D01*
X167015402Y-81149525D01*
X167015405Y-81149524D01*
X167174646Y-81033828D01*
X167313828Y-80894646D01*
X167429524Y-80735405D01*
X167518884Y-80560025D01*
X167579709Y-80372826D01*
X167610500Y-80178422D01*
X167610500Y-79981577D01*
X167579709Y-79787173D01*
X167545568Y-79682100D01*
X167518884Y-79599975D01*
X167518882Y-79599972D01*
X167518882Y-79599970D01*
X167471743Y-79507455D01*
X167429524Y-79424595D01*
X167313828Y-79265354D01*
X167174646Y-79126172D01*
X167092632Y-79066585D01*
X167015403Y-79010474D01*
X166838787Y-78920485D01*
X166787990Y-78872511D01*
X166771195Y-78804690D01*
X166793732Y-78738555D01*
X166838787Y-78699515D01*
X167015403Y-78609525D01*
X167015402Y-78609525D01*
X167015405Y-78609524D01*
X167174646Y-78493828D01*
X167313828Y-78354646D01*
X167429524Y-78195405D01*
X167518884Y-78020025D01*
X167579709Y-77832826D01*
X167583807Y-77806953D01*
X167610500Y-77638422D01*
X167610500Y-77441577D01*
X167579709Y-77247173D01*
X167518882Y-77059970D01*
X167429523Y-76884594D01*
X167397964Y-76841157D01*
X167313828Y-76725354D01*
X167174646Y-76586172D01*
X167095025Y-76528324D01*
X167015403Y-76470474D01*
X166838787Y-76380485D01*
X166787990Y-76332511D01*
X166771195Y-76264690D01*
X166793732Y-76198555D01*
X166838787Y-76159515D01*
X167015403Y-76069525D01*
X167015402Y-76069525D01*
X167015405Y-76069524D01*
X167174646Y-75953828D01*
X167313828Y-75814646D01*
X167429524Y-75655405D01*
X167518884Y-75480025D01*
X167579709Y-75292826D01*
X167597710Y-75179172D01*
X167610500Y-75098422D01*
X167610500Y-74901577D01*
X167579709Y-74707173D01*
X167533980Y-74566436D01*
X167518884Y-74519975D01*
X167518882Y-74519972D01*
X167518882Y-74519970D01*
X167449488Y-74383777D01*
X167429524Y-74344595D01*
X167313828Y-74185354D01*
X167174646Y-74046172D01*
X167095025Y-73988324D01*
X167015403Y-73930474D01*
X166838787Y-73840485D01*
X166787990Y-73792511D01*
X166771195Y-73724690D01*
X166793732Y-73658555D01*
X166838787Y-73619515D01*
X167015403Y-73529525D01*
X167015402Y-73529525D01*
X167015405Y-73529524D01*
X167174646Y-73413828D01*
X167313828Y-73274646D01*
X167429524Y-73115405D01*
X167518884Y-72940025D01*
X167579709Y-72752826D01*
X167609521Y-72564602D01*
X167639450Y-72501467D01*
X167698762Y-72464536D01*
X167731994Y-72460000D01*
X182768006Y-72460000D01*
X182835045Y-72479685D01*
X182880800Y-72532489D01*
X182890479Y-72564602D01*
X182920290Y-72752826D01*
X182981117Y-72940029D01*
X183070476Y-73115405D01*
X183186172Y-73274646D01*
X183325354Y-73413828D01*
X183484595Y-73529524D01*
X183607992Y-73592397D01*
X183661213Y-73619515D01*
X183712009Y-73667489D01*
X183728804Y-73735310D01*
X183706267Y-73801445D01*
X183661213Y-73840485D01*
X183484594Y-73930476D01*
X183393741Y-73996485D01*
X183325354Y-74046172D01*
X183325352Y-74046174D01*
X183325351Y-74046174D01*
X183186174Y-74185351D01*
X183186174Y-74185352D01*
X183186172Y-74185354D01*
X183136485Y-74253741D01*
X183070476Y-74344594D01*
X182981117Y-74519970D01*
X182920290Y-74707173D01*
X182889500Y-74901577D01*
X182889500Y-75098422D01*
X182920290Y-75292826D01*
X182981117Y-75480029D01*
X183042684Y-75600860D01*
X183070476Y-75655405D01*
X183186172Y-75814646D01*
X183325354Y-75953828D01*
X183484595Y-76069524D01*
X183607992Y-76132397D01*
X183661213Y-76159515D01*
X183712009Y-76207489D01*
X183728804Y-76275310D01*
X183706267Y-76341445D01*
X183661213Y-76380485D01*
X183484594Y-76470476D01*
X183399896Y-76532014D01*
X183325354Y-76586172D01*
X183325352Y-76586174D01*
X183325351Y-76586174D01*
X183186174Y-76725351D01*
X183186174Y-76725352D01*
X183186172Y-76725354D01*
X183151041Y-76773707D01*
X183070476Y-76884594D01*
X182981117Y-77059970D01*
X182920290Y-77247173D01*
X182889500Y-77441577D01*
X182889500Y-77638422D01*
X182920290Y-77832826D01*
X182981117Y-78020029D01*
X183023501Y-78103211D01*
X183070476Y-78195405D01*
X183186172Y-78354646D01*
X183325354Y-78493828D01*
X183484595Y-78609524D01*
X183607992Y-78672397D01*
X183661213Y-78699515D01*
X183712009Y-78747489D01*
X183728804Y-78815310D01*
X183706267Y-78881445D01*
X183661213Y-78920485D01*
X183484594Y-79010476D01*
X183400369Y-79071670D01*
X183325354Y-79126172D01*
X183325352Y-79126174D01*
X183325351Y-79126174D01*
X183186174Y-79265351D01*
X183186174Y-79265352D01*
X183186172Y-79265354D01*
X183154756Y-79308594D01*
X183070476Y-79424594D01*
X182981117Y-79599970D01*
X182920290Y-79787173D01*
X182889500Y-79981577D01*
X182889500Y-80178422D01*
X182920290Y-80372826D01*
X182981117Y-80560029D01*
X183070476Y-80735405D01*
X183186172Y-80894646D01*
X183325354Y-81033828D01*
X183484595Y-81149524D01*
X183607992Y-81212397D01*
X183661213Y-81239515D01*
X183712009Y-81287489D01*
X183728804Y-81355310D01*
X183706267Y-81421445D01*
X183661213Y-81460485D01*
X183484594Y-81550476D01*
X183400369Y-81611670D01*
X183325354Y-81666172D01*
X183325352Y-81666174D01*
X183325351Y-81666174D01*
X183186174Y-81805351D01*
X183186174Y-81805352D01*
X183186172Y-81805354D01*
X183154756Y-81848594D01*
X183070476Y-81964594D01*
X182981117Y-82139970D01*
X182920290Y-82327173D01*
X182889500Y-82521577D01*
X182889500Y-82718422D01*
X182920290Y-82912826D01*
X182981117Y-83100029D01*
X183070476Y-83275405D01*
X183186172Y-83434646D01*
X183325354Y-83573828D01*
X183484595Y-83689524D01*
X183567455Y-83731743D01*
X183659970Y-83778882D01*
X183659972Y-83778882D01*
X183659975Y-83778884D01*
X183847174Y-83839709D01*
X183892458Y-83846881D01*
X183897785Y-83847725D01*
X183960919Y-83877654D01*
X183966068Y-83882517D01*
X184979094Y-84895543D01*
X185012579Y-84956866D01*
X185007595Y-85026558D01*
X184979095Y-85070905D01*
X184890000Y-85160000D01*
X184979094Y-85249094D01*
X185012579Y-85310417D01*
X185007595Y-85380109D01*
X184979094Y-85424456D01*
X183966068Y-86437482D01*
X183904745Y-86470967D01*
X183897787Y-86472274D01*
X183847171Y-86480291D01*
X183659970Y-86541117D01*
X183484594Y-86630476D01*
X183393741Y-86696485D01*
X183325354Y-86746172D01*
X183325352Y-86746174D01*
X183325351Y-86746174D01*
X183186174Y-86885351D01*
X183186174Y-86885352D01*
X183186172Y-86885354D01*
X183185937Y-86885678D01*
X183070476Y-87044594D01*
X182981117Y-87219970D01*
X182920290Y-87407173D01*
X182889500Y-87601577D01*
X182889500Y-87798422D01*
X182920290Y-87992826D01*
X182981117Y-88180029D01*
X183041670Y-88298870D01*
X183070476Y-88355405D01*
X183186172Y-88514646D01*
X183325354Y-88653828D01*
X183484595Y-88769524D01*
X183607992Y-88832397D01*
X183661213Y-88859515D01*
X183712009Y-88907489D01*
X183728804Y-88975310D01*
X183706267Y-89041445D01*
X183661213Y-89080485D01*
X183484594Y-89170476D01*
X183393741Y-89236485D01*
X183325354Y-89286172D01*
X183325352Y-89286174D01*
X183325351Y-89286174D01*
X183186174Y-89425351D01*
X183186174Y-89425352D01*
X183186172Y-89425354D01*
X183150896Y-89473907D01*
X183070476Y-89584594D01*
X182981117Y-89759970D01*
X182920290Y-89947173D01*
X182889500Y-90141577D01*
X182889500Y-90338422D01*
X182920290Y-90532826D01*
X182981117Y-90720029D01*
X183070476Y-90895405D01*
X183186172Y-91054646D01*
X183325354Y-91193828D01*
X183484595Y-91309524D01*
X183607992Y-91372397D01*
X183661213Y-91399515D01*
X183712009Y-91447489D01*
X183728804Y-91515310D01*
X183706267Y-91581445D01*
X183661213Y-91620485D01*
X183484594Y-91710476D01*
X183393741Y-91776485D01*
X183325354Y-91826172D01*
X183325352Y-91826174D01*
X183325351Y-91826174D01*
X183186174Y-91965351D01*
X183186174Y-91965352D01*
X183186172Y-91965354D01*
X183136485Y-92033741D01*
X183070476Y-92124594D01*
X182981117Y-92299970D01*
X182920290Y-92487173D01*
X182889500Y-92681577D01*
X182889500Y-92878422D01*
X182920290Y-93072826D01*
X182981117Y-93260029D01*
X183070476Y-93435405D01*
X183186172Y-93594646D01*
X183325354Y-93733828D01*
X183484595Y-93849524D01*
X183567455Y-93891743D01*
X183659970Y-93938882D01*
X183659972Y-93938882D01*
X183659975Y-93938884D01*
X183847174Y-93999709D01*
X183892458Y-94006881D01*
X183897785Y-94007725D01*
X183960919Y-94037654D01*
X183966068Y-94042517D01*
X185066776Y-95143224D01*
X185113681Y-95190129D01*
X185147166Y-95251452D01*
X185150000Y-95277810D01*
X185150000Y-95350000D01*
X185222190Y-95350000D01*
X185289229Y-95369685D01*
X185309871Y-95386319D01*
X186305280Y-96381729D01*
X186305281Y-96381729D01*
X186454316Y-96273448D01*
X186454322Y-96273443D01*
X186593444Y-96134321D01*
X186709095Y-95975143D01*
X186798418Y-95799835D01*
X186807569Y-95771674D01*
X186847006Y-95713999D01*
X186911365Y-95686800D01*
X186980211Y-95698714D01*
X187031687Y-95745958D01*
X187049500Y-95809992D01*
X187049500Y-97343907D01*
X187048903Y-97356060D01*
X187048903Y-97356061D01*
X187035335Y-97493819D01*
X187030593Y-97517661D01*
X186992186Y-97644271D01*
X186982883Y-97666728D01*
X186920517Y-97783406D01*
X186907012Y-97803618D01*
X186823079Y-97905891D01*
X186805891Y-97923079D01*
X186703618Y-98007012D01*
X186683406Y-98020517D01*
X186566728Y-98082883D01*
X186544271Y-98092186D01*
X186417661Y-98130593D01*
X186393819Y-98135335D01*
X186256062Y-98148903D01*
X186243908Y-98149500D01*
X88256092Y-98149500D01*
X88243938Y-98148903D01*
X88106180Y-98135335D01*
X88082340Y-98130593D01*
X87955728Y-98092186D01*
X87933271Y-98082883D01*
X87816593Y-98020517D01*
X87796381Y-98007012D01*
X87694108Y-97923079D01*
X87676920Y-97905891D01*
X87592986Y-97803616D01*
X87579482Y-97783406D01*
X87517116Y-97666728D01*
X87507815Y-97644277D01*
X87469404Y-97517652D01*
X87464665Y-97493824D01*
X87451097Y-97356060D01*
X87450500Y-97343907D01*
X87450500Y-67281617D01*
X163610000Y-67281617D01*
X163610000Y-67478382D01*
X163640778Y-67672705D01*
X163701581Y-67859835D01*
X163790904Y-68035143D01*
X163906555Y-68194321D01*
X164045677Y-68333443D01*
X164194718Y-68441729D01*
X164194719Y-68441729D01*
X165256448Y-67380000D01*
X165256448Y-67379999D01*
X164194719Y-66318270D01*
X164194716Y-66318269D01*
X164045686Y-66426549D01*
X164045677Y-66426556D01*
X163906555Y-66565678D01*
X163790904Y-66724856D01*
X163701581Y-66900164D01*
X163640778Y-67087294D01*
X163610000Y-67281617D01*
X87450500Y-67281617D01*
X87450500Y-66136572D01*
X164720124Y-66136572D01*
X164720124Y-66136573D01*
X165610000Y-67026448D01*
X165610001Y-67026448D01*
X166499875Y-66136572D01*
X166458377Y-66130000D01*
X164761623Y-66130000D01*
X164720124Y-66136572D01*
X87450500Y-66136572D01*
X87450500Y-62656092D01*
X87451097Y-62643939D01*
X87459805Y-62555519D01*
X87464665Y-62506171D01*
X87469403Y-62482349D01*
X87507816Y-62355719D01*
X87517113Y-62333278D01*
X87579485Y-62216587D01*
X87592982Y-62196387D01*
X87676924Y-62094103D01*
X87694103Y-62076924D01*
X87796387Y-61992982D01*
X87816587Y-61979485D01*
X87933278Y-61917113D01*
X87955719Y-61907816D01*
X88082349Y-61869403D01*
X88106173Y-61864665D01*
X88235170Y-61851960D01*
X88243939Y-61851097D01*
X88256092Y-61850500D01*
X88289882Y-61850500D01*
X167506000Y-61850500D01*
X167573039Y-61870185D01*
G37*
%TD.AperFunction*%
%TA.AperFunction,Conductor*%
G36*
X163330307Y-80708549D02*
G01*
X163330351Y-80708297D01*
X163334706Y-80709048D01*
X163334712Y-80709048D01*
X163334722Y-80709051D01*
X163484942Y-80724050D01*
X163498734Y-80726219D01*
X163572948Y-80742227D01*
X163581536Y-80744403D01*
X163675409Y-80771807D01*
X163683908Y-80774626D01*
X163772431Y-80807573D01*
X163781575Y-80811399D01*
X163849460Y-80843048D01*
X163897381Y-80882548D01*
X163906164Y-80894637D01*
X163906171Y-80894645D01*
X164045359Y-81033833D01*
X164118335Y-81086852D01*
X164118336Y-81086852D01*
X164121928Y-81089462D01*
X164137544Y-81102611D01*
X164148050Y-81108441D01*
X164204595Y-81149524D01*
X164333204Y-81215053D01*
X164381213Y-81239515D01*
X164389211Y-81247069D01*
X164399508Y-81250943D01*
X164414161Y-81270633D01*
X164432009Y-81287489D01*
X164434653Y-81298167D01*
X164441222Y-81306994D01*
X164442903Y-81331484D01*
X164448804Y-81355310D01*
X164445255Y-81365723D01*
X164446009Y-81376700D01*
X164434185Y-81398208D01*
X164426267Y-81421445D01*
X164416768Y-81429891D01*
X164412351Y-81437928D01*
X164387437Y-81455975D01*
X164384038Y-81458999D01*
X164380373Y-81460986D01*
X164379975Y-81461116D01*
X164204595Y-81550476D01*
X164176038Y-81571223D01*
X164169486Y-81575339D01*
X164169308Y-81575464D01*
X164169307Y-81575465D01*
X164125199Y-81606585D01*
X164120588Y-81610569D01*
X164120361Y-81610306D01*
X164111194Y-81618334D01*
X164045350Y-81666175D01*
X163906166Y-81805360D01*
X163899526Y-81814500D01*
X163892340Y-81821012D01*
X163889507Y-81826597D01*
X163861906Y-81848594D01*
X163848610Y-81856386D01*
X163832089Y-81864486D01*
X163681328Y-81924976D01*
X163665449Y-81930136D01*
X163491304Y-81974014D01*
X163473288Y-81977162D01*
X163334912Y-81990933D01*
X163317754Y-81993140D01*
X163315058Y-81993487D01*
X163299241Y-81994500D01*
X137668389Y-81994500D01*
X137607971Y-82006518D01*
X137564743Y-82015116D01*
X137547546Y-82018537D01*
X137433716Y-82065687D01*
X137433707Y-82065692D01*
X137331268Y-82134140D01*
X137298703Y-82166706D01*
X137244142Y-82221267D01*
X137244139Y-82221270D01*
X136827229Y-82638181D01*
X136765906Y-82671666D01*
X136739548Y-82674500D01*
X118824000Y-82674500D01*
X118756961Y-82654815D01*
X118711206Y-82602011D01*
X118700000Y-82550500D01*
X118700000Y-81509500D01*
X118719685Y-81442461D01*
X118772489Y-81396706D01*
X118824000Y-81385500D01*
X137111608Y-81385500D01*
X137111608Y-81385499D01*
X137192046Y-81369500D01*
X137232452Y-81361463D01*
X137265792Y-81347652D01*
X137346286Y-81314312D01*
X137397509Y-81280084D01*
X137399798Y-81278555D01*
X137411654Y-81270633D01*
X137448733Y-81245858D01*
X137535858Y-81158733D01*
X137535859Y-81158731D01*
X137542925Y-81151665D01*
X137542927Y-81151661D01*
X137952771Y-80741819D01*
X138014094Y-80708334D01*
X138040452Y-80705500D01*
X163305258Y-80705500D01*
X163330307Y-80708549D01*
G37*
%TD.AperFunction*%
%TD*%
%TA.AperFunction,Conductor*%
%TO.N,GND*%
G36*
X168756723Y-87849349D02*
G01*
X168777155Y-87882515D01*
X168769976Y-87895314D01*
X168744236Y-87900000D01*
X168744236Y-87839850D01*
X168756723Y-87849349D01*
G37*
%TD.AperFunction*%
%TA.AperFunction,Conductor*%
G36*
X168737620Y-87802903D02*
G01*
X168744236Y-87807935D01*
X168744236Y-87839850D01*
X168718836Y-87820528D01*
X168718836Y-87812215D01*
X168722263Y-87803942D01*
X168730536Y-87800515D01*
X168737620Y-87802903D01*
G37*
%TD.AperFunction*%
%TA.AperFunction,Conductor*%
G36*
X168521742Y-87716347D02*
G01*
X168574508Y-87734987D01*
X168592209Y-87741240D01*
X168618347Y-87755195D01*
X168604108Y-87767354D01*
X168528169Y-87802874D01*
X168482595Y-87800011D01*
X168465858Y-87784783D01*
X168455764Y-87758527D01*
X168459253Y-87725984D01*
X168483023Y-87713253D01*
X168521742Y-87716347D01*
G37*
%TD.AperFunction*%
%TA.AperFunction,Conductor*%
G36*
X168744236Y-87701340D02*
G01*
X168744236Y-87727234D01*
X168732811Y-87729499D01*
X168724029Y-87727746D01*
X168719059Y-87720297D01*
X168718836Y-87718022D01*
X168718836Y-87702795D01*
X168718830Y-87702793D01*
X168718809Y-87702818D01*
X168676202Y-87739197D01*
X168670881Y-87741776D01*
X168653569Y-87745208D01*
X168653094Y-87748412D01*
X168653713Y-87749165D01*
X168652843Y-87758078D01*
X168650117Y-87761469D01*
X168642414Y-87768045D01*
X168618347Y-87755195D01*
X168662431Y-87717557D01*
X168701932Y-87683831D01*
X168708937Y-87682443D01*
X168715293Y-87683711D01*
X168718574Y-87680680D01*
X168718703Y-87680643D01*
X168718836Y-87680482D01*
X168718836Y-87666133D01*
X168744236Y-87635042D01*
X168744236Y-87701340D01*
G37*
%TD.AperFunction*%
%TA.AperFunction,Conductor*%
G36*
X168783193Y-87511338D02*
G01*
X168792841Y-87533789D01*
X168786924Y-87565143D01*
X168757496Y-87618811D01*
X168744236Y-87635042D01*
X168744236Y-87500000D01*
X168783193Y-87511338D01*
G37*
%TD.AperFunction*%
%TD*%
%TA.AperFunction,Conductor*%
%TO.N,GND*%
G36*
X169499948Y-73248900D02*
G01*
X169493418Y-73294945D01*
X169476962Y-73335890D01*
X169447960Y-73376045D01*
X169410041Y-73409055D01*
X169360801Y-73436658D01*
X169306146Y-73454989D01*
X169194802Y-73462693D01*
X169103140Y-73436453D01*
X169039713Y-73384566D01*
X169018887Y-73349856D01*
X169005764Y-73308527D01*
X169006613Y-73292054D01*
X169015769Y-73282914D01*
X169048635Y-73276798D01*
X169083531Y-73270557D01*
X169095441Y-73261159D01*
X169100000Y-73244236D01*
X169500000Y-73244236D01*
X169499948Y-73248900D01*
G37*
%TD.AperFunction*%
%TD*%
%TA.AperFunction,Conductor*%
%TO.N,+3.3V*%
G36*
X154549488Y-88513844D02*
G01*
X154554753Y-88521088D01*
X154554848Y-88521517D01*
X154650536Y-88997695D01*
X154650536Y-89002305D01*
X154554870Y-89478374D01*
X154549880Y-89485810D01*
X154541094Y-89487540D01*
X154540562Y-89487420D01*
X154416281Y-89456356D01*
X154415089Y-89455989D01*
X154308352Y-89416837D01*
X154306958Y-89416220D01*
X154144397Y-89331135D01*
X154144303Y-89331085D01*
X154019762Y-89264451D01*
X154019759Y-89264450D01*
X153872719Y-89218122D01*
X153872716Y-89218121D01*
X153838413Y-89213355D01*
X153776587Y-89204765D01*
X153776584Y-89204764D01*
X153776578Y-89204764D01*
X153670831Y-89200457D01*
X153662704Y-89196697D01*
X153659607Y-89188767D01*
X153659607Y-88810985D01*
X153663034Y-88802712D01*
X153670568Y-88799308D01*
X153828254Y-88789362D01*
X153828261Y-88789360D01*
X153828264Y-88789360D01*
X153869890Y-88779916D01*
X153954579Y-88760705D01*
X154054610Y-88718915D01*
X154144371Y-88668878D01*
X154184346Y-88645737D01*
X154185103Y-88645336D01*
X154344185Y-88568584D01*
X154345545Y-88568032D01*
X154438133Y-88537129D01*
X154439082Y-88536857D01*
X154540643Y-88512446D01*
X154549488Y-88513844D01*
G37*
%TD.AperFunction*%
%TD*%
%TA.AperFunction,Conductor*%
%TO.N,+3.3V*%
G36*
X142709423Y-88512575D02*
G01*
X142833727Y-88543644D01*
X142834902Y-88544006D01*
X142941656Y-88583166D01*
X142943033Y-88583775D01*
X143105627Y-88668878D01*
X143230235Y-88735547D01*
X143230237Y-88735548D01*
X143230240Y-88735549D01*
X143303760Y-88758713D01*
X143377285Y-88781879D01*
X143473413Y-88795235D01*
X143579170Y-88799542D01*
X143587296Y-88803302D01*
X143590393Y-88811232D01*
X143590393Y-89189014D01*
X143586966Y-89197287D01*
X143579430Y-89200691D01*
X143421742Y-89210638D01*
X143421734Y-89210639D01*
X143295416Y-89239295D01*
X143195392Y-89281083D01*
X143105634Y-89331117D01*
X143065663Y-89354255D01*
X143064886Y-89354667D01*
X142905824Y-89431409D01*
X142904444Y-89431969D01*
X142811877Y-89462866D01*
X142810907Y-89463144D01*
X142709356Y-89487553D01*
X142700511Y-89486155D01*
X142695246Y-89478911D01*
X142695151Y-89478482D01*
X142692045Y-89463027D01*
X142599463Y-89002304D01*
X142599463Y-88997695D01*
X142636933Y-88811232D01*
X142695130Y-88521622D01*
X142700119Y-88514189D01*
X142708905Y-88512459D01*
X142709423Y-88512575D01*
G37*
%TD.AperFunction*%
%TD*%
%TA.AperFunction,Conductor*%
%TO.N,/~{RES}*%
G36*
X164451501Y-79459057D02*
G01*
X165102951Y-79670900D01*
X166326785Y-80068874D01*
X166333593Y-80074691D01*
X166334293Y-80083618D01*
X166328476Y-80090426D01*
X166326785Y-80091126D01*
X164452172Y-80700723D01*
X164443245Y-80700023D01*
X164438527Y-80695626D01*
X164413518Y-80654030D01*
X164360268Y-80589005D01*
X164294977Y-80528486D01*
X164203452Y-80461994D01*
X164100837Y-80402506D01*
X163972356Y-80342606D01*
X163838906Y-80292938D01*
X163701585Y-80252849D01*
X163701571Y-80252845D01*
X163570542Y-80224584D01*
X163570533Y-80224583D01*
X163384948Y-80206052D01*
X163377057Y-80201820D01*
X163374411Y-80194410D01*
X163374411Y-79965593D01*
X163377838Y-79957320D01*
X163384952Y-79953951D01*
X163417688Y-79950693D01*
X163569678Y-79935567D01*
X163830137Y-79869941D01*
X164063790Y-79776193D01*
X164243468Y-79670897D01*
X164367512Y-79563231D01*
X164438344Y-79463411D01*
X164445926Y-79458649D01*
X164451501Y-79459057D01*
G37*
%TD.AperFunction*%
%TD*%
%TA.AperFunction,Conductor*%
%TO.N,/~{RES}*%
G36*
X95205001Y-79068680D02*
G01*
X95205537Y-79069570D01*
X95271578Y-79191338D01*
X95272412Y-79193275D01*
X95306131Y-79296237D01*
X95306266Y-79296677D01*
X95314626Y-79326071D01*
X95314631Y-79326088D01*
X95358489Y-79431888D01*
X95358490Y-79431890D01*
X95398557Y-79490142D01*
X95427166Y-79521915D01*
X95451146Y-79548548D01*
X95454135Y-79556989D01*
X95450724Y-79564650D01*
X95289582Y-79725792D01*
X95281309Y-79729219D01*
X95273557Y-79726281D01*
X95205762Y-79666276D01*
X95205763Y-79666276D01*
X95205759Y-79666273D01*
X95140259Y-79624331D01*
X95140256Y-79624329D01*
X95021463Y-79581204D01*
X94927451Y-79551081D01*
X94925516Y-79550263D01*
X94794693Y-79480501D01*
X94789005Y-79473584D01*
X94789874Y-79464672D01*
X94790449Y-79463709D01*
X94811561Y-79431888D01*
X94947985Y-79226263D01*
X94951263Y-79222985D01*
X95188785Y-79065398D01*
X95197572Y-79063680D01*
X95205001Y-79068680D01*
G37*
%TD.AperFunction*%
%TD*%
%TA.AperFunction,Conductor*%
%TO.N,/RESE*%
G36*
X105049488Y-83813844D02*
G01*
X105054753Y-83821088D01*
X105054848Y-83821517D01*
X105150536Y-84297695D01*
X105150536Y-84302305D01*
X105054870Y-84778374D01*
X105049880Y-84785810D01*
X105041094Y-84787540D01*
X105040562Y-84787420D01*
X104916281Y-84756356D01*
X104915089Y-84755989D01*
X104808352Y-84716837D01*
X104806958Y-84716220D01*
X104644397Y-84631135D01*
X104644303Y-84631085D01*
X104519762Y-84564451D01*
X104519759Y-84564450D01*
X104372719Y-84518122D01*
X104372716Y-84518121D01*
X104338413Y-84513355D01*
X104276587Y-84504765D01*
X104276584Y-84504764D01*
X104276578Y-84504764D01*
X104170831Y-84500457D01*
X104162704Y-84496697D01*
X104159607Y-84488767D01*
X104159607Y-84110985D01*
X104163034Y-84102712D01*
X104170568Y-84099308D01*
X104328254Y-84089362D01*
X104328261Y-84089360D01*
X104328264Y-84089360D01*
X104369890Y-84079916D01*
X104454579Y-84060705D01*
X104554610Y-84018915D01*
X104644371Y-83968878D01*
X104684346Y-83945737D01*
X104685103Y-83945336D01*
X104844185Y-83868584D01*
X104845545Y-83868032D01*
X104938133Y-83837129D01*
X104939082Y-83836857D01*
X105040643Y-83812446D01*
X105049488Y-83813844D01*
G37*
%TD.AperFunction*%
%TD*%
%TA.AperFunction,Conductor*%
%TO.N,/RESE*%
G36*
X93910312Y-75689810D02*
G01*
X93910686Y-75690048D01*
X94144923Y-75845455D01*
X94148734Y-75847984D01*
X94152015Y-75851265D01*
X94309932Y-76089283D01*
X94311651Y-76098071D01*
X94306651Y-76105500D01*
X94306247Y-76105757D01*
X94136085Y-76208874D01*
X94135972Y-76208942D01*
X94046816Y-76261610D01*
X93970197Y-76319378D01*
X93879497Y-76403908D01*
X93871108Y-76407042D01*
X93863247Y-76403622D01*
X93596174Y-76136549D01*
X93592747Y-76128276D01*
X93595685Y-76120524D01*
X93718719Y-75981507D01*
X93791074Y-75863998D01*
X93800779Y-75847984D01*
X93812921Y-75827946D01*
X93894243Y-75693751D01*
X93901460Y-75688453D01*
X93910312Y-75689810D01*
G37*
%TD.AperFunction*%
%TD*%
%TA.AperFunction,Conductor*%
%TO.N,/GDR*%
G36*
X94405001Y-74643680D02*
G01*
X94405537Y-74644570D01*
X94471578Y-74766338D01*
X94472412Y-74768275D01*
X94506131Y-74871237D01*
X94506266Y-74871677D01*
X94514626Y-74901071D01*
X94514631Y-74901088D01*
X94558489Y-75006888D01*
X94558490Y-75006890D01*
X94598557Y-75065142D01*
X94627166Y-75096915D01*
X94651146Y-75123548D01*
X94654135Y-75131989D01*
X94650724Y-75139650D01*
X94489582Y-75300792D01*
X94481309Y-75304219D01*
X94473557Y-75301281D01*
X94405762Y-75241276D01*
X94405763Y-75241276D01*
X94405759Y-75241273D01*
X94340259Y-75199331D01*
X94340256Y-75199329D01*
X94221463Y-75156204D01*
X94127451Y-75126081D01*
X94125516Y-75125263D01*
X93994693Y-75055501D01*
X93989005Y-75048584D01*
X93989874Y-75039672D01*
X93990449Y-75038709D01*
X94011561Y-75006888D01*
X94147985Y-74801263D01*
X94151263Y-74797985D01*
X94388785Y-74640398D01*
X94397572Y-74638680D01*
X94405001Y-74643680D01*
G37*
%TD.AperFunction*%
%TD*%
%TA.AperFunction,Conductor*%
%TO.N,/GDR*%
G36*
X98376441Y-78848717D02*
G01*
X98444238Y-78908723D01*
X98487908Y-78936687D01*
X98509744Y-78950670D01*
X98628535Y-78993794D01*
X98722547Y-79023917D01*
X98724482Y-79024735D01*
X98855306Y-79094498D01*
X98860994Y-79101415D01*
X98860125Y-79110327D01*
X98859550Y-79111290D01*
X98702015Y-79348734D01*
X98698734Y-79352015D01*
X98461215Y-79509600D01*
X98452427Y-79511319D01*
X98444998Y-79506319D01*
X98444462Y-79505429D01*
X98439481Y-79496245D01*
X98378416Y-79383652D01*
X98377589Y-79381731D01*
X98343857Y-79278729D01*
X98343732Y-79278320D01*
X98335374Y-79248931D01*
X98335372Y-79248923D01*
X98291510Y-79143109D01*
X98251442Y-79084858D01*
X98218154Y-79047888D01*
X98198853Y-79026451D01*
X98195864Y-79018009D01*
X98199274Y-79010350D01*
X98360418Y-78849206D01*
X98368690Y-78845780D01*
X98376441Y-78848717D01*
G37*
%TD.AperFunction*%
%TD*%
%TA.AperFunction,Conductor*%
%TO.N,/BUSY*%
G36*
X94153307Y-78726979D02*
G01*
X94153340Y-78727001D01*
X94388802Y-78884552D01*
X94393773Y-78892001D01*
X94392020Y-78900782D01*
X94391398Y-78901628D01*
X94345672Y-78958239D01*
X94344768Y-78959235D01*
X94288505Y-79014483D01*
X94288399Y-79014586D01*
X94257212Y-79044447D01*
X94208807Y-79105137D01*
X94208807Y-79105139D01*
X94200595Y-79157541D01*
X94214377Y-79191040D01*
X94214378Y-79191042D01*
X94238026Y-79220037D01*
X94240599Y-79228614D01*
X94237232Y-79235705D01*
X94076780Y-79396157D01*
X94068507Y-79399584D01*
X94060234Y-79396157D01*
X94059708Y-79395595D01*
X93972982Y-79296349D01*
X93971598Y-79294391D01*
X93920772Y-79204098D01*
X93919660Y-79201361D01*
X93896524Y-79114218D01*
X93896202Y-79112476D01*
X93885752Y-79013366D01*
X93857176Y-78794349D01*
X93859504Y-78785703D01*
X93866462Y-78781368D01*
X94144520Y-78725256D01*
X94153307Y-78726979D01*
G37*
%TD.AperFunction*%
%TD*%
%TA.AperFunction,Conductor*%
%TO.N,/BUSY*%
G36*
X164451501Y-81999057D02*
G01*
X165102951Y-82210900D01*
X166326785Y-82608874D01*
X166333593Y-82614691D01*
X166334293Y-82623618D01*
X166328476Y-82630426D01*
X166326785Y-82631126D01*
X164452172Y-83240723D01*
X164443245Y-83240023D01*
X164438527Y-83235626D01*
X164413518Y-83194030D01*
X164360268Y-83129005D01*
X164294977Y-83068486D01*
X164203452Y-83001994D01*
X164100837Y-82942506D01*
X163972356Y-82882606D01*
X163838906Y-82832938D01*
X163701585Y-82792849D01*
X163701571Y-82792845D01*
X163570542Y-82764584D01*
X163570533Y-82764583D01*
X163384948Y-82746052D01*
X163377057Y-82741820D01*
X163374411Y-82734410D01*
X163374411Y-82505593D01*
X163377838Y-82497320D01*
X163384952Y-82493951D01*
X163417688Y-82490693D01*
X163569678Y-82475567D01*
X163830137Y-82409941D01*
X164063790Y-82316193D01*
X164243468Y-82210897D01*
X164367512Y-82103231D01*
X164438344Y-82003411D01*
X164445926Y-81998649D01*
X164451501Y-81999057D01*
G37*
%TD.AperFunction*%
%TD*%
M02*
